<?xml version="1.0" standalone="no"?>
<!DOCTYPE svg PUBLIC "-//W3C//DTD SVG 1.1//EN" "http://www.w3.org/Graphics/SVG/1.1/DTD/svg11.dtd" >
<svg xmlns="http://www.w3.org/2000/svg" xmlns:xlink="http://www.w3.org/1999/xlink" version="1.1">
<metadata>
Created by FontForge 20161013 at Fri Sep  4 17:15:24 2015
 By ,,,
(c) 2014 Adobe Systems Incorporated. All Rights Reserved.
</metadata>
<defs>
<font id="AcuminProWide-Regular" horiz-adv-x="400" >
  <font-face 
    font-family="Acumin Pro Wide"
    font-weight="400"
    font-stretch="expanded"
    units-per-em="1000"
    panose-1="2 11 5 5 2 2 2 2 2 4"
    ascent="735"
    descent="-265"
    x-height="506"
    cap-height="710"
    bbox="-190 -265 1310 1067"
    underline-thickness="50"
    underline-position="-200"
    unicode-range="U+0020-FB02"
  />
<missing-glyph horiz-adv-x="500" 
d="M0 0v700h500v-700h-500zM250 395l170 255h-340zM280 350l170 -255v510zM80 50h340l-170 255zM50 605v-510l170 255z" />
    <glyph glyph-name="f_f" unicode="ff" horiz-adv-x="636" 
d="M419 431h-213v-431h-95v431h-95v75h95v64q0 86 39.5 138t125.5 52q35 0 56 -6v-76q-23 5 -43 5q-47 0 -65 -28t-18 -87v-62h213v65q0 189 165 189q35 0 56 -6v-76q-22 5 -43 5q-47 0 -65 -28t-18 -87v-62h119v-75h-119v-431h-95v431z" />
    <glyph glyph-name=".notdef" horiz-adv-x="500" 
d="M0 0v700h500v-700h-500zM250 395l170 255h-340zM280 350l170 -255v510zM80 50h340l-170 255zM50 605v-510l170 255z" />
    <glyph glyph-name=".null" horiz-adv-x="0" 
 />
    <glyph glyph-name="nonmarkingreturn" horiz-adv-x="333" 
 />
    <glyph glyph-name="space" unicode=" " horiz-adv-x="296" 
 />
    <glyph glyph-name="exclam" unicode="!" horiz-adv-x="325" 
d="M222 251h-84l-9 345v114h103v-114zM226 0h-92v151h92v-151z" />
    <glyph glyph-name="quotedbl" unicode="&#x22;" horiz-adv-x="368" 
d="M128 460h-70l-11 207v85h91v-84zM311 460h-70l-11 207v85h91v-84z" />
    <glyph glyph-name="numbersign" unicode="#" horiz-adv-x="705" 
d="M326 0l58 187h-172l-58 -187h-74l58 187h-89v77h113l55 179h-110v76h134l53 171h73l-53 -171h173l53 171h73l-53 -171h84v-76h-107l-55 -179h106v-77h-130l-57 -187h-75zM408 264l55 179h-172l-56 -179h173z" />
    <glyph glyph-name="dollar" unicode="$" horiz-adv-x="610" 
d="M150 509q0 -39 26 -62t95 -41v201q-65 -3 -93 -31t-28 -67zM465 174q0 43 -26 71t-102 48v-227q61 5 94.5 32.5t33.5 75.5zM337 -104h-66v93q-101 8 -163.5 59.5t-78.5 139.5h98q28 -105 144 -120v240q-122 27 -170.5 72t-48.5 120q0 71 56 124.5t163 58.5v76h66v-77
q102 -10 153.5 -60t58.5 -116h-96q-19 81 -116 97v-212q68 -15 114.5 -36.5t70.5 -49.5t33.5 -56t9.5 -63q0 -82 -59.5 -136t-168.5 -61v-93z" />
    <glyph glyph-name="percent" unicode="%" horiz-adv-x="943" 
d="M219 690q85 0 133.5 -51.5t48.5 -142.5q0 -84 -47.5 -140t-135.5 -56q-85 0 -132 54.5t-47 140.5q0 82 47 138.5t133 56.5zM219 624q-46 0 -73.5 -33.5t-27.5 -94.5q0 -59 27 -94.5t75 -35.5q50 0 77 35.5t27 94.5q0 60 -26.5 94t-78.5 34zM275 0h-80l468 676h81z
M723 378q85 0 133 -51.5t48 -142.5q0 -85 -47 -140.5t-136 -55.5q-86 0 -132 54t-46 141q0 82 47 138.5t133 56.5zM722 312q-46 0 -73.5 -34t-27.5 -94t27 -95t76 -35q50 0 77 35.5t27 94.5q0 128 -106 128z" />
    <glyph glyph-name="ampersand" unicode="&#x26;" horiz-adv-x="854" 
d="M290 68q51 0 88 22.5t86 82.5l-192 167q-68 -33 -91.5 -69t-23.5 -78q0 -52 37.5 -88.5t95.5 -36.5zM683 462h110l-212 -271l221 -191h-140l-138 120q-56 -68 -109 -101t-131 -33q-108 0 -165.5 60t-57.5 138q0 64 35.5 110t121.5 94q-82 79 -82 161q0 73 53 124.5
t143 51.5q91 0 139 -50t48 -117q0 -57 -36.5 -97t-119.5 -81l157 -136zM330 656q-46 0 -73.5 -28.5t-27.5 -72.5q0 -64 81 -127q65 31 92.5 61t27.5 69t-24.5 68.5t-75.5 29.5z" />
    <glyph glyph-name="quotesingle" unicode="'" horiz-adv-x="188" 
d="M133 460h-76l-11 191v101h97v-100z" />
    <glyph glyph-name="parenleft" unicode="(" horiz-adv-x="370" 
d="M238 752h98q-187 -199 -187 -450q0 -133 47 -244t140 -217h-98q-77 82 -127.5 202t-50.5 261q0 140 51.5 255.5t126.5 192.5z" />
    <glyph glyph-name="parenright" unicode=")" horiz-adv-x="370" 
d="M132 -159h-98q187 199 187 450q0 133 -47 244t-140 217h98q77 -82 127.5 -202t50.5 -261q0 -140 -51.5 -255.5t-126.5 -192.5z" />
    <glyph glyph-name="asterisk" unicode="*" horiz-adv-x="463" 
d="M190 711h84l-17 -172l140 104l43 -72l-162 -78l162 -78l-43 -71l-138 104l15 -171h-84l16 171l-140 -104l-43 71l165 77l-164 79l41 72l142 -104z" />
    <glyph glyph-name="plus" unicode="+" horiz-adv-x="825" 
d="M370 630h85v-265h266v-84h-266v-281h-85v281h-266v84h266v265z" />
    <glyph glyph-name="comma" unicode="," horiz-adv-x="250" 
d="M93 -136h-83q68 151 82 300h98q-7 -69 -34 -155t-63 -145z" />
    <glyph glyph-name="hyphen" unicode="-" horiz-adv-x="433" 
d="M57 297h319v-82h-319v82z" />
    <glyph glyph-name="period" unicode="." horiz-adv-x="222" 
d="M164 0h-106v164h106v-164z" />
    <glyph glyph-name="slash" unicode="/" horiz-adv-x="524" 
d="M136 -51h-89l341 761h89z" />
    <glyph glyph-name="zero" unicode="0" horiz-adv-x="648" 
d="M326 690q128 0 197 -98t69 -248q0 -75 -15.5 -138t-46.5 -113t-83.5 -78.5t-122.5 -28.5q-130 0 -199 98.5t-69 253.5t70 253.5t200 98.5zM326 610q-86 0 -128.5 -73.5t-42.5 -198.5q0 -50 9 -96t28 -86.5t53 -64.5t79 -24q47 0 81 22.5t52.5 62.5t27 87.5t8.5 104.5
q0 70 -14 126.5t-53.5 98t-99.5 41.5z" />
    <glyph glyph-name="one" unicode="1" horiz-adv-x="388" 
d="M289 0h-95v558q-28 -20 -78 -39.5t-78 -23.5v76q54 16 102 45.5t77 59.5h72v-676z" />
    <glyph glyph-name="two" unicode="2" horiz-adv-x="592" 
d="M551 0h-505v5q0 172 233 314q99 60 129 90.5t30 82.5q0 49 -34.5 84t-105.5 35q-128 0 -152 -139h-93q8 97 74 157.5t174 60.5q111 0 172.5 -56.5t61.5 -140.5q0 -42 -10.5 -72.5t-38.5 -58t-55.5 -46.5t-84.5 -53q-163 -99 -187 -182h406z" />
    <glyph glyph-name="three" unicode="3" horiz-adv-x="629" 
d="M161 508h-94q5 32 20 62t42 58t74 45t108 17q116 0 174.5 -53t58.5 -128q0 -60 -32 -93.5t-72 -44.5v-2q49 -12 91 -54t42 -117q0 -95 -69 -153.5t-191 -58.5q-120 0 -185 56t-79 140h97q14 -54 58 -85.5t113 -31.5q70 0 113 33.5t43 101.5q0 59 -41 91.5t-121 32.5h-52
v81h43q78 0 110 25.5t32 74.5q0 46 -34 76.5t-102 30.5q-119 0 -147 -104z" />
    <glyph glyph-name="four" unicode="4" horiz-adv-x="621" 
d="M488 0h-91v173h-354v84l338 419h107v-420h103l-12 -83h-91v-173zM397 256v168q0 105 3 159q-55 -81 -255 -327h252z" />
    <glyph glyph-name="five" unicode="5" horiz-adv-x="633" 
d="M556 676l-11 -81h-332q-8 -62 -31 -192q59 53 164 53t168.5 -61t63.5 -163q0 -111 -69.5 -178.5t-190.5 -67.5q-114 0 -179 54.5t-78 135.5h94q34 -110 165 -110q77 0 119.5 44t42.5 117q0 62 -37 106.5t-119 44.5q-69 0 -107 -24.5t-60 -68.5l-83 13q14 67 33.5 191.5
t26.5 186.5h420z" />
    <glyph glyph-name="six" unicode="6" horiz-adv-x="626" 
d="M557 528h-94q-32 86 -135 86q-166 0 -175 -254q64 98 196 98q105 0 168 -61t63 -161q0 -115 -71 -182t-186 -67q-127 0 -197 88t-70 255q0 55 8 104.5t28.5 97t51 82t79.5 55.5t110 21q102 0 157.5 -48.5t66.5 -113.5zM324 65q75 0 117 44.5t42 119.5q0 68 -39.5 109.5
t-114.5 41.5q-78 0 -122 -42.5t-44 -100.5q0 -22 7.5 -48t24 -55.5t50 -49t79.5 -19.5z" />
    <glyph glyph-name="seven" unicode="7" horiz-adv-x="531" 
d="M13 676h494v-77q-96 -123 -173.5 -284.5t-110.5 -314.5h-104q27 145 108.5 312.5t175.5 281.5h-390v82z" />
    <glyph glyph-name="eight" unicode="8" horiz-adv-x="636" 
d="M316 -14q-114 0 -188.5 55.5t-74.5 148.5q0 63 36.5 107t94.5 65q-43 20 -69.5 57.5t-26.5 87.5q0 82 62.5 132.5t173.5 50.5q99 0 163.5 -49t64.5 -135q0 -54 -29 -90.5t-72 -50.5q63 -20 97 -65.5t34 -106.5q0 -99 -77.5 -153t-188.5 -54zM317 62q71 0 119.5 32.5
t48.5 97.5q0 57 -40 93t-127 36q-90 0 -129 -35.5t-39 -91.5q0 -63 48 -97.5t119 -34.5zM321 616q-63 0 -101 -28t-38 -81q0 -46 34 -77t107 -31q132 0 132 107q0 49 -36 79.5t-98 30.5z" />
    <glyph glyph-name="nine" unicode="9" horiz-adv-x="624" 
d="M61 157h97q35 -93 143 -93q50 0 84 23t52 66t25.5 85t10.5 98q-53 -90 -185 -90q-110 0 -173 60t-63 153q0 101 68.5 165.5t181.5 64.5q129 0 197.5 -81.5t68.5 -235.5q0 -80 -13.5 -146t-43 -121.5t-83.5 -86.5t-129 -31q-107 0 -164.5 50t-73.5 120zM300 611
q-71 0 -110 -41t-39 -105q0 -66 41.5 -104t112.5 -38q70 0 112 36t42 92q0 61 -37.5 110.5t-121.5 49.5z" />
    <glyph glyph-name="colon" unicode=":" horiz-adv-x="273" 
d="M186 0h-99v157h99v-157zM186 353h-99v157h99v-157z" />
    <glyph glyph-name="semicolon" unicode=";" horiz-adv-x="292" 
d="M107 -140h-85q70 153 80 297h101q-7 -70 -33 -155t-63 -142zM205 353h-105v157h105v-157z" />
    <glyph glyph-name="less" unicode="&#x3c;" horiz-adv-x="786" 
d="M104 280v82l578 269v-92l-479 -217l479 -228v-93z" />
    <glyph glyph-name="equal" unicode="=" horiz-adv-x="825" 
d="M104 230h617v-84h-617v84zM104 510h617v-84h-617v84z" />
    <glyph glyph-name="greater" unicode="&#x3e;" horiz-adv-x="786" 
d="M682 353v-83l-578 -269v93l478 216l-478 228v93z" />
    <glyph glyph-name="question" unicode="?" horiz-adv-x="602" 
d="M351 215h-99v12q0 45 22 82.5t89 88.5q55 42 74 69t20 65q1 50 -36 84.5t-109 34.5q-135 0 -158 -126h-95q4 31 16 61.5t38.5 64t78.5 54.5t123 21q118 0 178.5 -57t60.5 -134q0 -60 -25.5 -99.5t-94.5 -91.5q-47 -34 -65 -61.5t-18 -61.5v-6zM351 -1h-99v139h99v-139z
" />
    <glyph glyph-name="at" unicode="@" horiz-adv-x="1047" 
d="M798 -76l22 -67q-122 -79 -307 -79q-194 0 -321 125t-127 330q0 99 33.5 188.5t95 158.5t155.5 109.5t207 40.5q187 0 309.5 -108.5t122.5 -281.5q0 -150 -74 -237.5t-186 -87.5q-51 0 -80 24t-29 69q-60 -93 -165 -93q-72 0 -115 50t-43 139q0 126 68.5 214t166.5 88
q61 0 92 -26.5t41 -62.5l18 78h80l-63 -305q-10 -58 3.5 -80t45.5 -22q70 0 113.5 69.5t43.5 179.5q0 139 -97 228.5t-257 89.5q-183 0 -290.5 -121t-107.5 -302q0 -166 103 -270.5t267 -104.5q98 0 158.5 17.5t116.5 49.5zM537 435q-70 0 -110.5 -70t-40.5 -157
q0 -121 93 -121q54 0 95 47.5t55 123.5q31 177 -92 177z" />
    <glyph glyph-name="A" unicode="A" horiz-adv-x="768" 
d="M552 215h-344l-92 -215h-104l305 710h122l318 -710h-110zM239 301h280q-127 286 -144 337h-1q-28 -86 -135 -337z" />
    <glyph glyph-name="B" unicode="B" horiz-adv-x="749" 
d="M100 0v710h342q113 0 172.5 -47t59.5 -131q0 -61 -33.5 -99t-81.5 -52q60 -17 102 -58t42 -115q0 -101 -72.5 -154.5t-182.5 -53.5h-348zM200 417h217q152 0 152 106t-148 106h-221v-212zM200 336v-255h226q73 0 122 29t49 98q0 63 -47 95.5t-134 32.5h-216z" />
    <glyph glyph-name="C" unicode="C" horiz-adv-x="801" 
d="M651 208h101q-73 -223 -332 -223q-171 0 -267.5 104.5t-96.5 264.5q0 157 101.5 264t267.5 107q143 0 225 -64.5t105 -162.5h-103q-27 66 -79.5 105t-148.5 39q-120 0 -191 -80t-71 -205q0 -124 71 -206t192 -82q93 0 143 35t83 104z" />
    <glyph glyph-name="D" unicode="D" horiz-adv-x="811" 
d="M100 0v710h292q168 0 265.5 -96.5t97.5 -246.5q0 -167 -103.5 -267t-261.5 -100h-290zM201 628v-545h169q136 0 207.5 77t71.5 204q0 122 -73 192.5t-198 71.5h-177z" />
    <glyph glyph-name="E" unicode="E" horiz-adv-x="709" 
d="M627 416v-85h-426v-246h470l-14 -85h-557v710h549v-84h-448v-210h426z" />
    <glyph glyph-name="F" unicode="F" horiz-adv-x="682" 
d="M101 0v710h540v-84h-440v-231h411v-86h-411v-309h-100z" />
    <glyph glyph-name="G" unicode="G" horiz-adv-x="842" 
d="M761 389v-389h-77q-8 48 -8 105q-37 -60 -98 -90t-161 -30q-167 0 -264 100.5t-97 267.5q0 161 102.5 266.5t276.5 105.5q146 0 226.5 -61t103.5 -152h-104q-53 131 -227 131q-129 0 -200.5 -80t-71.5 -204q0 -130 71 -210.5t199 -80.5q112 0 172 55.5t60 159.5v21h-230
v85h327z" />
    <glyph glyph-name="H" unicode="H" horiz-adv-x="829" 
d="M100 0v710h101v-287h427v287h101v-710h-101v338h-427v-338h-101z" />
    <glyph glyph-name="I" unicode="I" horiz-adv-x="301" 
d="M100 710h101v-710h-101v710z" />
    <glyph glyph-name="J" unicode="J" horiz-adv-x="439" 
d="M345 710v-466q0 -132 -53 -195t-171 -63q-57 0 -95 8v85q42 -7 90 -7q128 0 128 167v471h101z" />
    <glyph glyph-name="K" unicode="K" horiz-adv-x="743" 
d="M100 0v710h101v-350q57 49 206 173t211 177h130l-361 -304l383 -406h-131l-328 352l-110 -89v-263h-101z" />
    <glyph glyph-name="L" unicode="L" horiz-adv-x="643" 
d="M100 0v710h100v-625h428l-15 -85h-513z" />
    <glyph glyph-name="M" unicode="M" horiz-adv-x="976" 
d="M778 0v306q0 243 5 334h-1q-12 -38 -43 -116t-60 -148t-80.5 -193t-76.5 -183h-87q-29 75 -87 220t-102.5 258t-61.5 162h-1q10 -137 10 -352v-288h-93v710h144q213 -505 240 -589h1q14 39 54.5 134.5t99 234t92.5 220.5h145v-710h-98z" />
    <glyph glyph-name="N" unicode="N" horiz-adv-x="840" 
d="M194 0h-94v710h120q61 -85 167 -226t175 -235t87 -126h2q-6 79 -6 320v267h94v-710h-113q-96 129 -248 340.5t-187 267.5h-2q5 -92 5 -318v-290z" />
    <glyph glyph-name="O" unicode="O" horiz-adv-x="858" 
d="M431 725q166 0 268.5 -107.5t102.5 -260.5q0 -157 -101 -264.5t-273 -107.5q-168 0 -270 106.5t-102 266.5q0 152 104.5 259.5t270.5 107.5zM425 641q-120 0 -191.5 -81.5t-71.5 -199.5q0 -121 71.5 -206t197.5 -85q125 0 195 82t70 204q0 118 -72 202t-199 84z" />
    <glyph glyph-name="P" unicode="P" horiz-adv-x="734" 
d="M100 0v710h334q127 0 192 -58t65 -151q0 -104 -67.5 -160.5t-186.5 -56.5h-236v-284h-101zM201 626v-257h222q80 0 123 29t43 102q0 126 -166 126h-222z" />
    <glyph glyph-name="Q" unicode="Q" horiz-adv-x="858" 
d="M431 725q166 0 268.5 -107.5t102.5 -260.5q0 -93 -37.5 -172.5t-107.5 -130.5l189 -135l-57 -69l-220 158q-64 -23 -141 -23q-168 0 -270 106.5t-102 266.5q0 152 104.5 259.5t270.5 107.5zM425 641q-120 0 -191.5 -81.5t-71.5 -199.5q0 -121 71.5 -206t197.5 -85
q125 0 195 82t70 204q0 118 -72 202t-199 84z" />
    <glyph glyph-name="R" unicode="R" horiz-adv-x="749" 
d="M395 306h-195v-306h-99v710h339q111 0 177 -50t66 -142q0 -136 -130 -170q111 -31 111 -173v-31q0 -114 8 -144h-102q-9 25 -9 145v23q0 79 -36 108.5t-130 29.5zM200 628v-240h214q166 0 166 124q0 116 -162 116h-218z" />
    <glyph glyph-name="S" unicode="S" horiz-adv-x="724" 
d="M42 207h103q44 -142 226 -142q99 0 146.5 33t47.5 87q0 56 -46 89t-177 55q-151 26 -207.5 73.5t-56.5 126.5q0 91 76.5 143.5t196.5 52.5q66 0 118 -13.5t83 -33.5t52 -47.5t29 -50.5t11 -48h-101q-7 23 -16.5 39t-29.5 35t-58 29t-91 10q-78 0 -123 -27t-45 -79
q0 -48 38.5 -75.5t152.5 -46.5q93 -16 154 -38.5t91 -52.5t41 -60t11 -71q0 -91 -76 -150.5t-228 -59.5q-143 0 -223 59.5t-99 162.5z" />
    <glyph glyph-name="T" unicode="T" horiz-adv-x="662" 
d="M281 0v625h-271v85h642v-85h-270v-625h-101z" />
    <glyph glyph-name="U" unicode="U" horiz-adv-x="814" 
d="M94 710h100v-403q0 -67 18.5 -115.5t50.5 -74t68.5 -37t79.5 -11.5q103 0 156 55.5t53 182.5v403h100v-402q0 -323 -312 -323q-149 0 -231.5 77.5t-82.5 237.5v410z" />
    <glyph glyph-name="V" unicode="V" horiz-adv-x="764" 
d="M436 0h-113l-311 710h110l162 -379q63 -148 97 -244h2q3 10 90 228l171 395h108z" />
    <glyph glyph-name="W" unicode="W" horiz-adv-x="1083" 
d="M349 0h-107l-221 710h106q162 -532 175 -613h1q18 92 188 613h101q166 -528 182 -611h2q16 80 186 611h102l-236 -710h-110q-163 515 -182 603h-1q-17 -84 -186 -603z" />
    <glyph glyph-name="X" unicode="X" horiz-adv-x="683" 
d="M687 0h-120l-230 295h-3l-223 -295h-115l282 364l-270 346h120l214 -276h1l215 276h114l-275 -343z" />
    <glyph glyph-name="Y" unicode="Y" horiz-adv-x="669" 
d="M385 0h-100v270q0 10 -7 18l-298 422h120q22 -32 85.5 -123.5t101 -147t52.5 -81.5q33 57 238 352h111l-298 -424q-5 -10 -5 -17v-269z" />
    <glyph glyph-name="Z" unicode="Z" horiz-adv-x="690" 
d="M24 0v73l496 554h-473v83h604v-77l-492 -550h516l-14 -83h-637z" />
    <glyph glyph-name="bracketleft" unicode="[" horiz-adv-x="401" 
d="M354 -159h-258v911h258v-70h-174v-771h174v-70z" />
    <glyph glyph-name="backslash" unicode="\" horiz-adv-x="524" 
d="M388 -51l-341 761h90l340 -761h-89z" />
    <glyph glyph-name="bracketright" unicode="]" horiz-adv-x="401" 
d="M47 752h258v-911h-258v70h174v771h-174v70z" />
    <glyph glyph-name="asciicircum" unicode="^" horiz-adv-x="587" 
d="M564 269h-93l-178 339l-185 -339h-86l231 421h80z" />
    <glyph glyph-name="underscore" unicode="_" horiz-adv-x="655" 
d="M0 -79h656v-52h-656v52z" />
    <glyph glyph-name="grave" unicode="`" 
d="M15 762h115l141 -160h-90z" />
    <glyph glyph-name="a" unicode="a" horiz-adv-x="606" 
d="M524 347v-222q0 -95 5 -125h-91q-2 10 -6 74q-44 -88 -191 -88q-99 0 -147.5 49t-48.5 114q0 165 263 165h123v27q0 107 -132 107q-66 0 -93 -23.5t-37 -65.5h-95q3 28 14 54t35 51.5t69 40.5t107 15q225 0 225 -173zM431 225v22h-121q-89 0 -130 -22t-41 -72
q0 -40 30.5 -66t90.5 -26q171 0 171 164z" />
    <glyph glyph-name="b" unicode="b" horiz-adv-x="651" 
d="M81 174v578h95v-324q59 92 188 92q105 0 174 -73.5t69 -184.5q0 -126 -69.5 -201t-179.5 -75q-131 0 -184 92q0 -8 -0.5 -25.5t-1 -31t-1.5 -21.5h-91q1 64 1 174zM509 259q0 73 -42.5 127t-123.5 54q-84 0 -127.5 -51.5t-43.5 -134.5q0 -86 46 -136.5t125 -50.5
q83 0 124.5 55t41.5 137z" />
    <glyph glyph-name="c" unicode="c" horiz-adv-x="596" 
d="M463 158h95q-20 -75 -83 -123.5t-165 -48.5q-129 0 -198 75t-69 190q0 113 72.5 191t195.5 78q61 0 108.5 -17.5t75 -45.5t42.5 -56.5t20 -56.5h-95q-37 99 -152 99q-79 0 -124 -52.5t-45 -137.5q0 -82 45 -136t124 -54q111 0 153 95z" />
    <glyph glyph-name="d" unicode="d" horiz-adv-x="651" 
d="M475 752h95v-605q0 -98 1 -147h-92q-4 28 -4 77q-25 -41 -66 -66t-120 -25q-110 0 -178 73.5t-68 189.5q0 120 77 195.5t181 75.5q125 0 174 -78v310zM141 251q0 -75 44.5 -130t123.5 -55q87 0 128.5 50.5t41.5 138.5q0 89 -38.5 137.5t-128.5 48.5q-81 0 -126 -56
t-45 -134z" />
    <glyph glyph-name="e" unicode="e" horiz-adv-x="605" 
d="M564 231h-425q4 -74 51 -121t122 -47q105 0 150 81h95q-24 -66 -85 -112t-165 -46q-65 0 -117 22.5t-83.5 60.5t-47.5 84.5t-16 98.5q0 116 72 192t190 76q69 0 121 -23.5t81.5 -63t43.5 -84t14 -93.5q0 -15 -1 -25zM141 299h325q-2 26 -10 49t-25.5 46.5t-50 37.5
t-76.5 14q-74 0 -115 -40.5t-48 -106.5z" />
    <glyph glyph-name="f" unicode="f" horiz-adv-x="328" 
d="M206 0h-95v431h-95v75h95v68q0 186 168 186q39 0 60 -6v-78q-17 4 -45 4q-50 0 -69 -24.5t-19 -86.5v-63h118v-75h-118v-431z" />
    <glyph glyph-name="g" unicode="g" horiz-adv-x="650" 
d="M569 359v-293q0 -151 -61 -226.5t-211 -75.5q-70 0 -120.5 18t-76 48t-36.5 55t-16 53h97q29 -97 157 -97q54 0 89.5 16t53 48t24 68t6.5 88v28q-51 -98 -190 -98q-106 0 -174 73.5t-68 182.5q0 119 74.5 196t179.5 77q78 0 121 -27.5t57 -64.5q0 57 3 78h92
q-1 -49 -1 -147zM140 251q0 -78 47 -129t121 -51q80 0 124.5 48.5t44.5 137.5q0 88 -43 135.5t-121 47.5q-83 0 -128 -56t-45 -133z" />
    <glyph glyph-name="h" unicode="h" horiz-adv-x="636" 
d="M81 752h95v-337q51 105 187 105q89 0 140.5 -54.5t51.5 -159.5v-306h-96v291q0 149 -125 149q-77 0 -117.5 -53.5t-40.5 -137.5v-249h-95v752z" />
    <glyph glyph-name="i" unicode="i" horiz-adv-x="257" 
d="M81 0v506h95v-506h-95zM176 638h-95v114h95v-114z" />
    <glyph glyph-name="j" unicode="j" horiz-adv-x="263" 
d="M87 506h95v-523q0 -51 -7 -87t-25.5 -68t-56.5 -48t-95 -16q-3 0 -8 0.5t-6 0.5v77h10q51 0 72 29t21 91v544zM181 638h-94v114h94v-114z" />
    <glyph glyph-name="k" unicode="k" horiz-adv-x="597" 
d="M176 752v-488q30 27 138.5 120.5t140.5 121.5h120l-234 -197l259 -309h-120l-209 255l-95 -75v-180h-95v752h95z" />
    <glyph glyph-name="l" unicode="l" horiz-adv-x="257" 
d="M176 0h-95v752h95v-752z" />
    <glyph glyph-name="m" unicode="m" horiz-adv-x="930" 
d="M81 0v375q0 87 -1 131h92q3 -31 3 -76q51 90 163 90q117 0 156 -97q60 97 174 97q80 0 130.5 -50.5t50.5 -156.5v-313h-95v309q0 132 -109 132q-62 0 -97.5 -42t-35.5 -122v-277h-94v313q0 128 -110 128q-68 0 -100.5 -46.5t-32.5 -124.5v-270h-94z" />
    <glyph glyph-name="n" unicode="n" horiz-adv-x="636" 
d="M81 0v378q0 90 -1 128h92q4 -34 4 -94q20 45 65 76.5t118 31.5q91 0 143.5 -55t52.5 -157v-308h-96v291q0 149 -126 149q-77 0 -117 -53t-40 -144v-243h-95z" />
    <glyph glyph-name="o" unicode="o" horiz-adv-x="626" 
d="M315 520q124 0 196 -79.5t72 -187.5q0 -112 -71.5 -189.5t-201.5 -77.5q-123 0 -195 78t-72 189q0 113 74 190t198 77zM311 442q-82 0 -126 -54t-44 -135q0 -77 46.5 -133t125.5 -56q83 0 127.5 53.5t44.5 134.5q0 80 -46.5 135t-127.5 55z" />
    <glyph glyph-name="p" unicode="p" horiz-adv-x="650" 
d="M176 -222h-95v602q0 84 -1 126h93q3 -21 3 -87q57 101 195 101q102 0 169 -74t67 -184q0 -121 -73 -198.5t-179 -77.5q-121 0 -179 89v-297zM509 258q0 74 -43 128t-123 54q-84 0 -126.5 -52.5t-42.5 -136.5q0 -83 43 -133.5t124 -50.5q80 0 124 55t44 136z" />
    <glyph glyph-name="q" unicode="q" horiz-adv-x="651" 
d="M476 -222v300q-54 -92 -187 -92q-105 0 -175.5 74t-70.5 186q0 124 77 199t178 75q79 0 121.5 -28t56.5 -59q1 49 3 73h93q0 -20 -0.5 -69t-0.5 -74v-585h-95zM141 251q0 -79 45.5 -131.5t119.5 -52.5q84 0 128 48t44 140q0 85 -40.5 135t-124.5 50q-82 0 -127 -54.5
t-45 -134.5z" />
    <glyph glyph-name="r" unicode="r" horiz-adv-x="399" 
d="M81 0v368q0 92 -1 138h93q3 -45 3 -114q25 60 78.5 94.5t126.5 33.5v-91q-91 1 -148 -55t-57 -163v-211h-95z" />
    <glyph glyph-name="s" unicode="s" horiz-adv-x="561" 
d="M34 153h96q28 -95 161 -95q131 0 131 80q0 35 -31.5 55t-122.5 31q-122 15 -166.5 53t-44.5 94q0 59 51.5 104t162.5 45q62 0 108 -14.5t71 -38.5t36.5 -48t14.5 -50h-96q-19 80 -139 80q-63 0 -88.5 -20.5t-25.5 -48.5q0 -31 28.5 -48t111.5 -28q69 -9 115 -24.5t69 -37
t32 -44t9 -53.5q0 -72 -57.5 -115.5t-174.5 -43.5q-110 0 -174 43.5t-77 123.5z" />
    <glyph glyph-name="t" unicode="t" horiz-adv-x="371" 
d="M16 431v75h101v163h95v-163h132v-75h-132v-277q0 -45 15 -64.5t55 -19.5q31 0 50 5v-70q-29 -10 -79 -10q-76 0 -106 34.5t-30 112.5v289h-101z" />
    <glyph glyph-name="u" unicode="u" horiz-adv-x="628" 
d="M547 506v-358q0 -99 1 -148h-92q-2 14 -4 86q-21 -48 -62 -74t-119 -26q-86 0 -138 50.5t-52 155.5v314h95v-296q0 -64 28.5 -103.5t92.5 -39.5q82 0 118.5 50t36.5 160v229h95z" />
    <glyph glyph-name="v" unicode="v" horiz-adv-x="574" 
d="M12 506h104q22 -56 93.5 -223t81.5 -195h1q21 66 172 418h97l-221 -506h-104z" />
    <glyph glyph-name="w" unicode="w" horiz-adv-x="853" 
d="M19 506h99q111 -358 125 -421h1q16 63 139 421h91q124 -359 136 -415h1q24 98 128 415h94l-175 -506h-98q-127 370 -135 398h-1q-27 -100 -136 -398h-102z" />
    <glyph glyph-name="x" unicode="x" horiz-adv-x="567" 
d="M8 506h115q103 -117 165 -191h1q68 83 163 191h106l-216 -245l226 -261h-115q-124 145 -170 198h-2q-45 -56 -166 -198h-108l220 256z" />
    <glyph glyph-name="y" unicode="y" horiz-adv-x="582" 
d="M15 506h104q151 -346 181 -433h2q79 220 166 433h99l-199 -480q-68 -167 -112 -214.5t-137 -47.5q-41 0 -66 6v83q25 -4 55 -4q51 0 78.5 26t62.5 102z" />
    <glyph glyph-name="z" unicode="z" horiz-adv-x="546" 
d="M35 0v71l351 358h-332v77h454v-73l-347 -355h370l-15 -78h-481z" />
    <glyph glyph-name="braceleft" unicode="{" horiz-adv-x="421" 
d="M27 259v78q68 0 94 27t26 97v103q0 188 187 188h38v-70h-17q-68 0 -95 -30.5t-27 -96.5v-95q0 -134 -92 -161q47 -15 69.5 -49.5t22.5 -115.5v-94q0 -68 29 -98.5t90 -30.5h20v-70h-39q-186 0 -186 187v106q0 69 -25 97t-95 28z" />
    <glyph glyph-name="bar" unicode="|" horiz-adv-x="293" 
d="M102 788h89v-1052h-89v1052z" />
    <glyph glyph-name="braceright" unicode="}" horiz-adv-x="421" 
d="M372 335v-78q-68 0 -94 -27.5t-26 -97.5v-103q0 -188 -187 -188h-38v70h17q68 0 95 30.5t27 97.5v94q0 135 92 162q-47 15 -69.5 49t-22.5 115v95q0 67 -29 97.5t-90 30.5h-20v70h38q187 0 187 -186v-107q0 -69 25 -96.5t95 -27.5z" />
    <glyph glyph-name="asciitilde" unicode="~" horiz-adv-x="785" 
d="M173 198h-79v37q0 79 37.5 117t96.5 38q55 0 118 -27.5t118 -55t88 -27.5q34 0 47.5 19t13.5 64v23h78v-30q0 -92 -36.5 -127.5t-99.5 -35.5q-38 0 -85.5 17.5t-84.5 38t-79.5 38t-71.5 17.5q-61 0 -61 -82v-24z" />
    <glyph glyph-name="uni00A0" unicode="&#xa0;" horiz-adv-x="296" 
 />
    <glyph glyph-name="exclamdown" unicode="&#xa1;" horiz-adv-x="325" 
d="M115 260h83l10 -344v-115h-103v114zM111 511h92v-151h-92v151z" />
    <glyph glyph-name="cent" unicode="&#xa2;" horiz-adv-x="605" 
d="M466 238h96q-20 -71 -73.5 -115.5t-138.5 -51.5v-101h-69v101q-109 11 -169 84t-60 179t63 177.5t166 83.5v78h69v-77q96 -8 150 -58t62 -113h-95q-27 82 -117 94v-371q87 11 116 90zM151 336q0 -76 33.5 -125t96.5 -61v368q-61 -11 -95.5 -57.5t-34.5 -124.5z" />
    <glyph glyph-name="sterling" unicode="&#xa3;" horiz-adv-x="610" 
d="M587 0h-535v71q86 43 86 200q0 22 -1 33h-98v74h94q-3 36 -3 79q0 107 56 170t163 63q97 0 152 -51t62 -130h-94q-21 103 -124 103q-62 0 -90 -37t-28 -112q0 -40 3 -85h177v-74h-174v-22q0 -133 -57 -199h423z" />
    <glyph glyph-name="currency" unicode="&#xa4;" horiz-adv-x="625" 
d="M317 577q81 0 142 -45l77 85l54 -59l-77 -85q37 -61 37 -141q0 -83 -37 -143l77 -85l-54 -61l-78 84q-61 -45 -143 -45q-80 0 -140 46l-77 -85l-55 61l79 83q-39 61 -39 144q0 80 39 142l-79 85l55 59l79 -84q58 44 140 44zM316 500q-72 0 -111 -47t-39 -121
q0 -86 44.5 -130.5t105.5 -44.5q67 0 107.5 43t40.5 131q0 76 -37.5 122.5t-110.5 46.5z" />
    <glyph glyph-name="yen" unicode="&#xa5;" horiz-adv-x="579" 
d="M485 148h-154v-148h-95v148h-150v64h150v73h-150v65h132l-229 326h111q37 -56 71.5 -107t52.5 -77t32.5 -47.5t21 -32t10.5 -18.5h1q9 14 194 282h102l-236 -326h136v-65h-154v-73h154v-64z" />
    <glyph glyph-name="brokenbar" unicode="&#xa6;" horiz-adv-x="240" 
d="M82 183h86v-368h-86v368zM82 708h86v-368h-86v368z" />
    <glyph glyph-name="section" unicode="&#xa7;" horiz-adv-x="661" 
d="M582 536h-94q-8 43 -48.5 73t-109.5 30q-131 0 -131 -90q0 -40 42 -63t141 -54q120 -36 172.5 -81.5t52.5 -119.5q0 -43 -22 -82.5t-62 -66.5q43 -32 43 -103q0 -78 -66 -126.5t-178 -48.5q-114 0 -184.5 49t-85.5 140h95q15 -56 63.5 -84.5t112.5 -28.5q71 0 109.5 26.5
t38.5 67.5q0 45 -37 71.5t-161 59.5q-125 33 -173 79.5t-48 114.5q0 44 27.5 80.5t69.5 61.5q-44 33 -44 100q0 71 57.5 121t169.5 50q126 -1 185.5 -55.5t64.5 -120.5zM141 311q0 -41 31.5 -69.5t131.5 -56.5q113 -33 160 -57q52 32 52 88q0 48 -33.5 75.5t-127.5 60.5
q-21 7 -55.5 18t-53 18t-34.5 16q-32 -15 -51.5 -41t-19.5 -52z" />
    <glyph glyph-name="dieresis" unicode="&#xa8;" 
d="M141 638h-86v114h86v-114zM345 638h-87v114h87v-114z" />
    <glyph glyph-name="copyright" unicode="&#xa9;" horiz-adv-x="839" 
d="M535 282h65q-31 -134 -175 -134q-85 0 -138.5 57t-53.5 153q0 94 54 153.5t140 59.5q79 0 122.5 -41.5t51.5 -96.5h-66q-28 83 -110 83q-57 0 -91 -41t-34 -115q0 -71 36 -113.5t91 -42.5q81 0 108 78zM422 728q157 0 259.5 -104.5t102.5 -264.5q0 -162 -103 -268
t-259 -106q-160 0 -263 104t-103 270q0 159 105 264t261 105zM421 673q-133 0 -220 -85t-87 -233q0 -136 88 -225.5t219 -89.5q133 0 219 87t86 232q0 138 -86 226t-219 88z" />
    <glyph glyph-name="ordfeminine" unicode="&#xaa;" horiz-adv-x="406" 
d="M353 501v-151q0 -50 1 -72l-71 -1q-3 18 -3 55q-38 -58 -124 -58q-61 0 -94.5 30.5t-33.5 76.5q0 34 15 56.5t43 34t58.5 15.5t70.5 4h64v12q0 63 -80 63q-69 0 -80 -49h-71q16 103 152 103q153 0 153 -119zM280 435v7h-66q-51 0 -80 -11t-29 -45q0 -22 19 -37.5
t53 -15.5q45 0 74 23.5t29 78.5z" />
    <glyph glyph-name="guillemotleft" unicode="&#xab;" horiz-adv-x="582" 
d="M310 467l-167 -206l167 -207h-94l-168 207l168 206h94zM532 467l-166 -206l168 -207h-95l-168 207l168 206h93z" />
    <glyph glyph-name="logicalnot" unicode="&#xac;" horiz-adv-x="838" 
d="M104 439h618v-362h-88v279h-530v83z" />
    <glyph glyph-name="uni00AD" unicode="&#xad;" horiz-adv-x="433" 
d="M57 297h319v-82h-319v82z" />
    <glyph glyph-name="registered" unicode="&#xae;" horiz-adv-x="384" 
d="M166 467h-41v175h85q28 0 46 -13.5t18 -36.5q0 -33 -25 -41q21 -5 21 -45q0 -29 1 -39h-42q-2 7 -2 40q0 16 -6.5 21.5t-23.5 5.5h-31v-67zM167 610v-44h34q31 0 31 22t-32 22h-33zM198 729q78 0 127 -51.5t49 -126.5q0 -79 -49 -128.5t-127 -49.5q-77 0 -127.5 50
t-50.5 128q0 79 49.5 128.5t128.5 49.5zM197 693q-69 0 -103 -40t-34 -102t38.5 -102t99.5 -40q65 0 100 38.5t35 102.5t-37 103.5t-99 39.5z" />
    <glyph glyph-name="macron" unicode="&#xaf;" 
d="M49 719h301v-73h-301v73z" />
    <glyph glyph-name="degree" unicode="&#xb0;" horiz-adv-x="350" 
d="M175 704q66 0 106.5 -42t40.5 -103q0 -67 -43.5 -108.5t-104.5 -41.5q-65 0 -105.5 41t-40.5 104q0 65 42 107.5t105 42.5zM174 649q-40 0 -62 -26t-22 -67q0 -40 23 -65.5t61 -25.5q39 0 62.5 25.5t23.5 67.5q0 36 -22.5 63.5t-63.5 27.5z" />
    <glyph glyph-name="plusminus" unicode="&#xb1;" horiz-adv-x="825" 
d="M370 748h85v-246h266v-82h-266v-269h-85v269h-266v82h266v246zM721 0h-617v83h617v-83z" />
    <glyph glyph-name="two.sups" unicode="&#xb2;" horiz-adv-x="397" 
d="M362 446h-325v5q0 111 139 183q62 33 80 48t18 41t-19 44t-58 18q-38 0 -59 -16.5t-28 -53.5h-76q6 60 49 96.5t117 36.5q79 0 117.5 -37t38.5 -86q0 -48 -27.5 -75t-93.5 -59q-46 -24 -67 -40.5t-32 -39.5h238z" />
    <glyph glyph-name="three.sups" unicode="&#xb3;" horiz-adv-x="396" 
d="M153 626v59h31q51 0 68.5 10.5t17.5 37.5q0 54 -75 54q-68 0 -85 -57h-72q2 12 5.5 25t15 30.5t27.5 30.5t45 22.5t66 9.5q72 0 111.5 -30.5t39.5 -81.5q0 -63 -60 -77q32 -7 55.5 -31.5t23.5 -61.5q0 -53 -42.5 -88.5t-128.5 -35.5q-47 0 -81.5 13t-53 34t-27 41
t-10.5 40h77q18 -68 98 -68q89 0 89 63q0 34 -25.5 47.5t-75.5 13.5h-34z" />
    <glyph glyph-name="acute" unicode="&#xb4;" 
d="M267 762h115l-164 -160h-89z" />
    <glyph glyph-name="uni00B5" unicode="&#xb5;" horiz-adv-x="631" 
d="M283 -14q-76 0 -114 54q5 -96 6 -262h-94v728h95v-302q0 -137 120 -137q81 0 120 53.5t39 147.5v238h95v-347q0 -135 1 -159h-90q-4 32 -4 93q-26 -56 -65 -81.5t-109 -25.5z" />
    <glyph glyph-name="paragraph" unicode="&#xb6;" horiz-adv-x="684" 
d="M566 -164h-80v312h-167q-128 0 -203 69.5t-75 194.5q0 116 73 188t207 72h165q2 45 6 58h76q-2 -40 -2 -70v-824zM426 227h59v369h-58q-66 0 -90.5 -46t-24.5 -136q0 -33 1.5 -56t8 -50t18.5 -43t33.5 -27t52.5 -11z" />
    <glyph glyph-name="periodcentered" unicode="&#xb7;" horiz-adv-x="222" 
d="M164 200h-106v164h106v-164z" />
    <glyph glyph-name="cedilla" unicode="&#xb8;" 
d="M187 10l66 -10l-47 -56q44 -5 78 -27t34 -66q0 -56 -42.5 -79t-98.5 -23q-49 0 -84 11v59q40 -9 73 -9q71 0 71 38q0 45 -126 45v28z" />
    <glyph glyph-name="one.sups" unicode="&#xb9;" horiz-adv-x="246" 
d="M183 446h-79v309q-14 -8 -42.5 -16.5t-43.5 -8.5v58q24 4 57.5 21t53.5 34h54v-397z" />
    <glyph glyph-name="ordmasculine" unicode="&#xba;" horiz-adv-x="425" 
d="M214 620q82 0 131 -49.5t49 -123.5q0 -79 -51 -126.5t-134 -47.5q-78 0 -128.5 50t-50.5 123q0 80 52 127t132 47zM211 560q-51 0 -76.5 -31t-25.5 -83q0 -48 28.5 -81t73.5 -33q52 0 78 30.5t26 84.5q-1 51 -27.5 82t-76.5 31z" />
    <glyph glyph-name="guillemotright" unicode="&#xbb;" horiz-adv-x="582" 
d="M272 54l167 206l-167 207h94l168 -207l-168 -206h-94zM50 54l166 206l-168 207h95l168 -207l-168 -206h-93z" />
    <glyph glyph-name="onequarter" unicode="&#xbc;" horiz-adv-x="820" 
d="M184 0h-71l428 676h70zM181 279h-79v309q-14 -8 -42.5 -16.5t-43.5 -8.5v58q24 4 57.5 21t53.5 34h54v-397zM721 0h-73v97h-220v62l201 238h92v-238h71l-6 -62h-65v-97zM508 159h140v80q0 74 2 97q-18 -26 -142 -177z" />
    <glyph glyph-name="onehalf" unicode="&#xbd;" horiz-adv-x="836" 
d="M178 0h-71l428 676h70zM176 279h-79v309q-14 -8 -42.5 -16.5t-43.5 -8.5v58q24 4 57.5 21t53.5 34h54v-397zM799 0h-325v5q0 111 139 183q62 33 80 48t18 41t-19 44t-58 18q-38 0 -59 -16.5t-28 -53.5h-76q6 60 49 96.5t117 36.5q79 0 117.5 -37t38.5 -86
q0 -48 -27.5 -75t-93.5 -59q-46 -24 -67 -40.5t-32 -39.5h238z" />
    <glyph glyph-name="threequarters" unicode="&#xbe;" horiz-adv-x="917" 
d="M307 0h-71l428 676h70zM816 0h-73v97h-220v62l201 238h92v-238h71l-6 -62h-65v-97zM603 159h140v80q0 74 2 97q-18 -26 -142 -177zM164 459v59h31q51 0 68.5 10.5t17.5 37.5q0 54 -75 54q-68 0 -85 -57h-72q2 12 5.5 25t15 30.5t27.5 30.5t45 22.5t66 9.5
q72 0 111.5 -30.5t39.5 -81.5q0 -63 -60 -77q32 -7 55.5 -31.5t23.5 -61.5q0 -53 -42.5 -88.5t-128.5 -35.5q-47 0 -81.5 13t-53 34t-27 41t-10.5 40h77q18 -68 98 -68q89 0 89 63q0 34 -25.5 47.5t-75.5 13.5h-34z" />
    <glyph glyph-name="questiondown" unicode="&#xbf;" horiz-adv-x="551" 
d="M34 -31q0 58 26 99t94 92q46 34 64.5 62t18.5 63v5h99v-12q0 -44 -21.5 -82t-88.5 -89q-55 -41 -74.5 -69.5t-20.5 -67.5q-1 -49 37.5 -82t107.5 -33q144 0 165 142h89q-2 -37 -14.5 -71t-39.5 -69t-80 -56.5t-126 -21.5q-114 0 -175 54t-61 136zM237 506h99v-138h-99
v138z" />
    <glyph glyph-name="Agrave" unicode="&#xc0;" horiz-adv-x="768" 
d="M552 215h-344l-92 -215h-104l305 710h122l318 -710h-110zM239 301h280q-127 286 -144 337h-1q-28 -86 -135 -337zM127 918h133l171 -139h-98z" />
    <glyph glyph-name="Aacute" unicode="&#xc1;" horiz-adv-x="768" 
d="M552 215h-344l-92 -215h-104l305 710h122l318 -710h-110zM239 301h280q-127 286 -144 337h-1q-28 -86 -135 -337zM487 918h129l-198 -139h-100z" />
    <glyph glyph-name="Acircumflex" unicode="&#xc2;" horiz-adv-x="768" 
d="M552 215h-344l-92 -215h-104l305 710h122l318 -710h-110zM239 301h280q-127 286 -144 337h-1q-28 -86 -135 -337zM323 909h112l146 -138h-101l-102 91l-101 -91h-99z" />
    <glyph glyph-name="Atilde" unicode="&#xc3;" horiz-adv-x="768" 
d="M552 215h-344l-92 -215h-104l305 710h122l318 -710h-110zM239 301h280q-127 286 -144 337h-1q-28 -86 -135 -337zM266 783h-68v23q0 107 92 107q36 0 97 -29t80 -29q18 0 25.5 10.5t7.5 38.5v11h66v-21q0 -113 -88 -113q-36 0 -97.5 30t-84.5 30q-30 0 -30 -43v-15z" />
    <glyph glyph-name="Adieresis" unicode="&#xc4;" horiz-adv-x="768" 
d="M552 215h-344l-92 -215h-104l305 710h122l318 -710h-110zM239 301h280q-127 286 -144 337h-1q-28 -86 -135 -337zM316 791h-87v114h87v-114zM534 791h-87v114h87v-114z" />
    <glyph glyph-name="Aring" unicode="&#xc5;" horiz-adv-x="768" 
d="M552 215h-344l-92 -215h-104l305 710h122l318 -710h-110zM239 301h280q-127 286 -144 337h-1q-28 -86 -135 -337zM376 748q-52 0 -82.5 29.5t-30.5 73.5q0 45 30 75.5t83 30.5q52 0 82 -29.5t30 -74.5t-30.5 -75t-81.5 -30zM376 797q26 0 40.5 16t14.5 39t-14 40t-41 17
t-41 -16t-14 -39q0 -24 14 -40.5t41 -16.5z" />
    <glyph glyph-name="AE" unicode="&#xc6;" horiz-adv-x="1140" 
d="M487 710h593v-85h-440v-208h419v-85h-419v-247h462l-14 -85h-547v235h-281l-168 -235h-106zM312 316h229v322h-3z" />
    <glyph glyph-name="Ccedilla" unicode="&#xc7;" horiz-adv-x="801" 
d="M651 208h101q-67 -207 -294 -222l-35 -42q44 -5 78 -27t34 -66q0 -56 -42.5 -79t-98.5 -23q-49 0 -84 11v59q40 -9 73 -9q71 0 71 38q0 45 -126 45v28l56 65q-155 12 -241.5 115t-86.5 253q0 157 101.5 264t267.5 107q143 0 225 -64.5t105 -162.5h-103q-27 66 -79.5 105
t-148.5 39q-120 0 -191 -80t-71 -205q0 -124 71 -206t192 -82q93 0 143 35t83 104z" />
    <glyph glyph-name="Egrave" unicode="&#xc8;" horiz-adv-x="709" 
d="M627 416v-85h-426v-246h470l-14 -85h-557v710h549v-84h-448v-210h426zM143 918h133l171 -139h-98z" />
    <glyph glyph-name="Eacute" unicode="&#xc9;" horiz-adv-x="709" 
d="M627 416v-85h-426v-246h470l-14 -85h-557v710h549v-84h-448v-210h426zM465 918h129l-198 -139h-100z" />
    <glyph glyph-name="Ecircumflex" unicode="&#xca;" horiz-adv-x="709" 
d="M627 416v-85h-426v-246h470l-14 -85h-557v710h549v-84h-448v-210h426zM317 914h112l146 -138h-101l-102 91l-101 -91h-99z" />
    <glyph glyph-name="Edieresis" unicode="&#xcb;" horiz-adv-x="709" 
d="M627 416v-85h-426v-246h470l-14 -85h-557v710h549v-84h-448v-210h426zM307 791h-87v114h87v-114zM525 791h-87v114h87v-114z" />
    <glyph glyph-name="Igrave" unicode="&#xcc;" horiz-adv-x="301" 
d="M100 710h101v-710h-101v710zM-99 918h133l171 -139h-98z" />
    <glyph glyph-name="Iacute" unicode="&#xcd;" horiz-adv-x="301" 
d="M100 710h101v-710h-101v710zM268 918h129l-198 -139h-100z" />
    <glyph glyph-name="Icircumflex" unicode="&#xce;" horiz-adv-x="301" 
d="M100 710h101v-710h-101v710zM93 909h112l146 -138h-101l-102 91l-101 -91h-99z" />
    <glyph glyph-name="Idieresis" unicode="&#xcf;" horiz-adv-x="301" 
d="M100 710h101v-710h-101v710zM84 791h-87v114h87v-114zM302 791h-87v114h87v-114z" />
    <glyph glyph-name="Eth" unicode="&#xd0;" horiz-adv-x="822" 
d="M21 405h90v305h292q168 0 265.5 -96.5t97.5 -246.5q0 -167 -103.5 -267t-261.5 -100h-290v331h-90v74zM212 628v-223h213v-74h-213v-248h169q136 0 207.5 77t71.5 204q0 122 -73 192.5t-198 71.5h-177z" />
    <glyph glyph-name="Ntilde" unicode="&#xd1;" horiz-adv-x="840" 
d="M194 0h-94v710h120q61 -85 167 -226t175 -235t87 -126h2q-6 79 -6 320v267h94v-710h-113q-96 129 -248 340.5t-187 267.5h-2q5 -92 5 -318v-290zM303 783h-68v23q0 107 92 107q37 0 98 -29t79 -29t25.5 10.5t7.5 38.5v11h66v-21q0 -113 -88 -113q-36 0 -97.5 30t-84.5 30
q-30 0 -30 -43v-15z" />
    <glyph glyph-name="Ograve" unicode="&#xd2;" horiz-adv-x="858" 
d="M431 725q166 0 268.5 -107.5t102.5 -260.5q0 -157 -101 -264.5t-273 -107.5q-168 0 -270 106.5t-102 266.5q0 152 104.5 259.5t270.5 107.5zM425 641q-120 0 -191.5 -81.5t-71.5 -199.5q0 -121 71.5 -206t197.5 -85q125 0 195 82t70 204q0 118 -72 202t-199 84zM186 920
h133l171 -139h-98z" />
    <glyph glyph-name="Oacute" unicode="&#xd3;" horiz-adv-x="858" 
d="M431 725q166 0 268.5 -107.5t102.5 -260.5q0 -157 -101 -264.5t-273 -107.5q-168 0 -270 106.5t-102 266.5q0 152 104.5 259.5t270.5 107.5zM425 641q-120 0 -191.5 -81.5t-71.5 -199.5q0 -121 71.5 -206t197.5 -85q125 0 195 82t70 204q0 118 -72 202t-199 84zM524 926
h129l-198 -139h-100z" />
    <glyph glyph-name="Ocircumflex" unicode="&#xd4;" horiz-adv-x="858" 
d="M431 725q166 0 268.5 -107.5t102.5 -260.5q0 -157 -101 -264.5t-273 -107.5q-168 0 -270 106.5t-102 266.5q0 152 104.5 259.5t270.5 107.5zM425 641q-120 0 -191.5 -81.5t-71.5 -199.5q0 -121 71.5 -206t197.5 -85q125 0 195 82t70 204q0 118 -72 202t-199 84zM366 916
h112l146 -138h-101l-102 91l-101 -91h-99z" />
    <glyph glyph-name="Otilde" unicode="&#xd5;" horiz-adv-x="858" 
d="M431 725q166 0 268.5 -107.5t102.5 -260.5q0 -157 -101 -264.5t-273 -107.5q-168 0 -270 106.5t-102 266.5q0 152 104.5 259.5t270.5 107.5zM425 641q-120 0 -191.5 -81.5t-71.5 -199.5q0 -121 71.5 -206t197.5 -85q125 0 195 82t70 204q0 118 -72 202t-199 84zM306 790
h-68v23q0 107 92 107q36 0 97 -29t80 -29q18 0 25.5 10.5t7.5 38.5v11h66v-21q0 -113 -88 -113q-36 0 -97.5 30t-84.5 30q-30 0 -30 -43v-15z" />
    <glyph glyph-name="Odieresis" unicode="&#xd6;" horiz-adv-x="858" 
d="M431 725q166 0 268.5 -107.5t102.5 -260.5q0 -157 -101 -264.5t-273 -107.5q-168 0 -270 106.5t-102 266.5q0 152 104.5 259.5t270.5 107.5zM425 641q-120 0 -191.5 -81.5t-71.5 -199.5q0 -121 71.5 -206t197.5 -85q125 0 195 82t70 204q0 118 -72 202t-199 84zM357 791
h-87v114h87v-114zM575 791h-87v114h87v-114z" />
    <glyph glyph-name="multiply" unicode="&#xd7;" horiz-adv-x="797" 
d="M692 69l-56 -58l-237 243l-238 -243l-56 58l237 242l-237 243l55 57l238 -243l238 243l56 -57l-238 -243z" />
    <glyph glyph-name="Oslash" unicode="&#xd8;" horiz-adv-x="858" 
d="M430 725q114 0 205 -56l33 41h79l-63 -79q56 -51 87 -122.5t31 -151.5q0 -102 -43 -185.5t-129.5 -135t-201.5 -51.5q-122 0 -214 62l-38 -47h-80l69 86q-109 107 -109 272q0 154 103.5 260.5t270.5 106.5zM160 361q0 -117 66 -200l352 438q-63 44 -153 44
q-121 0 -193 -81.5t-72 -200.5zM431 68q126 0 196 81t70 206q0 122 -72 203l-354 -440q68 -50 160 -50z" />
    <glyph glyph-name="Ugrave" unicode="&#xd9;" horiz-adv-x="814" 
d="M94 710h100v-403q0 -67 18.5 -115.5t50.5 -74t68.5 -37t79.5 -11.5q103 0 156 55.5t53 182.5v403h100v-402q0 -323 -312 -323q-149 0 -231.5 77.5t-82.5 237.5v410zM167 918h133l171 -139h-98z" />
    <glyph glyph-name="Uacute" unicode="&#xda;" horiz-adv-x="814" 
d="M94 710h100v-403q0 -67 18.5 -115.5t50.5 -74t68.5 -37t79.5 -11.5q103 0 156 55.5t53 182.5v403h100v-402q0 -323 -312 -323q-149 0 -231.5 77.5t-82.5 237.5v410zM508 918h129l-198 -139h-100z" />
    <glyph glyph-name="Ucircumflex" unicode="&#xdb;" horiz-adv-x="814" 
d="M94 710h100v-403q0 -67 18.5 -115.5t50.5 -74t68.5 -37t79.5 -11.5q103 0 156 55.5t53 182.5v403h100v-402q0 -323 -312 -323q-149 0 -231.5 77.5t-82.5 237.5v410zM350 909h112l146 -138h-101l-102 91l-101 -91h-99z" />
    <glyph glyph-name="Udieresis" unicode="&#xdc;" horiz-adv-x="814" 
d="M94 710h100v-403q0 -67 18.5 -115.5t50.5 -74t68.5 -37t79.5 -11.5q103 0 156 55.5t53 182.5v403h100v-402q0 -323 -312 -323q-149 0 -231.5 77.5t-82.5 237.5v410zM341 791h-87v114h87v-114zM559 791h-87v114h87v-114z" />
    <glyph glyph-name="Yacute" unicode="&#xdd;" horiz-adv-x="669" 
d="M385 0h-100v270q0 10 -7 18l-298 422h120q22 -32 85.5 -123.5t101 -147t52.5 -81.5q33 57 238 352h111l-298 -424q-5 -10 -5 -17v-269zM435 918h129l-198 -139h-100z" />
    <glyph glyph-name="Thorn" unicode="&#xde;" horiz-adv-x="718" 
d="M101 0v710h100v-134h203q122 0 194 -56.5t72 -161.5q0 -110 -78.5 -166t-201.5 -56h-189v-136h-100zM201 494v-275h192q177 0 177 138q0 62 -45 99.5t-125 37.5h-199z" />
    <glyph glyph-name="germandbls" unicode="&#xdf;" horiz-adv-x="707" 
d="M360 760q63 0 112 -14t77 -35t46.5 -48.5t24.5 -51.5t6 -48q0 -21 -4 -37l-205 -98v-2l85 -46q86 -47 121 -93.5t35 -109.5q0 -89 -58.5 -140t-162.5 -51q-111 0 -183 55v98q28 -31 77.5 -54.5t102.5 -23.5q67 0 98.5 31t31.5 76q0 40 -24 70.5t-88 65.5l-95 52
q-49 28 -49 62t48 59l171 87q3 42 -39 80.5t-131 38.5q-88 0 -131 -40t-43 -129v-514h-96v524q0 236 273 236z" />
    <glyph glyph-name="agrave" unicode="&#xe0;" horiz-adv-x="606" 
d="M524 347v-222q0 -95 5 -125h-91q-2 10 -6 74q-44 -88 -191 -88q-99 0 -147.5 49t-48.5 114q0 165 263 165h123v27q0 107 -132 107q-66 0 -93 -23.5t-37 -65.5h-95q3 28 14 54t35 51.5t69 40.5t107 15q225 0 225 -173zM431 225v22h-121q-89 0 -130 -22t-41 -72
q0 -40 30.5 -66t90.5 -26q171 0 171 164zM112 762h115l141 -160h-90z" />
    <glyph glyph-name="aacute" unicode="&#xe1;" horiz-adv-x="606" 
d="M524 347v-222q0 -95 5 -125h-91q-2 10 -6 74q-44 -88 -191 -88q-99 0 -147.5 49t-48.5 114q0 165 263 165h123v27q0 107 -132 107q-66 0 -93 -23.5t-37 -65.5h-95q3 28 14 54t35 51.5t69 40.5t107 15q225 0 225 -173zM431 225v22h-121q-89 0 -130 -22t-41 -72
q0 -40 30.5 -66t90.5 -26q171 0 171 164zM372 762h115l-164 -160h-89z" />
    <glyph glyph-name="acircumflex" unicode="&#xe2;" horiz-adv-x="606" 
d="M524 347v-222q0 -95 5 -125h-91q-2 10 -6 74q-44 -88 -191 -88q-99 0 -147.5 49t-48.5 114q0 165 263 165h123v27q0 107 -132 107q-66 0 -93 -23.5t-37 -65.5h-95q3 28 14 54t35 51.5t69 40.5t107 15q225 0 225 -173zM431 225v22h-121q-89 0 -130 -22t-41 -72
q0 -40 30.5 -66t90.5 -26q171 0 171 164zM257 761h96l130 -161h-89l-90 110l-87 -110h-90z" />
    <glyph glyph-name="atilde" unicode="&#xe3;" horiz-adv-x="606" 
d="M524 347v-222q0 -95 5 -125h-91q-2 10 -6 74q-44 -88 -191 -88q-99 0 -147.5 49t-48.5 114q0 165 263 165h123v27q0 107 -132 107q-66 0 -93 -23.5t-37 -65.5h-95q3 28 14 54t35 51.5t69 40.5t107 15q225 0 225 -173zM431 225v22h-121q-89 0 -130 -22t-41 -72
q0 -40 30.5 -66t90.5 -26q171 0 171 164zM191 611h-64v25q0 104 87 104q35 0 86 -28t70 -28q32 0 32 47v13h63v-23q0 -111 -87 -111q-35 0 -85 29t-71 29q-31 0 -31 -39v-18z" />
    <glyph glyph-name="adieresis" unicode="&#xe4;" horiz-adv-x="606" 
d="M524 347v-222q0 -95 5 -125h-91q-2 10 -6 74q-44 -88 -191 -88q-99 0 -147.5 49t-48.5 114q0 165 263 165h123v27q0 107 -132 107q-66 0 -93 -23.5t-37 -65.5h-95q3 28 14 54t35 51.5t69 40.5t107 15q225 0 225 -173zM431 225v22h-121q-89 0 -130 -22t-41 -72
q0 -40 30.5 -66t90.5 -26q171 0 171 164zM240 638h-86v114h86v-114zM444 638h-87v114h87v-114z" />
    <glyph glyph-name="aring" unicode="&#xe5;" horiz-adv-x="606" 
d="M524 347v-222q0 -95 5 -125h-91q-2 10 -6 74q-44 -88 -191 -88q-99 0 -147.5 49t-48.5 114q0 165 263 165h123v27q0 107 -132 107q-66 0 -93 -23.5t-37 -65.5h-95q3 28 14 54t35 51.5t69 40.5t107 15q225 0 225 -173zM431 225v22h-121q-89 0 -130 -22t-41 -72
q0 -40 30.5 -66t90.5 -26q171 0 171 164zM302 576q-52 0 -82.5 29.5t-30.5 73.5q0 45 30 75.5t83 30.5q52 0 82 -29.5t30 -74.5t-30.5 -75t-81.5 -30zM302 625q26 0 40.5 16t14.5 39t-14 40t-41 17t-41 -16t-14 -39q0 -24 14 -40.5t41 -16.5z" />
    <glyph glyph-name="ae" unicode="&#xe6;" horiz-adv-x="992" 
d="M850 147h97q-24 -71 -87 -116t-164 -45q-80 0 -137 32t-86 84q-60 -116 -221 -116q-103 0 -155 48t-52 112q0 159 249 159h139v26q0 117 -128 117q-65 0 -96.5 -24t-39.5 -68h-95q6 71 61 117.5t167 46.5q153 0 194 -90q68 90 200 90q56 0 101 -15t73.5 -40t47.5 -59
t26.5 -68.5t7.5 -71.5v-29h-426q2 -78 50 -126t129 -48q103 0 145 84zM434 231v7h-138q-86 0 -121 -21t-35 -66q0 -39 33.5 -63.5t90.5 -24.5q170 0 170 168zM528 305h326q-4 58 -42.5 100t-120.5 42q-72 0 -113.5 -36.5t-49.5 -105.5z" />
    <glyph glyph-name="ccedilla" unicode="&#xe7;" horiz-adv-x="596" 
d="M463 158h95q-18 -65 -68.5 -111.5t-131.5 -57.5l-36 -43q44 -5 78 -27t34 -66q0 -56 -42.5 -79t-98.5 -23q-49 0 -84 11v59q40 -9 73 -9q71 0 71 38q0 45 -126 45v28l55 64q-116 9 -177.5 82.5t-61.5 181.5q0 113 72.5 191t195.5 78q61 0 108.5 -17.5t75 -45.5
t42.5 -56.5t20 -56.5h-95q-37 99 -152 99q-79 0 -124 -52.5t-45 -137.5q0 -82 45 -136t124 -54q111 0 153 95z" />
    <glyph glyph-name="egrave" unicode="&#xe8;" horiz-adv-x="605" 
d="M564 231h-425q4 -74 51 -121t122 -47q105 0 150 81h95q-24 -66 -85 -112t-165 -46q-65 0 -117 22.5t-83.5 60.5t-47.5 84.5t-16 98.5q0 116 72 192t190 76q69 0 121 -23.5t81.5 -63t43.5 -84t14 -93.5q0 -15 -1 -25zM141 299h325q-2 26 -10 49t-25.5 46.5t-50 37.5
t-76.5 14q-74 0 -115 -40.5t-48 -106.5zM117 762h115l141 -160h-90z" />
    <glyph glyph-name="eacute" unicode="&#xe9;" horiz-adv-x="605" 
d="M564 231h-425q4 -74 51 -121t122 -47q105 0 150 81h95q-24 -66 -85 -112t-165 -46q-65 0 -117 22.5t-83.5 60.5t-47.5 84.5t-16 98.5q0 116 72 192t190 76q69 0 121 -23.5t81.5 -63t43.5 -84t14 -93.5q0 -15 -1 -25zM141 299h325q-2 26 -10 49t-25.5 46.5t-50 37.5
t-76.5 14q-74 0 -115 -40.5t-48 -106.5zM369 762h115l-164 -160h-89z" />
    <glyph glyph-name="ecircumflex" unicode="&#xea;" horiz-adv-x="605" 
d="M564 231h-425q4 -74 51 -121t122 -47q105 0 150 81h95q-24 -66 -85 -112t-165 -46q-65 0 -117 22.5t-83.5 60.5t-47.5 84.5t-16 98.5q0 116 72 192t190 76q69 0 121 -23.5t81.5 -63t43.5 -84t14 -93.5q0 -15 -1 -25zM141 299h325q-2 26 -10 49t-25.5 46.5t-50 37.5
t-76.5 14q-74 0 -115 -40.5t-48 -106.5zM254 761h96l130 -161h-89l-90 110l-87 -110h-90z" />
    <glyph glyph-name="edieresis" unicode="&#xeb;" horiz-adv-x="605" 
d="M564 231h-425q4 -74 51 -121t122 -47q105 0 150 81h95q-24 -66 -85 -112t-165 -46q-65 0 -117 22.5t-83.5 60.5t-47.5 84.5t-16 98.5q0 116 72 192t190 76q69 0 121 -23.5t81.5 -63t43.5 -84t14 -93.5q0 -15 -1 -25zM141 299h325q-2 26 -10 49t-25.5 46.5t-50 37.5
t-76.5 14q-74 0 -115 -40.5t-48 -106.5zM243 638h-86v114h86v-114zM447 638h-87v114h87v-114z" />
    <glyph glyph-name="igrave" unicode="&#xec;" horiz-adv-x="257" 
d="M81 0v506h95v-506h-95zM-76 762h115l141 -160h-90z" />
    <glyph glyph-name="iacute" unicode="&#xed;" horiz-adv-x="257" 
d="M81 0v506h95v-506h-95zM221 762h115l-164 -160h-89z" />
    <glyph glyph-name="icircumflex" unicode="&#xee;" horiz-adv-x="257" 
d="M81 0v506h95v-506h-95zM80 761h96l130 -161h-89l-90 110l-87 -110h-90z" />
    <glyph glyph-name="idieresis" unicode="&#xef;" horiz-adv-x="257" 
d="M81 0v506h95v-506h-95zM69 638h-86v114h86v-114zM273 638h-87v114h87v-114z" />
    <glyph glyph-name="eth" unicode="&#xf0;" horiz-adv-x="627" 
d="M128 689v71q129 -7 228 -64l125 79l27 -47l-102 -65q164 -127 164 -366q0 -148 -69 -229.5t-196 -81.5q-81 0 -140.5 40.5t-86.5 99t-27 123.5q0 111 71.5 183.5t188.5 72.5q96 0 138 -50q-36 101 -119 160l-143 -91l-27 47l118 75q-64 31 -150 43zM312 430
q-80 0 -121.5 -52.5t-41.5 -130.5q0 -72 42.5 -128t118.5 -56q81 0 122 55.5t41 156.5q0 75 -42.5 115t-118.5 40z" />
    <glyph glyph-name="ntilde" unicode="&#xf1;" horiz-adv-x="636" 
d="M81 0v378q0 90 -1 128h92q4 -34 4 -94q20 45 65 76.5t118 31.5q91 0 143.5 -55t52.5 -157v-308h-96v291q0 149 -126 149q-77 0 -117 -53t-40 -144v-243h-95zM216 611h-64v25q0 104 87 104q35 0 86 -28t70 -28q32 0 32 47v13h63v-23q0 -111 -87 -111q-35 0 -85 29t-71 29
q-31 0 -31 -39v-18z" />
    <glyph glyph-name="ograve" unicode="&#xf2;" horiz-adv-x="626" 
d="M315 520q124 0 196 -79.5t72 -187.5q0 -112 -71.5 -189.5t-201.5 -77.5q-123 0 -195 78t-72 189q0 113 74 190t198 77zM311 442q-82 0 -126 -54t-44 -135q0 -77 46.5 -133t125.5 -56q83 0 127.5 53.5t44.5 134.5q0 80 -46.5 135t-127.5 55zM123 760h115l141 -160h-90z
" />
    <glyph glyph-name="oacute" unicode="&#xf3;" horiz-adv-x="626" 
d="M315 520q124 0 196 -79.5t72 -187.5q0 -112 -71.5 -189.5t-201.5 -77.5q-123 0 -195 78t-72 189q0 113 74 190t198 77zM311 442q-82 0 -126 -54t-44 -135q0 -77 46.5 -133t125.5 -56q83 0 127.5 53.5t44.5 134.5q0 80 -46.5 135t-127.5 55zM387 760h115l-164 -160h-89z
" />
    <glyph glyph-name="ocircumflex" unicode="&#xf4;" horiz-adv-x="626" 
d="M315 520q124 0 196 -79.5t72 -187.5q0 -112 -71.5 -189.5t-201.5 -77.5q-123 0 -195 78t-72 189q0 113 74 190t198 77zM311 442q-82 0 -126 -54t-44 -135q0 -77 46.5 -133t125.5 -56q83 0 127.5 53.5t44.5 134.5q0 80 -46.5 135t-127.5 55zM265 761h96l130 -161h-89
l-90 110l-87 -110h-90z" />
    <glyph glyph-name="otilde" unicode="&#xf5;" horiz-adv-x="626" 
d="M315 520q124 0 196 -79.5t72 -187.5q0 -112 -71.5 -189.5t-201.5 -77.5q-123 0 -195 78t-72 189q0 113 74 190t198 77zM311 442q-82 0 -126 -54t-44 -135q0 -77 46.5 -133t125.5 -56q83 0 127.5 53.5t44.5 134.5q0 80 -46.5 135t-127.5 55zM208 611h-64v25q0 104 87 104
q35 0 86 -28t70 -28q32 0 32 47v13h63v-23q0 -111 -87 -111q-35 0 -85 29t-71 29q-31 0 -31 -39v-18z" />
    <glyph glyph-name="odieresis" unicode="&#xf6;" horiz-adv-x="626" 
d="M315 520q124 0 196 -79.5t72 -187.5q0 -112 -71.5 -189.5t-201.5 -77.5q-123 0 -195 78t-72 189q0 113 74 190t198 77zM311 442q-82 0 -126 -54t-44 -135q0 -77 46.5 -133t125.5 -56q83 0 127.5 53.5t44.5 134.5q0 80 -46.5 135t-127.5 55zM254 638h-86v114h86v-114z
M458 638h-87v114h87v-114z" />
    <glyph glyph-name="divide" unicode="&#xf7;" horiz-adv-x="811" 
d="M455 2h-85v139h85v-139zM721 281h-617v84h617v-84zM455 491h-86v139h86v-139z" />
    <glyph glyph-name="oslash" unicode="&#xf8;" horiz-adv-x="626" 
d="M316 520q79 0 142 -37l30 37h68l-55 -70q82 -76 82 -197q0 -114 -73 -190.5t-201 -76.5q-82 0 -145 39l-31 -39h-69l58 72q-79 79 -79 194q0 114 75 191t198 77zM311 446q-83 0 -127.5 -56t-44.5 -137q0 -72 38 -125l231 291q-41 27 -97 27zM312 62q84 0 129 54t45 136
q0 78 -39 130l-231 -291q42 -29 96 -29z" />
    <glyph glyph-name="ugrave" unicode="&#xf9;" horiz-adv-x="628" 
d="M547 506v-358q0 -99 1 -148h-92q-2 14 -4 86q-21 -48 -62 -74t-119 -26q-86 0 -138 50.5t-52 155.5v314h95v-296q0 -64 28.5 -103.5t92.5 -39.5q82 0 118.5 50t36.5 160v229h95zM129 762h115l141 -160h-90z" />
    <glyph glyph-name="uacute" unicode="&#xfa;" horiz-adv-x="628" 
d="M547 506v-358q0 -99 1 -148h-92q-2 14 -4 86q-21 -48 -62 -74t-119 -26q-86 0 -138 50.5t-52 155.5v314h95v-296q0 -64 28.5 -103.5t92.5 -39.5q82 0 118.5 50t36.5 160v229h95zM381 762h115l-164 -160h-89z" />
    <glyph glyph-name="ucircumflex" unicode="&#xfb;" horiz-adv-x="628" 
d="M547 506v-358q0 -99 1 -148h-92q-2 14 -4 86q-21 -48 -62 -74t-119 -26q-86 0 -138 50.5t-52 155.5v314h95v-296q0 -64 28.5 -103.5t92.5 -39.5q82 0 118.5 50t36.5 160v229h95zM266 761h96l130 -161h-89l-90 110l-87 -110h-90z" />
    <glyph glyph-name="udieresis" unicode="&#xfc;" horiz-adv-x="628" 
d="M547 506v-358q0 -99 1 -148h-92q-2 14 -4 86q-21 -48 -62 -74t-119 -26q-86 0 -138 50.5t-52 155.5v314h95v-296q0 -64 28.5 -103.5t92.5 -39.5q82 0 118.5 50t36.5 160v229h95zM255 638h-86v114h86v-114zM459 638h-87v114h87v-114z" />
    <glyph glyph-name="yacute" unicode="&#xfd;" horiz-adv-x="582" 
d="M15 506h104q151 -346 181 -433h2q79 220 166 433h99l-199 -480q-68 -167 -112 -214.5t-137 -47.5q-41 0 -66 6v83q25 -4 55 -4q51 0 78.5 26t62.5 102zM358 762h115l-164 -160h-89z" />
    <glyph glyph-name="thorn" unicode="&#xfe;" horiz-adv-x="650" 
d="M176 -222h-95v974h95v-334q61 102 196 102q99 0 167 -72.5t68 -185.5q0 -123 -73 -199.5t-177 -76.5q-124 0 -181 89v-297zM509 259q0 73 -43 127t-122 54q-80 0 -125 -52.5t-45 -133.5q0 -78 42 -132.5t125 -54.5q81 0 124.5 54.5t43.5 137.5z" />
    <glyph glyph-name="ydieresis" unicode="&#xff;" horiz-adv-x="582" 
d="M15 506h104q151 -346 181 -433h2q79 220 166 433h99l-199 -480q-68 -167 -112 -214.5t-137 -47.5q-41 0 -66 6v83q25 -4 55 -4q51 0 78.5 26t62.5 102zM232 638h-86v114h86v-114zM436 638h-87v114h87v-114z" />
    <glyph glyph-name="Amacron" unicode="&#x100;" horiz-adv-x="768" 
d="M552 215h-344l-92 -215h-104l305 710h122l318 -710h-110zM239 301h280q-127 286 -144 337h-1q-28 -86 -135 -337zM222 876h322v-72h-322v72z" />
    <glyph glyph-name="amacron" unicode="&#x101;" horiz-adv-x="606" 
d="M524 347v-222q0 -95 5 -125h-91q-2 10 -6 74q-44 -88 -191 -88q-99 0 -147.5 49t-48.5 114q0 165 263 165h123v27q0 107 -132 107q-66 0 -93 -23.5t-37 -65.5h-95q3 28 14 54t35 51.5t69 40.5t107 15q225 0 225 -173zM431 225v22h-121q-89 0 -130 -22t-41 -72
q0 -40 30.5 -66t90.5 -26q171 0 171 164zM148 719h301v-73h-301v73z" />
    <glyph glyph-name="Abreve" unicode="&#x102;" horiz-adv-x="768" 
d="M552 215h-344l-92 -215h-104l305 710h122l318 -710h-110zM239 301h280q-127 286 -144 337h-1q-28 -86 -135 -337zM209 911h72q8 -31 34.5 -49.5t64.5 -18.5q79 0 100 68h70q-10 -59 -54 -97.5t-117 -38.5q-79 0 -121.5 40.5t-48.5 95.5z" />
    <glyph glyph-name="abreve" unicode="&#x103;" horiz-adv-x="606" 
d="M524 347v-222q0 -95 5 -125h-91q-2 10 -6 74q-44 -88 -191 -88q-99 0 -147.5 49t-48.5 114q0 165 263 165h123v27q0 107 -132 107q-66 0 -93 -23.5t-37 -65.5h-95q3 28 14 54t35 51.5t69 40.5t107 15q225 0 225 -173zM431 225v22h-121q-89 0 -130 -22t-41 -72
q0 -40 30.5 -66t90.5 -26q171 0 171 164zM135 750h70q18 -81 92 -81q44 0 64.5 22t29.5 59h69q-9 -67 -50.5 -109t-112.5 -42q-77 0 -117 43.5t-45 107.5z" />
    <glyph glyph-name="Aogonek" unicode="&#x104;" horiz-adv-x="768" 
d="M552 215h-344l-92 -215h-104l305 710h122l318 -710h-11q-65 -53 -65 -107q0 -28 17.5 -42.5t46.5 -14.5q33 0 60 10v-70q-31 -16 -84 -16q-60 0 -92.5 31t-32.5 83q0 67 59 126h-8zM239 301h280q-127 286 -144 337h-1q-28 -86 -135 -337z" />
    <glyph glyph-name="aogonek" unicode="&#x105;" horiz-adv-x="606" 
d="M524 347v-222q0 -95 5 -125h-5q-65 -53 -65 -107q0 -28 17.5 -42.5t46.5 -14.5q33 0 60 10v-70q-31 -16 -84 -16q-60 0 -92.5 31t-32.5 83q0 69 63 130q-1 7 -5 70q-44 -88 -191 -88q-99 0 -147.5 49t-48.5 114q0 165 263 165h123v27q0 107 -132 107q-66 0 -93 -23.5
t-37 -65.5h-95q3 28 14 54t35 51.5t69 40.5t107 15q225 0 225 -173zM431 225v22h-121q-89 0 -130 -22t-41 -72q0 -40 30.5 -66t90.5 -26q171 0 171 164z" />
    <glyph glyph-name="Cacute" unicode="&#x106;" horiz-adv-x="801" 
d="M651 208h101q-73 -223 -332 -223q-171 0 -267.5 104.5t-96.5 264.5q0 157 101.5 264t267.5 107q143 0 225 -64.5t105 -162.5h-103q-27 66 -79.5 105t-148.5 39q-120 0 -191 -80t-71 -205q0 -124 71 -206t192 -82q93 0 143 35t83 104zM516 927h129l-198 -139h-100z" />
    <glyph glyph-name="cacute" unicode="&#x107;" horiz-adv-x="596" 
d="M463 158h95q-20 -75 -83 -123.5t-165 -48.5q-129 0 -198 75t-69 190q0 113 72.5 191t195.5 78q61 0 108.5 -17.5t75 -45.5t42.5 -56.5t20 -56.5h-95q-37 99 -152 99q-79 0 -124 -52.5t-45 -137.5q0 -82 45 -136t124 -54q111 0 153 95zM383 762h115l-164 -160h-89z" />
    <glyph glyph-name="Ccircumflex" unicode="&#x108;" horiz-adv-x="801" 
d="M651 208h101q-73 -223 -332 -223q-171 0 -267.5 104.5t-96.5 264.5q0 157 101.5 264t267.5 107q143 0 225 -64.5t105 -162.5h-103q-27 66 -79.5 105t-148.5 39q-120 0 -191 -80t-71 -205q0 -124 71 -206t192 -82q93 0 143 35t83 104zM360 916h112l146 -138h-101l-102 91
l-101 -91h-99z" />
    <glyph glyph-name="ccircumflex" unicode="&#x109;" horiz-adv-x="596" 
d="M463 158h95q-20 -75 -83 -123.5t-165 -48.5q-129 0 -198 75t-69 190q0 113 72.5 191t195.5 78q61 0 108.5 -17.5t75 -45.5t42.5 -56.5t20 -56.5h-95q-37 99 -152 99q-79 0 -124 -52.5t-45 -137.5q0 -82 45 -136t124 -54q111 0 153 95zM260 761h96l130 -161h-89l-90 110
l-87 -110h-90z" />
    <glyph glyph-name="Cdotaccent" unicode="&#x10a;" horiz-adv-x="801" 
d="M651 208h101q-73 -223 -332 -223q-171 0 -267.5 104.5t-96.5 264.5q0 157 101.5 264t267.5 107q143 0 225 -64.5t105 -162.5h-103q-27 66 -79.5 105t-148.5 39q-120 0 -191 -80t-71 -205q0 -124 71 -206t192 -82q93 0 143 35t83 104zM465 798h-95v114h95v-114z" />
    <glyph glyph-name="cdotaccent" unicode="&#x10b;" horiz-adv-x="596" 
d="M463 158h95q-20 -75 -83 -123.5t-165 -48.5q-129 0 -198 75t-69 190q0 113 72.5 191t195.5 78q61 0 108.5 -17.5t75 -45.5t42.5 -56.5t20 -56.5h-95q-37 99 -152 99q-79 0 -124 -52.5t-45 -137.5q0 -82 45 -136t124 -54q111 0 153 95zM360 638h-96v114h96v-114z" />
    <glyph glyph-name="Ccaron" unicode="&#x10c;" horiz-adv-x="801" 
d="M651 208h101q-73 -223 -332 -223q-171 0 -267.5 104.5t-96.5 264.5q0 157 101.5 264t267.5 107q143 0 225 -64.5t105 -162.5h-103q-27 66 -79.5 105t-148.5 39q-120 0 -191 -80t-71 -205q0 -124 71 -206t192 -82q93 0 143 35t83 104zM473 778h-112l-146 138h101l102 -91
l101 91h99z" />
    <glyph glyph-name="ccaron" unicode="&#x10d;" horiz-adv-x="596" 
d="M463 158h95q-20 -75 -83 -123.5t-165 -48.5q-129 0 -198 75t-69 190q0 113 72.5 191t195.5 78q61 0 108.5 -17.5t75 -45.5t42.5 -56.5t20 -56.5h-95q-37 99 -152 99q-79 0 -124 -52.5t-45 -137.5q0 -82 45 -136t124 -54q111 0 153 95zM356 593h-96l-130 161h89l90 -110
l87 110h90z" />
    <glyph glyph-name="Dcaron" unicode="&#x10e;" horiz-adv-x="811" 
d="M100 0v710h292q168 0 265.5 -96.5t97.5 -246.5q0 -167 -103.5 -267t-261.5 -100h-290zM201 628v-545h169q136 0 207.5 77t71.5 204q0 122 -73 192.5t-198 71.5h-177zM425 771h-112l-146 138h101l102 -91l101 91h99z" />
    <glyph glyph-name="dcaron" unicode="&#x10f;" horiz-adv-x="703" 
d="M475 752h95v-605q0 -98 1 -147h-92q-4 28 -4 77q-25 -41 -66 -66t-120 -25q-110 0 -178 73.5t-68 189.5q0 120 77 195.5t181 75.5q125 0 174 -78v310zM141 251q0 -75 44.5 -130t123.5 -55q87 0 128.5 50.5t41.5 138.5q0 89 -38.5 137.5t-128.5 48.5q-81 0 -126 -56
t-45 -134zM722 480h-73l-5 272h82z" />
    <glyph glyph-name="Dcroat" unicode="&#x110;" horiz-adv-x="822" 
d="M21 405h90v305h292q168 0 265.5 -96.5t97.5 -246.5q0 -167 -103.5 -267t-261.5 -100h-290v331h-90v74zM212 628v-223h213v-74h-213v-248h169q136 0 207.5 77t71.5 204q0 122 -73 192.5t-198 71.5h-177z" />
    <glyph glyph-name="dcroat" unicode="&#x111;" horiz-adv-x="651" 
d="M475 752h95v-84h79v-63h-79v-458q0 -98 1 -147h-92q-4 28 -4 81q-23 -43 -65 -69t-123 -26q-107 0 -175.5 73.5t-68.5 186.5q0 122 77 196t181 74q131 0 174 -81v170h-238v63h238v84zM141 248q0 -75 44.5 -128.5t122.5 -53.5q87 0 129 51.5t42 134.5q0 84 -40.5 134.5
t-125.5 50.5q-81 0 -126.5 -53t-45.5 -136z" />
    <glyph glyph-name="Emacron" unicode="&#x112;" horiz-adv-x="709" 
d="M627 416v-85h-426v-246h470l-14 -85h-557v710h549v-84h-448v-210h426zM214 888h322v-72h-322v72z" />
    <glyph glyph-name="emacron" unicode="&#x113;" horiz-adv-x="605" 
d="M564 231h-425q4 -74 51 -121t122 -47q105 0 150 81h95q-24 -66 -85 -112t-165 -46q-65 0 -117 22.5t-83.5 60.5t-47.5 84.5t-16 98.5q0 116 72 192t190 76q69 0 121 -23.5t81.5 -63t43.5 -84t14 -93.5q0 -15 -1 -25zM141 299h325q-2 26 -10 49t-25.5 46.5t-50 37.5
t-76.5 14q-74 0 -115 -40.5t-48 -106.5zM151 719h301v-73h-301v73z" />
    <glyph glyph-name="Ebreve" unicode="&#x114;" horiz-adv-x="709" 
d="M627 416v-85h-426v-246h470l-14 -85h-557v710h549v-84h-448v-210h426zM210 918h72q8 -31 34.5 -49.5t64.5 -18.5q79 0 100 68h70q-10 -59 -54 -97.5t-117 -38.5q-79 0 -121.5 40.5t-48.5 95.5z" />
    <glyph glyph-name="ebreve" unicode="&#x115;" horiz-adv-x="605" 
d="M564 231h-425q4 -74 51 -121t122 -47q105 0 150 81h95q-24 -66 -85 -112t-165 -46q-65 0 -117 22.5t-83.5 60.5t-47.5 84.5t-16 98.5q0 116 72 192t190 76q69 0 121 -23.5t81.5 -63t43.5 -84t14 -93.5q0 -15 -1 -25zM141 299h325q-2 26 -10 49t-25.5 46.5t-50 37.5
t-76.5 14q-74 0 -115 -40.5t-48 -106.5zM139 750h70q18 -81 92 -81q44 0 64.5 22t29.5 59h69q-9 -67 -50.5 -109t-112.5 -42q-77 0 -117 43.5t-45 107.5z" />
    <glyph glyph-name="Edotaccent" unicode="&#x116;" horiz-adv-x="709" 
d="M627 416v-85h-426v-246h470l-14 -85h-557v710h549v-84h-448v-210h426zM425 798h-95v114h95v-114z" />
    <glyph glyph-name="edotaccent" unicode="&#x117;" horiz-adv-x="605" 
d="M564 231h-425q4 -74 51 -121t122 -47q105 0 150 81h95q-24 -66 -85 -112t-165 -46q-65 0 -117 22.5t-83.5 60.5t-47.5 84.5t-16 98.5q0 116 72 192t190 76q69 0 121 -23.5t81.5 -63t43.5 -84t14 -93.5q0 -15 -1 -25zM141 299h325q-2 26 -10 49t-25.5 46.5t-50 37.5
t-76.5 14q-74 0 -115 -40.5t-48 -106.5zM350 638h-96v114h96v-114z" />
    <glyph glyph-name="Eogonek" unicode="&#x118;" horiz-adv-x="709" 
d="M627 416v-85h-426v-246h470l-14 -85h-49q-65 -53 -65 -107q0 -28 17.5 -42.5t46.5 -14.5q33 0 60 10v-70q-31 -16 -84 -16q-60 0 -92.5 31t-32.5 83q0 67 59 126h-417v710h549v-84h-448v-210h426z" />
    <glyph glyph-name="eogonek" unicode="&#x119;" horiz-adv-x="605" 
d="M564 231h-425q4 -74 51 -121t122 -47q105 0 150 81h95q-41 -114 -158 -146q-58 -50 -58 -101q0 -28 17.5 -42.5t46.5 -14.5q33 0 60 10v-70q-31 -16 -84 -16q-60 0 -92.5 31t-32.5 83q0 55 43 108q-124 3 -190 80.5t-66 185.5q0 116 72 192t190 76q69 0 121 -23.5
t81.5 -63t43.5 -84t14 -93.5q0 -15 -1 -25zM141 299h325q-2 26 -10 49t-25.5 46.5t-50 37.5t-76.5 14q-74 0 -115 -40.5t-48 -106.5z" />
    <glyph glyph-name="Ecaron" unicode="&#x11a;" horiz-adv-x="709" 
d="M627 416v-85h-426v-246h470l-14 -85h-557v710h549v-84h-448v-210h426zM431 771h-112l-146 138h101l102 -91l101 91h99z" />
    <glyph glyph-name="ecaron" unicode="&#x11b;" horiz-adv-x="605" 
d="M564 231h-425q4 -74 51 -121t122 -47q105 0 150 81h95q-24 -66 -85 -112t-165 -46q-65 0 -117 22.5t-83.5 60.5t-47.5 84.5t-16 98.5q0 116 72 192t190 76q69 0 121 -23.5t81.5 -63t43.5 -84t14 -93.5q0 -15 -1 -25zM141 299h325q-2 26 -10 49t-25.5 46.5t-50 37.5
t-76.5 14q-74 0 -115 -40.5t-48 -106.5zM350 593h-96l-130 161h89l90 -110l87 110h90z" />
    <glyph glyph-name="Gcircumflex" unicode="&#x11c;" horiz-adv-x="842" 
d="M761 389v-389h-77q-8 48 -8 105q-37 -60 -98 -90t-161 -30q-167 0 -264 100.5t-97 267.5q0 161 102.5 266.5t276.5 105.5q146 0 226.5 -61t103.5 -152h-104q-53 131 -227 131q-129 0 -200.5 -80t-71.5 -204q0 -130 71 -210.5t199 -80.5q112 0 172 55.5t60 159.5v21h-230
v85h327zM362 917h112l146 -138h-101l-102 91l-101 -91h-99z" />
    <glyph glyph-name="gcircumflex" unicode="&#x11d;" horiz-adv-x="650" 
d="M569 359v-293q0 -151 -61 -226.5t-211 -75.5q-70 0 -120.5 18t-76 48t-36.5 55t-16 53h97q29 -97 157 -97q54 0 89.5 16t53 48t24 68t6.5 88v28q-51 -98 -190 -98q-106 0 -174 73.5t-68 182.5q0 119 74.5 196t179.5 77q78 0 121 -27.5t57 -64.5q0 57 3 78h92
q-1 -49 -1 -147zM140 251q0 -78 47 -129t121 -51q80 0 124.5 48.5t44.5 137.5q0 88 -43 135.5t-121 47.5q-83 0 -128 -56t-45 -133zM277 761h96l130 -161h-89l-90 110l-87 -110h-90z" />
    <glyph glyph-name="Gbreve" unicode="&#x11e;" horiz-adv-x="842" 
d="M761 389v-389h-77q-8 48 -8 105q-37 -60 -98 -90t-161 -30q-167 0 -264 100.5t-97 267.5q0 161 102.5 266.5t276.5 105.5q146 0 226.5 -61t103.5 -152h-104q-53 131 -227 131q-129 0 -200.5 -80t-71.5 -204q0 -130 71 -210.5t199 -80.5q112 0 172 55.5t60 159.5v21h-230
v85h327zM251 921h72q8 -31 34.5 -49.5t64.5 -18.5q79 0 100 68h70q-10 -59 -54 -97.5t-117 -38.5q-79 0 -121.5 40.5t-48.5 95.5z" />
    <glyph glyph-name="gbreve" unicode="&#x11f;" horiz-adv-x="650" 
d="M569 359v-293q0 -151 -61 -226.5t-211 -75.5q-70 0 -120.5 18t-76 48t-36.5 55t-16 53h97q29 -97 157 -97q54 0 89.5 16t53 48t24 68t6.5 88v28q-51 -98 -190 -98q-106 0 -174 73.5t-68 182.5q0 119 74.5 196t179.5 77q78 0 121 -27.5t57 -64.5q0 57 3 78h92
q-1 -49 -1 -147zM140 251q0 -78 47 -129t121 -51q80 0 124.5 48.5t44.5 137.5q0 88 -43 135.5t-121 47.5q-83 0 -128 -56t-45 -133zM162 750h70q18 -81 92 -81q44 0 64.5 22t29.5 59h69q-9 -67 -50.5 -109t-112.5 -42q-77 0 -117 43.5t-45 107.5z" />
    <glyph glyph-name="Gdotaccent" unicode="&#x120;" horiz-adv-x="842" 
d="M761 389v-389h-77q-8 48 -8 105q-37 -60 -98 -90t-161 -30q-167 0 -264 100.5t-97 267.5q0 161 102.5 266.5t276.5 105.5q146 0 226.5 -61t103.5 -152h-104q-53 131 -227 131q-129 0 -200.5 -80t-71.5 -204q0 -130 71 -210.5t199 -80.5q112 0 172 55.5t60 159.5v21h-230
v85h327zM467 799h-95v114h95v-114z" />
    <glyph glyph-name="gdotaccent" unicode="&#x121;" horiz-adv-x="650" 
d="M569 359v-293q0 -151 -61 -226.5t-211 -75.5q-70 0 -120.5 18t-76 48t-36.5 55t-16 53h97q29 -97 157 -97q54 0 89.5 16t53 48t24 68t6.5 88v28q-51 -98 -190 -98q-106 0 -174 73.5t-68 182.5q0 119 74.5 196t179.5 77q78 0 121 -27.5t57 -64.5q0 57 3 78h92
q-1 -49 -1 -147zM140 251q0 -78 47 -129t121 -51q80 0 124.5 48.5t44.5 137.5q0 88 -43 135.5t-121 47.5q-83 0 -128 -56t-45 -133zM373 638h-96v114h96v-114z" />
    <glyph glyph-name="uni0122" unicode="&#x122;" horiz-adv-x="842" 
d="M761 389v-389h-77q-8 48 -8 105q-37 -60 -98 -90t-161 -30q-167 0 -264 100.5t-97 267.5q0 161 102.5 266.5t276.5 105.5q146 0 226.5 -61t103.5 -152h-104q-53 131 -227 131q-129 0 -200.5 -80t-71.5 -204q0 -130 71 -210.5t199 -80.5q112 0 172 55.5t60 159.5v21h-230
v85h327zM432 -265h-80q50 96 50 191h84q0 -47 -14.5 -103t-39.5 -88z" />
    <glyph glyph-name="uni0123" unicode="&#x123;" horiz-adv-x="650" 
d="M349 801h80q-57 -94 -71 -210h-89q14 118 80 210zM569 359v-293q0 -151 -61 -226.5t-211 -75.5q-70 0 -120.5 18t-76 48t-36.5 55t-16 53h97q29 -97 157 -97q54 0 89.5 16t53 48t24 68t6.5 88v28q-51 -98 -190 -98q-106 0 -174 73.5t-68 182.5q0 119 74.5 196t179.5 77
q78 0 121 -27.5t57 -64.5q0 57 3 78h92q-1 -49 -1 -147zM140 251q0 -78 47 -129t121 -51q80 0 124.5 48.5t44.5 137.5q0 88 -43 135.5t-121 47.5q-83 0 -128 -56t-45 -133z" />
    <glyph glyph-name="Hcircumflex" unicode="&#x124;" horiz-adv-x="829" 
d="M100 0v710h101v-287h427v287h101v-710h-101v338h-427v-338h-101zM357 915h112l146 -138h-101l-102 91l-101 -91h-99z" />
    <glyph glyph-name="hcircumflex" unicode="&#x125;" horiz-adv-x="636" 
d="M67 913h118l117 -107h-100l-77 63l-74 -63h-101zM81 752h95v-337q51 105 187 105q89 0 140.5 -54.5t51.5 -159.5v-306h-96v291q0 149 -125 149q-77 0 -117.5 -53.5t-40.5 -137.5v-249h-95v752z" />
    <glyph glyph-name="Hbar" unicode="&#x126;" horiz-adv-x="829" 
d="M22 590h78v120h101v-120h427v120h101v-120h78v-70h-78v-520h-101v330h-427v-330h-101v520h-78v70zM201 416h427v104h-427v-104z" />
    <glyph glyph-name="hbar" unicode="&#x127;" horiz-adv-x="636" 
d="M81 752h95v-84h236v-63h-236v-197q49 108 187 108q90 0 141 -54t51 -162v-300h-96v286q0 150 -125 150q-77 0 -117.5 -54t-40.5 -137v-245h-95v605h-84v63h84v84z" />
    <glyph glyph-name="Itilde" unicode="&#x128;" horiz-adv-x="301" 
d="M100 710h101v-710h-101v710zM33 783h-68v23q0 107 92 107q37 0 98 -29t79 -29t25.5 10.5t7.5 38.5v11h66v-21q0 -113 -88 -113q-36 0 -97.5 30t-84.5 30q-30 0 -30 -43v-15z" />
    <glyph glyph-name="itilde" unicode="&#x129;" horiz-adv-x="257" 
d="M81 0v506h95v-506h-95zM23 611h-64v25q0 104 87 104q35 0 86 -28t70 -28q32 0 32 47v13h63v-23q0 -111 -87 -111q-35 0 -85 29t-71 29q-31 0 -31 -39v-18z" />
    <glyph glyph-name="Imacron" unicode="&#x12a;" horiz-adv-x="301" 
d="M100 710h101v-710h-101v710zM-12 876h322v-72h-322v72z" />
    <glyph glyph-name="imacron" unicode="&#x12b;" horiz-adv-x="257" 
d="M81 0v506h95v-506h-95zM-23 719h301v-73h-301v73z" />
    <glyph glyph-name="Iogonek" unicode="&#x12e;" horiz-adv-x="301" 
d="M100 710h101v-710h-7q-65 -53 -65 -107q0 -28 17.5 -42.5t46.5 -14.5q33 0 60 10v-70q-31 -16 -84 -16q-60 0 -92.5 31t-32.5 83q0 67 59 126h-3v710z" />
    <glyph glyph-name="iogonek" unicode="&#x12f;" horiz-adv-x="257" 
d="M229 -224q-31 -16 -84 -16q-60 0 -92.5 31t-32.5 83q0 67 61 128v504h95v-506h-6q-65 -53 -65 -107q0 -28 17.5 -42.5t46.5 -14.5q33 0 60 10v-70zM176 638h-95v114h95v-114z" />
    <glyph glyph-name="Idotaccent" unicode="&#x130;" horiz-adv-x="301" 
d="M100 710h101v-710h-101v710zM198 791h-95v114h95v-114z" />
    <glyph glyph-name="dotlessi" unicode="&#x131;" horiz-adv-x="257" 
d="M81 0v506h95v-506h-95z" />
    <glyph glyph-name="Jcircumflex" unicode="&#x134;" horiz-adv-x="439" 
d="M345 710v-466q0 -132 -53 -195t-171 -63q-57 0 -95 8v85q42 -7 90 -7q128 0 128 167v471h101zM237 909h112l146 -138h-101l-102 91l-101 -91h-99z" />
    <glyph glyph-name="jcircumflex" unicode="&#x135;" horiz-adv-x="263" 
d="M87 506h95v-523q0 -51 -7 -87t-25.5 -68t-56.5 -48t-95 -16q-3 0 -8 0.5t-6 0.5v77h14q48 0 68.5 30t20.5 90v544zM83 761h96l130 -161h-89l-90 110l-87 -110h-90z" />
    <glyph glyph-name="uni0136" unicode="&#x136;" horiz-adv-x="743" 
d="M100 0v710h101v-350q57 49 206 173t211 177h130l-361 -304l383 -406h-131l-328 352l-110 -89v-263h-101zM384 -265h-80q50 96 50 191h84q0 -47 -14.5 -103t-39.5 -88z" />
    <glyph glyph-name="uni0137" unicode="&#x137;" horiz-adv-x="597" 
d="M176 752v-488q30 27 138.5 120.5t140.5 121.5h120l-234 -197l259 -309h-120l-209 255l-95 -75v-180h-95v752h95zM312 -265h-80q50 96 50 191h84q0 -47 -14.5 -103t-39.5 -88z" />
    <glyph glyph-name="kgreenlandic" unicode="&#x138;" horiz-adv-x="595" 
d="M176 506v-242q274 235 282 242h120q-74 -59 -239 -199q13 -15 132 -153t132 -154h-120q-7 9 -106.5 126t-107.5 130l-93 -71v-185h-95v506h95z" />
    <glyph glyph-name="Lacute" unicode="&#x139;" horiz-adv-x="643" 
d="M100 0v710h100v-625h428l-15 -85h-513zM266 918h129l-198 -139h-100z" />
    <glyph glyph-name="lacute" unicode="&#x13a;" horiz-adv-x="257" 
d="M215 933h117l-161 -122h-95zM176 0h-95v752h95v-752z" />
    <glyph glyph-name="uni013B" unicode="&#x13b;" horiz-adv-x="643" 
d="M100 0v710h100v-625h428l-15 -85h-513zM355 -265h-80q50 96 50 191h84q0 -47 -14.5 -103t-39.5 -88z" />
    <glyph glyph-name="uni013C" unicode="&#x13c;" horiz-adv-x="257" 
d="M176 0h-95v752h95v-752zM117 -265h-80q50 96 50 191h84q0 -47 -14.5 -103t-39.5 -88z" />
    <glyph glyph-name="Lcaron" unicode="&#x13d;" horiz-adv-x="643" 
d="M100 0v710h100v-625h428l-15 -85h-513zM458 440h-73l-5 272h82z" />
    <glyph glyph-name="lcaron" unicode="&#x13e;" horiz-adv-x="302" 
d="M176 0h-95v752h95v-752zM318 480h-73l-5 272h82z" />
    <glyph glyph-name="Ldot" unicode="&#x13f;" horiz-adv-x="643" 
d="M460 317h-96v154h96v-154zM100 0v710h100v-625h428l-15 -85h-513z" />
    <glyph glyph-name="ldot" unicode="&#x140;" horiz-adv-x="300" 
d="M322 350h-86v156h86v-156zM176 0h-95v752h95v-752z" />
    <glyph glyph-name="Lslash" unicode="&#x141;" horiz-adv-x="643" 
d="M407 447l-207 -100v-262h428l-15 -85h-513v299l-107 -52l-1 74l108 53v336h100v-288l207 101v-76z" />
    <glyph glyph-name="lslash" unicode="&#x142;" horiz-adv-x="280" 
d="M188 0h-95v352l-79 -44v78l79 45v321h95v-268l92 52v-79l-92 -52v-405z" />
    <glyph glyph-name="Nacute" unicode="&#x143;" horiz-adv-x="840" 
d="M194 0h-94v710h120q61 -85 167 -226t175 -235t87 -126h2q-6 79 -6 320v267h94v-710h-113q-96 129 -248 340.5t-187 267.5h-2q5 -92 5 -318v-290zM521 918h129l-198 -139h-100z" />
    <glyph glyph-name="nacute" unicode="&#x144;" horiz-adv-x="636" 
d="M81 0v378q0 90 -1 128h92q4 -34 4 -94q20 45 65 76.5t118 31.5q91 0 143.5 -55t52.5 -157v-308h-96v291q0 149 -126 149q-77 0 -117 -53t-40 -144v-243h-95zM388 762h115l-164 -160h-89z" />
    <glyph glyph-name="uni0145" unicode="&#x145;" horiz-adv-x="840" 
d="M194 0h-94v710h120q61 -85 167 -226t175 -235t87 -126h2q-6 79 -6 320v267h94v-710h-113q-96 129 -248 340.5t-187 267.5h-2q5 -92 5 -318v-290zM425 -262h-80q50 96 50 191h84q0 -47 -14.5 -103t-39.5 -88z" />
    <glyph glyph-name="uni0146" unicode="&#x146;" horiz-adv-x="636" 
d="M81 0v378q0 90 -1 128h92q4 -34 4 -94q20 45 65 76.5t118 31.5q91 0 143.5 -55t52.5 -157v-308h-96v291q0 149 -126 149q-77 0 -117 -53t-40 -144v-243h-95zM318 -265h-80q50 96 50 191h84q0 -47 -14.5 -103t-39.5 -88z" />
    <glyph glyph-name="Ncaron" unicode="&#x147;" horiz-adv-x="840" 
d="M194 0h-94v710h120q61 -85 167 -226t175 -235t87 -126h2q-6 79 -6 320v267h94v-710h-113q-96 129 -248 340.5t-187 267.5h-2q5 -92 5 -318v-290zM476 771h-112l-146 138h101l102 -91l101 91h99z" />
    <glyph glyph-name="ncaron" unicode="&#x148;" horiz-adv-x="636" 
d="M81 0v378q0 90 -1 128h92q4 -34 4 -94q20 45 65 76.5t118 31.5q91 0 143.5 -55t52.5 -157v-308h-96v291q0 149 -126 149q-77 0 -117 -53t-40 -144v-243h-95zM369 593h-96l-130 161h89l90 -110l87 110h90z" />
    <glyph glyph-name="napostrophe" unicode="&#x149;" horiz-adv-x="636" 
d="M85 585h-73q40 98 55 202h83q-13 -114 -65 -202zM81 0v378q0 90 -1 128h92q4 -34 4 -94q20 45 65 76.5t118 31.5q91 0 143.5 -55t52.5 -157v-308h-96v291q0 149 -126 149q-77 0 -117 -53t-40 -144v-243h-95z" />
    <glyph glyph-name="Omacron" unicode="&#x14c;" horiz-adv-x="858" 
d="M431 725q166 0 268.5 -107.5t102.5 -260.5q0 -157 -101 -264.5t-273 -107.5q-168 0 -270 106.5t-102 266.5q0 152 104.5 259.5t270.5 107.5zM425 641q-120 0 -191.5 -81.5t-71.5 -199.5q0 -121 71.5 -206t197.5 -85q125 0 195 82t70 204q0 118 -72 202t-199 84zM261 888
h322v-72h-322v72z" />
    <glyph glyph-name="omacron" unicode="&#x14d;" horiz-adv-x="626" 
d="M315 520q124 0 196 -79.5t72 -187.5q0 -112 -71.5 -189.5t-201.5 -77.5q-123 0 -195 78t-72 189q0 113 74 190t198 77zM311 442q-82 0 -126 -54t-44 -135q0 -77 46.5 -133t125.5 -56q83 0 127.5 53.5t44.5 134.5q0 80 -46.5 135t-127.5 55zM162 719h301v-73h-301v73z" />
    <glyph glyph-name="Ohungarumlaut" unicode="&#x150;" horiz-adv-x="858" 
d="M431 725q166 0 268.5 -107.5t102.5 -260.5q0 -157 -101 -264.5t-273 -107.5q-168 0 -270 106.5t-102 266.5q0 152 104.5 259.5t270.5 107.5zM425 641q-120 0 -191.5 -81.5t-71.5 -199.5q0 -121 71.5 -206t197.5 -85q125 0 195 82t70 204q0 118 -72 202t-199 84zM384 925
h103l-139 -138h-85zM587 925h101l-138 -138h-86z" />
    <glyph glyph-name="ohungarumlaut" unicode="&#x151;" horiz-adv-x="626" 
d="M315 520q124 0 196 -79.5t72 -187.5q0 -112 -71.5 -189.5t-201.5 -77.5q-123 0 -195 78t-72 189q0 113 74 190t198 77zM311 442q-82 0 -126 -54t-44 -135q0 -77 46.5 -133t125.5 -56q83 0 127.5 53.5t44.5 134.5q0 80 -46.5 135t-127.5 55zM249 585h-76l115 167h91z
M433 585h-75l114 167h92z" />
    <glyph glyph-name="OE" unicode="&#x152;" horiz-adv-x="1165" 
d="M1105 710v-85h-415v-209h393v-86h-393v-245h437l-14 -85h-512q-79 -11 -151 -11q-189 0 -290.5 105.5t-101.5 261.5t108 259.5t297 103.5q66 0 144 -9h498zM589 85v541q-46 10 -125 10q-132 0 -216 -70.5t-84 -207.5q0 -136 82.5 -211t209.5 -75q83 0 133 13z" />
    <glyph glyph-name="oe" unicode="&#x153;" horiz-adv-x="1050" 
d="M752 -14q-75 0 -130 31.5t-87 84.5q-71 -116 -225 -116q-123 0 -194.5 78t-72.5 189q0 113 74 190t198 77q73 0 129.5 -32t89.5 -86q32 56 88 87t128 31q68 0 120 -24t81.5 -63.5t44 -84t14.5 -92.5q0 -19 -1 -25h-425q4 -74 51 -121t122 -47q105 0 150 81h95
q-24 -66 -85 -112t-165 -46zM311 442q-82 0 -126 -54t-44 -135q0 -77 46.5 -133t125.5 -56q83 0 127.5 53.5t44.5 134.5q0 80 -46.5 135t-127.5 55zM586 299h325q-5 57 -43.5 102t-118.5 45q-73 0 -114.5 -41t-48.5 -106z" />
    <glyph glyph-name="Racute" unicode="&#x154;" horiz-adv-x="749" 
d="M395 306h-195v-306h-99v710h339q111 0 177 -50t66 -142q0 -136 -130 -170q111 -31 111 -173v-31q0 -114 8 -144h-102q-9 25 -9 145v23q0 79 -36 108.5t-130 29.5zM200 628v-240h214q166 0 166 124q0 116 -162 116h-218zM475 918h129l-198 -139h-100z" />
    <glyph glyph-name="racute" unicode="&#x155;" horiz-adv-x="399" 
d="M81 0v368q0 92 -1 138h93q3 -45 3 -114q25 60 78.5 94.5t126.5 33.5v-91q-91 1 -148 -55t-57 -163v-211h-95zM285 762h115l-164 -160h-89z" />
    <glyph glyph-name="uni0156" unicode="&#x156;" horiz-adv-x="749" 
d="M395 306h-195v-306h-99v710h339q111 0 177 -50t66 -142q0 -136 -130 -170q111 -31 111 -173v-31q0 -114 8 -144h-102q-9 25 -9 145v23q0 79 -36 108.5t-130 29.5zM200 628v-240h214q166 0 166 124q0 116 -162 116h-218zM379 -257h-80q50 96 50 191h84q0 -47 -14.5 -103
t-39.5 -88z" />
    <glyph glyph-name="uni0157" unicode="&#x157;" horiz-adv-x="399" 
d="M81 0v368q0 92 -1 138h93q3 -45 3 -114q25 60 78.5 94.5t126.5 33.5v-91q-91 1 -148 -55t-57 -163v-211h-95zM117 -265h-80q50 96 50 191h84q0 -47 -14.5 -103t-39.5 -88z" />
    <glyph glyph-name="Rcaron" unicode="&#x158;" horiz-adv-x="749" 
d="M395 306h-195v-306h-99v710h339q111 0 177 -50t66 -142q0 -136 -130 -170q111 -31 111 -173v-31q0 -114 8 -144h-102q-9 25 -9 145v23q0 79 -36 108.5t-130 29.5zM200 628v-240h214q166 0 166 124q0 116 -162 116h-218zM423 771h-112l-146 138h101l102 -91l101 91h99z
" />
    <glyph glyph-name="rcaron" unicode="&#x159;" horiz-adv-x="399" 
d="M81 0v368q0 92 -1 138h93q3 -45 3 -114q25 60 78.5 94.5t126.5 33.5v-91q-91 1 -148 -55t-57 -163v-211h-95zM260 593h-96l-130 161h89l90 -110l87 110h90z" />
    <glyph glyph-name="Sacute" unicode="&#x15a;" horiz-adv-x="724" 
d="M42 207h103q44 -142 226 -142q99 0 146.5 33t47.5 87q0 56 -46 89t-177 55q-151 26 -207.5 73.5t-56.5 126.5q0 91 76.5 143.5t196.5 52.5q66 0 118 -13.5t83 -33.5t52 -47.5t29 -50.5t11 -48h-101q-7 23 -16.5 39t-29.5 35t-58 29t-91 10q-78 0 -123 -27t-45 -79
q0 -48 38.5 -75.5t152.5 -46.5q93 -16 154 -38.5t91 -52.5t41 -60t11 -71q0 -91 -76 -150.5t-228 -59.5q-143 0 -223 59.5t-99 162.5zM459 925h129l-198 -139h-100z" />
    <glyph glyph-name="sacute" unicode="&#x15b;" horiz-adv-x="561" 
d="M34 153h96q28 -95 161 -95q131 0 131 80q0 35 -31.5 55t-122.5 31q-122 15 -166.5 53t-44.5 94q0 59 51.5 104t162.5 45q62 0 108 -14.5t71 -38.5t36.5 -48t14.5 -50h-96q-19 80 -139 80q-63 0 -88.5 -20.5t-25.5 -48.5q0 -31 28.5 -48t111.5 -28q69 -9 115 -24.5t69 -37
t32 -44t9 -53.5q0 -72 -57.5 -115.5t-174.5 -43.5q-110 0 -174 43.5t-77 123.5zM347 762h115l-164 -160h-89z" />
    <glyph glyph-name="Scircumflex" unicode="&#x15c;" horiz-adv-x="724" 
d="M42 207h103q44 -142 226 -142q99 0 146.5 33t47.5 87q0 56 -46 89t-177 55q-151 26 -207.5 73.5t-56.5 126.5q0 91 76.5 143.5t196.5 52.5q66 0 118 -13.5t83 -33.5t52 -47.5t29 -50.5t11 -48h-101q-7 23 -16.5 39t-29.5 35t-58 29t-91 10q-78 0 -123 -27t-45 -79
q0 -48 38.5 -75.5t152.5 -46.5q93 -16 154 -38.5t91 -52.5t41 -60t11 -71q0 -91 -76 -150.5t-228 -59.5q-143 0 -223 59.5t-99 162.5zM305 916h112l146 -138h-101l-102 91l-101 -91h-99z" />
    <glyph glyph-name="scircumflex" unicode="&#x15d;" horiz-adv-x="561" 
d="M34 153h96q28 -95 161 -95q131 0 131 80q0 35 -31.5 55t-122.5 31q-122 15 -166.5 53t-44.5 94q0 59 51.5 104t162.5 45q62 0 108 -14.5t71 -38.5t36.5 -48t14.5 -50h-96q-19 80 -139 80q-63 0 -88.5 -20.5t-25.5 -48.5q0 -31 28.5 -48t111.5 -28q69 -9 115 -24.5t69 -37
t32 -44t9 -53.5q0 -72 -57.5 -115.5t-174.5 -43.5q-110 0 -174 43.5t-77 123.5zM232 761h96l130 -161h-89l-90 110l-87 -110h-90z" />
    <glyph glyph-name="uni015E" unicode="&#x15e;" horiz-adv-x="724" 
d="M42 207h103q44 -142 226 -142q99 0 146.5 33t47.5 87q0 56 -46 89t-177 55q-151 26 -207.5 73.5t-56.5 126.5q0 91 76.5 143.5t196.5 52.5q66 0 118 -13.5t83 -33.5t52 -47.5t29 -50.5t11 -48h-101q-7 23 -16.5 39t-29.5 35t-58 29t-91 10q-78 0 -123 -27t-45 -79
q0 -48 38.5 -75.5t152.5 -46.5q93 -16 154 -38.5t91 -52.5t41 -60t11 -71q0 -84 -65.5 -142t-195.5 -67l-36 -42q44 -5 78 -27t34 -66q0 -56 -42.5 -79t-98.5 -23q-49 0 -84 11v59q40 -9 73 -9q71 0 71 38q0 45 -126 45v28l55 65q-127 7 -199 65.5t-90 155.5z" />
    <glyph glyph-name="uni015F" unicode="&#x15f;" horiz-adv-x="561" 
d="M34 153h96q28 -95 161 -95q131 0 131 80q0 35 -31.5 55t-122.5 31q-122 15 -166.5 53t-44.5 94q0 59 51.5 104t162.5 45q62 0 108 -14.5t71 -38.5t36.5 -48t14.5 -50h-96q-19 80 -139 80q-63 0 -88.5 -20.5t-25.5 -48.5q0 -31 28.5 -48t111.5 -28q69 -9 115 -24.5t69 -37
t32 -44t9 -53.5q0 -66 -47.5 -108t-143.5 -49l-37 -44q44 -5 78 -27t34 -66q0 -56 -42.5 -79t-98.5 -23q-49 0 -84 11v59q40 -9 73 -9q71 0 71 38q0 45 -126 45v28l57 66q-94 7 -149.5 50t-67.5 116z" />
    <glyph glyph-name="Scaron" unicode="&#x160;" horiz-adv-x="724" 
d="M42 207h103q44 -142 226 -142q99 0 146.5 33t47.5 87q0 56 -46 89t-177 55q-151 26 -207.5 73.5t-56.5 126.5q0 91 76.5 143.5t196.5 52.5q66 0 118 -13.5t83 -33.5t52 -47.5t29 -50.5t11 -48h-101q-7 23 -16.5 39t-29.5 35t-58 29t-91 10q-78 0 -123 -27t-45 -79
q0 -48 38.5 -75.5t152.5 -46.5q93 -16 154 -38.5t91 -52.5t41 -60t11 -71q0 -91 -76 -150.5t-228 -59.5q-143 0 -223 59.5t-99 162.5zM418 787h-112l-146 138h101l102 -91l101 91h99z" />
    <glyph glyph-name="scaron" unicode="&#x161;" horiz-adv-x="561" 
d="M34 153h96q28 -95 161 -95q131 0 131 80q0 35 -31.5 55t-122.5 31q-122 15 -166.5 53t-44.5 94q0 59 51.5 104t162.5 45q62 0 108 -14.5t71 -38.5t36.5 -48t14.5 -50h-96q-19 80 -139 80q-63 0 -88.5 -20.5t-25.5 -48.5q0 -31 28.5 -48t111.5 -28q69 -9 115 -24.5t69 -37
t32 -44t9 -53.5q0 -72 -57.5 -115.5t-174.5 -43.5q-110 0 -174 43.5t-77 123.5zM328 593h-96l-130 161h89l90 -110l87 110h90z" />
    <glyph glyph-name="uni0162" unicode="&#x162;" horiz-adv-x="662" 
d="M281 0v625h-271v85h642v-85h-270v-625h-6l-47 -56q44 -5 78 -27t34 -66q0 -56 -42.5 -79t-98.5 -23q-49 0 -84 11v59q40 -9 73 -9q71 0 71 38q0 45 -126 45v28l67 79h-20z" />
    <glyph glyph-name="uni0163" unicode="&#x163;" horiz-adv-x="371" 
d="M16 431v75h101v163h95v-163h132v-75h-132v-277q0 -45 15 -64.5t55 -19.5q31 0 50 5v-70q-30 -10 -73 -10l-36 -43q44 -5 78 -27t34 -66q0 -56 -42.5 -79t-98.5 -23q-49 0 -84 11v59q40 -9 73 -9q71 0 71 38q0 45 -126 45v28l63 74q-41 12 -57.5 45.5t-16.5 93.5v289h-101
z" />
    <glyph glyph-name="Tcaron" unicode="&#x164;" horiz-adv-x="662" 
d="M281 0v625h-271v85h642v-85h-270v-625h-101zM386 771h-112l-146 138h101l102 -91l101 91h99z" />
    <glyph glyph-name="tcaron" unicode="&#x165;" horiz-adv-x="371" 
d="M364 594h-60l-5 213h76zM16 431v75h101v163h95v-163h132v-75h-132v-277q0 -45 15 -64.5t55 -19.5q31 0 50 5v-70q-29 -10 -79 -10q-76 0 -106 34.5t-30 112.5v289h-101z" />
    <glyph glyph-name="Utilde" unicode="&#x168;" horiz-adv-x="814" 
d="M94 710h100v-403q0 -67 18.5 -115.5t50.5 -74t68.5 -37t79.5 -11.5q103 0 156 55.5t53 182.5v403h100v-402q0 -323 -312 -323q-149 0 -231.5 77.5t-82.5 237.5v410zM290 783h-68v23q0 107 92 107q36 0 97 -29t80 -29q18 0 25.5 10.5t7.5 38.5v11h66v-21q0 -113 -88 -113
q-36 0 -97.5 30t-84.5 30q-30 0 -30 -43v-15z" />
    <glyph glyph-name="utilde" unicode="&#x169;" horiz-adv-x="628" 
d="M547 506v-358q0 -99 1 -148h-92q-2 14 -4 86q-21 -48 -62 -74t-119 -26q-86 0 -138 50.5t-52 155.5v314h95v-296q0 -64 28.5 -103.5t92.5 -39.5q82 0 118.5 50t36.5 160v229h95zM209 611h-64v25q0 104 87 104q35 0 86 -28t70 -28q32 0 32 47v13h63v-23q0 -111 -87 -111
q-35 0 -85 29t-71 29q-31 0 -31 -39v-18z" />
    <glyph glyph-name="Umacron" unicode="&#x16a;" horiz-adv-x="814" 
d="M94 710h100v-403q0 -67 18.5 -115.5t50.5 -74t68.5 -37t79.5 -11.5q103 0 156 55.5t53 182.5v403h100v-402q0 -323 -312 -323q-149 0 -231.5 77.5t-82.5 237.5v410zM245 876h322v-72h-322v72z" />
    <glyph glyph-name="umacron" unicode="&#x16b;" horiz-adv-x="628" 
d="M547 506v-358q0 -99 1 -148h-92q-2 14 -4 86q-21 -48 -62 -74t-119 -26q-86 0 -138 50.5t-52 155.5v314h95v-296q0 -64 28.5 -103.5t92.5 -39.5q82 0 118.5 50t36.5 160v229h95zM163 719h301v-73h-301v73z" />
    <glyph glyph-name="Ubreve" unicode="&#x16c;" horiz-adv-x="814" 
d="M94 710h100v-403q0 -67 18.5 -115.5t50.5 -74t68.5 -37t79.5 -11.5q103 0 156 55.5t53 182.5v403h100v-402q0 -323 -312 -323q-149 0 -231.5 77.5t-82.5 237.5v410zM236 911h72q8 -31 34.5 -49.5t64.5 -18.5q79 0 100 68h70q-10 -59 -54 -97.5t-117 -38.5
q-79 0 -121.5 40.5t-48.5 95.5z" />
    <glyph glyph-name="ubreve" unicode="&#x16d;" horiz-adv-x="628" 
d="M547 506v-358q0 -99 1 -148h-92q-2 14 -4 86q-21 -48 -62 -74t-119 -26q-86 0 -138 50.5t-52 155.5v314h95v-296q0 -64 28.5 -103.5t92.5 -39.5q82 0 118.5 50t36.5 160v229h95zM151 750h70q18 -81 92 -81q44 0 64.5 22t29.5 59h69q-9 -67 -50.5 -109t-112.5 -42
q-77 0 -117 43.5t-45 107.5z" />
    <glyph glyph-name="Uring" unicode="&#x16e;" horiz-adv-x="814" 
d="M94 710h100v-403q0 -67 18.5 -115.5t50.5 -74t68.5 -37t79.5 -11.5q103 0 156 55.5t53 182.5v403h100v-402q0 -323 -312 -323q-149 0 -231.5 77.5t-82.5 237.5v410zM407 762q-52 0 -82.5 29.5t-30.5 73.5q0 45 30 75.5t83 30.5q52 0 82 -29.5t30 -74.5t-30.5 -75
t-81.5 -30zM407 811q26 0 40.5 16t14.5 39t-14 40t-41 17t-41 -16t-14 -39q0 -24 14 -40.5t41 -16.5z" />
    <glyph glyph-name="uring" unicode="&#x16f;" horiz-adv-x="628" 
d="M547 506v-358q0 -99 1 -148h-92q-2 14 -4 86q-21 -48 -62 -74t-119 -26q-86 0 -138 50.5t-52 155.5v314h95v-296q0 -64 28.5 -103.5t92.5 -39.5q82 0 118.5 50t36.5 160v229h95zM314 572q-52 0 -82.5 29.5t-30.5 73.5q0 45 30 75.5t83 30.5q52 0 82 -29.5t30 -74.5
t-30.5 -75t-81.5 -30zM314 621q26 0 40.5 16t14.5 39t-14 40t-41 17t-41 -16t-14 -39q0 -24 14 -40.5t41 -16.5z" />
    <glyph glyph-name="Uhungarumlaut" unicode="&#x170;" horiz-adv-x="814" 
d="M94 710h100v-403q0 -67 18.5 -115.5t50.5 -74t68.5 -37t79.5 -11.5q103 0 156 55.5t53 182.5v403h100v-402q0 -323 -312 -323q-149 0 -231.5 77.5t-82.5 237.5v410zM371 918h103l-139 -138h-85zM574 918h101l-138 -138h-86z" />
    <glyph glyph-name="uhungarumlaut" unicode="&#x171;" horiz-adv-x="628" 
d="M547 506v-358q0 -99 1 -148h-92q-2 14 -4 86q-21 -48 -62 -74t-119 -26q-86 0 -138 50.5t-52 155.5v314h95v-296q0 -64 28.5 -103.5t92.5 -39.5q82 0 118.5 50t36.5 160v229h95zM250 585h-76l115 167h91zM434 585h-75l114 167h92z" />
    <glyph glyph-name="Uogonek" unicode="&#x172;" horiz-adv-x="814" 
d="M94 710h100v-403q0 -67 18.5 -115.5t50.5 -74t68.5 -37t79.5 -11.5q103 0 156 55.5t53 182.5v403h100v-402q0 -251 -189 -307l3 -1q-65 -53 -65 -107q0 -28 17.5 -42.5t46.5 -14.5q33 0 60 10v-70q-31 -16 -84 -16q-60 0 -92.5 31t-32.5 83q0 58 46 111h-22
q-149 0 -231.5 77.5t-82.5 237.5v410z" />
    <glyph glyph-name="uogonek" unicode="&#x173;" horiz-adv-x="628" 
d="M547 506v-358q0 -99 1 -148h-9q-64 -53 -64 -106q0 -28 17.5 -42.5t46.5 -14.5q33 0 60 10v-70q-31 -16 -84 -16q-60 0 -92.5 31t-32.5 83q0 71 65 132q-1 15 -3 79q-21 -48 -62 -74t-119 -26q-86 0 -138 50.5t-52 155.5v314h95v-296q0 -64 28.5 -103.5t92.5 -39.5
q82 0 118.5 50t36.5 160v229h95z" />
    <glyph glyph-name="Wcircumflex" unicode="&#x174;" horiz-adv-x="1083" 
d="M349 0h-107l-221 710h106q162 -532 175 -613h1q18 92 188 613h101q166 -528 182 -611h2q16 80 186 611h102l-236 -710h-110q-163 515 -182 603h-1q-17 -84 -186 -603zM485 909h112l146 -138h-101l-102 91l-101 -91h-99z" />
    <glyph glyph-name="wcircumflex" unicode="&#x175;" horiz-adv-x="853" 
d="M19 506h99q111 -358 125 -421h1q16 63 139 421h91q124 -359 136 -415h1q24 98 128 415h94l-175 -506h-98q-127 370 -135 398h-1q-27 -100 -136 -398h-102zM378 761h96l130 -161h-89l-90 110l-87 -110h-90z" />
    <glyph glyph-name="Ycircumflex" unicode="&#x176;" horiz-adv-x="669" 
d="M385 0h-100v270q0 10 -7 18l-298 422h120q22 -32 85.5 -123.5t101 -147t52.5 -81.5q33 57 238 352h111l-298 -424q-5 -10 -5 -17v-269zM277 909h112l146 -138h-101l-102 91l-101 -91h-99z" />
    <glyph glyph-name="ycircumflex" unicode="&#x177;" horiz-adv-x="582" 
d="M15 506h104q151 -346 181 -433h2q79 220 166 433h99l-199 -480q-68 -167 -112 -214.5t-137 -47.5q-41 0 -66 6v83q25 -4 55 -4q51 0 78.5 26t62.5 102zM243 761h96l130 -161h-89l-90 110l-87 -110h-90z" />
    <glyph glyph-name="Ydieresis" unicode="&#x178;" horiz-adv-x="669" 
d="M385 0h-100v270q0 10 -7 18l-298 422h120q22 -32 85.5 -123.5t101 -147t52.5 -81.5q33 57 238 352h111l-298 -424q-5 -10 -5 -17v-269zM268 791h-87v114h87v-114zM486 791h-87v114h87v-114z" />
    <glyph glyph-name="Zacute" unicode="&#x179;" horiz-adv-x="690" 
d="M24 0v73l496 554h-473v83h604v-77l-492 -550h516l-14 -83h-637zM445 918h129l-198 -139h-100z" />
    <glyph glyph-name="zacute" unicode="&#x17a;" horiz-adv-x="546" 
d="M35 0v71l351 358h-332v77h454v-73l-347 -355h370l-15 -78h-481zM355 762h115l-164 -160h-89z" />
    <glyph glyph-name="Zdotaccent" unicode="&#x17b;" horiz-adv-x="690" 
d="M24 0v73l496 554h-473v83h604v-77l-492 -550h516l-14 -83h-637zM392 791h-95v114h95v-114z" />
    <glyph glyph-name="zdotaccent" unicode="&#x17c;" horiz-adv-x="546" 
d="M35 0v71l351 358h-332v77h454v-73l-347 -355h370l-15 -78h-481zM320 638h-96v114h96v-114z" />
    <glyph glyph-name="Zcaron" unicode="&#x17d;" horiz-adv-x="690" 
d="M24 0v73l496 554h-473v83h604v-77l-492 -550h516l-14 -83h-637zM400 771h-112l-146 138h101l102 -91l101 91h99z" />
    <glyph glyph-name="zcaron" unicode="&#x17e;" horiz-adv-x="546" 
d="M35 0v71l351 358h-332v77h454v-73l-347 -355h370l-15 -78h-481zM327 593h-96l-130 161h89l90 -110l87 110h90z" />
    <glyph glyph-name="uni018F" unicode="&#x18f;" horiz-adv-x="794" 
d="M736 360q0 -164 -90.5 -269t-256.5 -106q-156 -1 -247.5 96.5t-91.5 259.5q0 23 3 46h581q-6 120 -73.5 188t-176.5 68q-160 0 -220 -123h-101q34 90 117 147.5t209 57.5q69 0 127 -20t98 -54t68 -80.5t41 -99.5t13 -111zM631 311h-475q1 -116 67.5 -181t167.5 -65
q103 0 166.5 62.5t73.5 183.5z" />
    <glyph glyph-name="florin" unicode="&#x192;" horiz-adv-x="643" 
d="M574 666l-17 -72q-36 15 -73 15q-42 0 -62 -33.5t-30 -97.5l-11 -68h130v-74h-143l-35 -213q-17 -108 -56 -164.5t-123 -56.5q-63 0 -104 23l18 75q36 -17 77 -17q39 0 59 31.5t35 119.5l33 202h-104v74h116l10 58q7 44 17.5 77.5t30 68.5t54 54t81.5 19q65 0 97 -21z
" />
    <glyph glyph-name="Ohorn" unicode="&#x1a0;" horiz-adv-x="858" 
d="M431 725q118 0 209 -59q68 13 68 78q0 31 -10 58h88q7 -20 7 -57q0 -45 -22.5 -80t-67.5 -52q99 -104 99 -256q0 -157 -101 -264.5t-273 -107.5q-168 0 -270 106.5t-102 266.5q0 152 104.5 259.5t270.5 107.5zM425 641q-120 0 -191.5 -81.5t-71.5 -199.5
q0 -121 71.5 -206t197.5 -85q125 0 195 82t70 204q0 118 -72 202t-199 84z" />
    <glyph glyph-name="ohorn" unicode="&#x1a1;" horiz-adv-x="626" 
d="M315 520q99 0 169 -55q59 15 59 76q0 31 -10 58h88q7 -20 7 -57q0 -99 -92 -133q47 -68 47 -156q0 -112 -71.5 -189.5t-201.5 -77.5q-123 0 -195 78t-72 189q0 113 74 190t198 77zM311 442q-82 0 -126 -54t-44 -135q0 -77 46.5 -133t125.5 -56q83 0 127.5 53.5
t44.5 134.5q0 80 -46.5 135t-127.5 55z" />
    <glyph glyph-name="Uhorn" unicode="&#x1af;" horiz-adv-x="814" 
d="M94 710h100v-403q0 -67 18.5 -115.5t50.5 -74t68.5 -37t79.5 -11.5q103 0 156 55.5t53 182.5v403h48q75 11 75 79q0 31 -10 58h88q7 -20 7 -57q0 -49 -27.5 -86.5t-80.5 -50.5v-345q0 -323 -312 -323q-149 0 -231.5 77.5t-82.5 237.5v410z" />
    <glyph glyph-name="uhorn" unicode="&#x1b0;" horiz-adv-x="628" 
d="M452 86q-21 -48 -62 -74t-119 -26q-86 0 -138 50.5t-52 155.5v314h95v-296q0 -64 28.5 -103.5t92.5 -39.5q82 0 118.5 50t36.5 160v229h43q83 8 83 80q0 31 -10 58h88q7 -20 7 -57q0 -52 -29.5 -90t-86.5 -49v-300q0 -99 1 -148h-92q-2 14 -4 86z" />
    <glyph glyph-name="uni01CD" unicode="&#x1cd;" horiz-adv-x="768" 
d="M552 215h-344l-92 -215h-104l305 710h122l318 -710h-110zM239 301h280q-127 286 -144 337h-1q-28 -86 -135 -337zM435 771h-112l-146 138h101l102 -91l101 91h99z" />
    <glyph glyph-name="uni01CE" unicode="&#x1ce;" horiz-adv-x="606" 
d="M524 347v-222q0 -95 5 -125h-91q-2 10 -6 74q-44 -88 -191 -88q-99 0 -147.5 49t-48.5 114q0 165 263 165h123v27q0 107 -132 107q-66 0 -93 -23.5t-37 -65.5h-95q3 28 14 54t35 51.5t69 40.5t107 15q225 0 225 -173zM431 225v22h-121q-89 0 -130 -22t-41 -72
q0 -40 30.5 -66t90.5 -26q171 0 171 164zM347 593h-96l-130 161h89l90 -110l87 110h90z" />
    <glyph glyph-name="uni01CF" unicode="&#x1cf;" horiz-adv-x="301" 
d="M100 710h101v-710h-101v710zM206 771h-112l-146 138h101l102 -91l101 91h99z" />
    <glyph glyph-name="uni01D0" unicode="&#x1d0;" horiz-adv-x="257" 
d="M81 0v506h95v-506h-95zM176 593h-96l-130 161h89l90 -110l87 110h90z" />
    <glyph glyph-name="uni01D1" unicode="&#x1d1;" horiz-adv-x="858" 
d="M431 725q166 0 268.5 -107.5t102.5 -260.5q0 -157 -101 -264.5t-273 -107.5q-168 0 -270 106.5t-102 266.5q0 152 104.5 259.5t270.5 107.5zM425 641q-120 0 -191.5 -81.5t-71.5 -199.5q0 -121 71.5 -206t197.5 -85q125 0 195 82t70 204q0 118 -72 202t-199 84zM477 783
h-112l-146 138h101l102 -91l101 91h99z" />
    <glyph glyph-name="uni01D2" unicode="&#x1d2;" horiz-adv-x="626" 
d="M315 520q124 0 196 -79.5t72 -187.5q0 -112 -71.5 -189.5t-201.5 -77.5q-123 0 -195 78t-72 189q0 113 74 190t198 77zM311 442q-82 0 -126 -54t-44 -135q0 -77 46.5 -133t125.5 -56q83 0 127.5 53.5t44.5 134.5q0 80 -46.5 135t-127.5 55zM361 593h-96l-130 161h89
l90 -110l87 110h90z" />
    <glyph glyph-name="uni01D3" unicode="&#x1d3;" horiz-adv-x="814" 
d="M94 710h100v-403q0 -67 18.5 -115.5t50.5 -74t68.5 -37t79.5 -11.5q103 0 156 55.5t53 182.5v403h100v-402q0 -323 -312 -323q-149 0 -231.5 77.5t-82.5 237.5v410zM463 771h-112l-146 138h101l102 -91l101 91h99z" />
    <glyph glyph-name="uni01D4" unicode="&#x1d4;" horiz-adv-x="628" 
d="M547 506v-358q0 -99 1 -148h-92q-2 14 -4 86q-21 -48 -62 -74t-119 -26q-86 0 -138 50.5t-52 155.5v314h95v-296q0 -64 28.5 -103.5t92.5 -39.5q82 0 118.5 50t36.5 160v229h95zM362 593h-96l-130 161h89l90 -110l87 110h90z" />
    <glyph glyph-name="uni01D5" unicode="&#x1d5;" horiz-adv-x="814" 
d="M94 710h100v-403q0 -67 18.5 -115.5t50.5 -74t68.5 -37t79.5 -11.5q103 0 156 55.5t53 182.5v403h100v-402q0 -323 -312 -323q-149 0 -231.5 77.5t-82.5 237.5v410zM335 776h-82v94h82v-94zM561 935h-308v65h308v-65zM561 776h-82v94h82v-94z" />
    <glyph glyph-name="uni01D6" unicode="&#x1d6;" horiz-adv-x="628" 
d="M547 506v-358q0 -99 1 -148h-92q-2 14 -4 86q-21 -48 -62 -74t-119 -26q-86 0 -138 50.5t-52 155.5v314h95v-296q0 -64 28.5 -103.5t92.5 -39.5q82 0 118.5 50t36.5 160v229h95zM252 573h-82v96h82v-96zM448 727h-273v68h273v-68zM458 573h-82v96h82v-96z" />
    <glyph glyph-name="uni01D7" unicode="&#x1d7;" horiz-adv-x="814" 
d="M94 710h100v-403q0 -67 18.5 -115.5t50.5 -74t68.5 -37t79.5 -11.5q103 0 156 55.5t53 182.5v403h100v-402q0 -323 -312 -323q-149 0 -231.5 77.5t-82.5 237.5v410zM253 870h82v-94h-82v94zM354 912l142 120h114l-163 -120h-93zM561 776h-82v94h82v-94z" />
    <glyph glyph-name="uni01D8" unicode="&#x1d8;" horiz-adv-x="628" 
d="M547 506v-358q0 -99 1 -148h-92q-2 14 -4 86q-21 -48 -62 -74t-119 -26q-86 0 -138 50.5t-52 155.5v314h95v-296q0 -64 28.5 -103.5t92.5 -39.5q82 0 118.5 50t36.5 160v229h95zM170 671h82v-98h-82v98zM347 716h-87l115 134h108zM458 573h-82v98h82v-98z" />
    <glyph glyph-name="uni01D9" unicode="&#x1d9;" horiz-adv-x="814" 
d="M94 710h100v-403q0 -67 18.5 -115.5t50.5 -74t68.5 -37t79.5 -11.5q103 0 156 55.5t53 182.5v403h100v-402q0 -323 -312 -323q-149 0 -231.5 77.5t-82.5 237.5v410zM453 903h-91l-126 114h92l80 -71l80 71h89zM335 776h-82v94h82v-94zM561 776h-82v94h82v-94z" />
    <glyph glyph-name="uni01DA" unicode="&#x1da;" horiz-adv-x="628" 
d="M547 506v-358q0 -99 1 -148h-92q-2 14 -4 86q-21 -48 -62 -74t-119 -26q-86 0 -138 50.5t-52 155.5v314h95v-296q0 -64 28.5 -103.5t92.5 -39.5q82 0 118.5 50t36.5 160v229h95zM360 697h-91l-107 121h83l70 -78l70 78h82zM255 574h-79v90h79v-90zM451 574h-78v90h78v-90
z" />
    <glyph glyph-name="uni01DB" unicode="&#x1db;" horiz-adv-x="814" 
d="M94 710h100v-403q0 -67 18.5 -115.5t50.5 -74t68.5 -37t79.5 -11.5q103 0 156 55.5t53 182.5v403h100v-402q0 -323 -312 -323q-149 0 -231.5 77.5t-82.5 237.5v410zM253 870h82v-94h-82v94zM468 912h-96l-160 120h115zM561 776h-82v94h82v-94z" />
    <glyph glyph-name="uni01DC" unicode="&#x1dc;" horiz-adv-x="628" 
d="M547 506v-358q0 -99 1 -148h-92q-2 14 -4 86q-21 -48 -62 -74t-119 -26q-86 0 -138 50.5t-52 155.5v314h95v-296q0 -64 28.5 -103.5t92.5 -39.5q82 0 118.5 50t36.5 160v229h95zM170 668h82v-95h-82v95zM146 846h108l115 -134h-86zM458 573h-82v95h82v-95z" />
    <glyph glyph-name="Gcaron" unicode="&#x1e6;" horiz-adv-x="842" 
d="M761 389v-389h-77q-8 48 -8 105q-37 -60 -98 -90t-161 -30q-167 0 -264 100.5t-97 267.5q0 161 102.5 266.5t276.5 105.5q146 0 226.5 -61t103.5 -152h-104q-53 131 -227 131q-129 0 -200.5 -80t-71.5 -204q0 -130 71 -210.5t199 -80.5q112 0 172 55.5t60 159.5v21h-230
v85h327zM475 778h-112l-146 138h101l102 -91l101 91h99z" />
    <glyph glyph-name="gcaron" unicode="&#x1e7;" horiz-adv-x="650" 
d="M569 359v-293q0 -151 -61 -226.5t-211 -75.5q-70 0 -120.5 18t-76 48t-36.5 55t-16 53h97q29 -97 157 -97q54 0 89.5 16t53 48t24 68t6.5 88v28q-51 -98 -190 -98q-106 0 -174 73.5t-68 182.5q0 119 74.5 196t179.5 77q78 0 121 -27.5t57 -64.5q0 57 3 78h92
q-1 -49 -1 -147zM140 251q0 -78 47 -129t121 -51q80 0 124.5 48.5t44.5 137.5q0 88 -43 135.5t-121 47.5q-83 0 -128 -56t-45 -133zM373 593h-96l-130 161h89l90 -110l87 110h90z" />
    <glyph glyph-name="uni0218" unicode="&#x218;" horiz-adv-x="724" 
d="M42 207h103q44 -142 226 -142q99 0 146.5 33t47.5 87q0 56 -46 89t-177 55q-151 26 -207.5 73.5t-56.5 126.5q0 91 76.5 143.5t196.5 52.5q66 0 118 -13.5t83 -33.5t52 -47.5t29 -50.5t11 -48h-101q-7 23 -16.5 39t-29.5 35t-58 29t-91 10q-78 0 -123 -27t-45 -79
q0 -48 38.5 -75.5t152.5 -46.5q93 -16 154 -38.5t91 -52.5t41 -60t11 -71q0 -91 -76 -150.5t-228 -59.5q-143 0 -223 59.5t-99 162.5zM375 -265h-80q50 96 50 191h84q0 -47 -14.5 -103t-39.5 -88z" />
    <glyph glyph-name="uni0219" unicode="&#x219;" horiz-adv-x="561" 
d="M34 153h96q28 -95 161 -95q131 0 131 80q0 35 -31.5 55t-122.5 31q-122 15 -166.5 53t-44.5 94q0 59 51.5 104t162.5 45q62 0 108 -14.5t71 -38.5t36.5 -48t14.5 -50h-96q-19 80 -139 80q-63 0 -88.5 -20.5t-25.5 -48.5q0 -31 28.5 -48t111.5 -28q69 -9 115 -24.5t69 -37
t32 -44t9 -53.5q0 -72 -57.5 -115.5t-174.5 -43.5q-110 0 -174 43.5t-77 123.5zM279 -265h-80q50 96 50 191h84q0 -47 -14.5 -103t-39.5 -88z" />
    <glyph glyph-name="uni021A" unicode="&#x21a;" horiz-adv-x="662" 
d="M281 0v625h-271v85h642v-85h-270v-625h-101zM320 -265h-80q50 96 50 191h84q0 -47 -14.5 -103t-39.5 -88z" />
    <glyph glyph-name="uni021B" unicode="&#x21b;" horiz-adv-x="371" 
d="M16 431v75h101v163h95v-163h132v-75h-132v-277q0 -45 15 -64.5t55 -19.5q31 0 50 5v-70q-29 -10 -79 -10q-76 0 -106 34.5t-30 112.5v289h-101zM198 -265h-80q50 96 50 191h84q0 -47 -14.5 -103t-39.5 -88z" />
    <glyph glyph-name="uni0237" unicode="&#x237;" horiz-adv-x="263" 
d="M87 506h95v-523q0 -51 -7 -87t-25.5 -68t-56.5 -48t-95 -16q-3 0 -8 0.5t-6 0.5v77h14q48 0 68.5 30t20.5 90v544z" />
    <glyph glyph-name="uni0251" unicode="&#x251;" horiz-adv-x="650" 
d="M475 506h95v-373q0 -85 5 -133h-88q-5 17 -7 80q-52 -94 -192 -94q-108 0 -176.5 73.5t-68.5 189.5q0 124 76.5 197.5t181.5 73.5q122 0 174 -78v64zM141 251q0 -75 44.5 -130t121.5 -55q88 0 130 50.5t42 138.5q0 83 -41 134.5t-125 51.5q-82 0 -127 -55.5t-45 -134.5z
" />
    <glyph glyph-name="uni0259" unicode="&#x259;" horiz-adv-x="601" 
d="M35 275h425q-4 74 -51 121t-122 47q-105 0 -150 -81h-95q24 66 85 112t165 46q65 0 117 -22.5t83.5 -60.5t47.5 -84.5t16 -98.5q0 -116 -72 -192t-190 -76q-69 0 -121 23.5t-81.5 63t-43.5 84t-14 93.5q0 15 1 25zM458 207h-325q2 -26 10 -49t25.5 -46.5t50 -37.5
t76.5 -14q74 0 115 40.5t48 106.5z" />
    <glyph glyph-name="uni0261" unicode="&#x261;" horiz-adv-x="650" 
d="M569 359v-293q0 -151 -61 -226.5t-211 -75.5q-70 0 -120.5 18t-76 48t-36.5 55t-16 53h97q29 -97 157 -97q54 0 89.5 16t53 48t24 68t6.5 88v28q-51 -98 -190 -98q-106 0 -174 73.5t-68 182.5q0 119 74.5 196t179.5 77q78 0 121 -27.5t57 -64.5q0 57 3 78h92
q-1 -49 -1 -147zM140 251q0 -78 47 -129t121 -51q80 0 124.5 48.5t44.5 137.5q0 88 -43 135.5t-121 47.5q-83 0 -128 -56t-45 -133z" />
    <glyph glyph-name="uni02BB" unicode="&#x2bb;" horiz-adv-x="352" 
d="M174 752h78q-45 -145 -54 -294h-98q5 63 27.5 151.5t46.5 142.5z" />
    <glyph glyph-name="uni02BC" unicode="&#x2bc;" horiz-adv-x="352" 
d="M179 457h-79q47 151 54 295h98q-5 -63 -27.5 -152t-45.5 -143z" />
    <glyph glyph-name="uni02BE" unicode="&#x2be;" horiz-adv-x="323" 
d="M101 604q25 2 40 15t15 37q0 43 -56 50v56q52 0 87.5 -29.5t35.5 -76.5q0 -48 -35.5 -78.5t-86.5 -30.5v57z" />
    <glyph glyph-name="uni02BF" unicode="&#x2bf;" horiz-adv-x="323" 
d="M223 602v-57q-52 0 -87.5 29.5t-35.5 76.5q0 49 35.5 79.5t87.5 30.5v-57q-56 -3 -56 -52q0 -44 56 -50z" />
    <glyph glyph-name="circumflex" unicode="&#x2c6;" 
d="M152 761h96l130 -161h-89l-90 110l-87 -110h-90z" />
    <glyph glyph-name="caron" unicode="&#x2c7;" 
d="M248 593h-96l-130 161h89l90 -110l87 110h90z" />
    <glyph glyph-name="uni02C8" unicode="&#x2c8;" horiz-adv-x="284" 
d="M184 557h-84v192h84v-192z" />
    <glyph glyph-name="uni02C9" unicode="&#x2c9;" horiz-adv-x="502" 
d="M100 719h301v-73h-301v73z" />
    <glyph glyph-name="uni02CA" unicode="&#x2ca;" horiz-adv-x="445" 
d="M243 762h115l-164 -160h-89z" />
    <glyph glyph-name="uni02CB" unicode="&#x2cb;" horiz-adv-x="446" 
d="M85 762h115l141 -160h-90z" />
    <glyph glyph-name="uni02CC" unicode="&#x2cc;" horiz-adv-x="284" 
d="M184 -243h-84v192h84v-192z" />
    <glyph glyph-name="breve" unicode="&#x2d8;" 
d="M37 750h70q18 -81 92 -81q44 0 64.5 22t29.5 59h69q-9 -67 -50.5 -109t-112.5 -42q-77 0 -117 43.5t-45 107.5z" />
    <glyph glyph-name="dotaccent" unicode="&#x2d9;" 
d="M248 638h-96v114h96v-114z" />
    <glyph glyph-name="ring" unicode="&#x2da;" 
d="M200 572q-52 0 -82.5 29.5t-30.5 73.5q0 45 30 75.5t83 30.5q52 0 82 -29.5t30 -74.5t-30.5 -75t-81.5 -30zM200 621q26 0 40.5 16t14.5 39t-14 40t-41 17t-41 -16t-14 -39q0 -24 14 -40.5t41 -16.5z" />
    <glyph glyph-name="ogonek" unicode="&#x2db;" 
d="M210 18l70 -18q-65 -53 -65 -107q0 -28 17.5 -42.5t46.5 -14.5q33 0 60 10v-70q-31 -16 -84 -16q-60 0 -92.5 31t-32.5 83q0 40 23 79t57 65z" />
    <glyph glyph-name="tilde" unicode="&#x2dc;" 
d="M95 611h-64v25q0 104 87 104q35 0 86 -28t70 -28q32 0 32 47v13h63v-23q0 -111 -87 -111q-35 0 -85 29t-71 29q-31 0 -31 -39v-18z" />
    <glyph glyph-name="hungarumlaut" unicode="&#x2dd;" 
d="M136 585h-76l115 167h91zM320 585h-75l114 167h92z" />
    <glyph glyph-name="uni0300" unicode="&#x300;" horiz-adv-x="0" 
d="M-135 762h115l141 -160h-90z" />
    <glyph glyph-name="uni0301" unicode="&#x301;" horiz-adv-x="0" 
d="M17 762h115l-164 -160h-89z" />
    <glyph glyph-name="uni0302" unicode="&#x302;" horiz-adv-x="0" 
d="M-48 761h96l130 -161h-89l-90 110l-87 -110h-90z" />
    <glyph glyph-name="uni0303" unicode="&#x303;" horiz-adv-x="0" 
d="M-105 611h-64v25q0 104 87 104q35 0 86 -28t70 -28q32 0 32 47v13h63v-23q0 -111 -87 -111q-35 0 -85 29t-71 29q-31 0 -31 -39v-18z" />
    <glyph glyph-name="uni0304" unicode="&#x304;" horiz-adv-x="0" 
d="M-151 719h301v-73h-301v73z" />
    <glyph glyph-name="uni0306" unicode="&#x306;" horiz-adv-x="0" 
d="M-163 750h70q18 -81 92 -81q44 0 64.5 22t29.5 59h69q-9 -67 -50.5 -109t-112.5 -42q-77 0 -117 43.5t-45 107.5z" />
    <glyph glyph-name="uni0307" unicode="&#x307;" horiz-adv-x="0" 
d="M48 638h-96v114h96v-114z" />
    <glyph glyph-name="uni0308" unicode="&#x308;" horiz-adv-x="0" 
d="M-59 638h-86v114h86v-114zM145 638h-87v114h87v-114z" />
    <glyph glyph-name="uni0309" unicode="&#x309;" horiz-adv-x="0" 
d="M42 585h-84q61 52 61 87q0 39 -43 39q-35 0 -63 -18l-20 53q44 29 102 29q50 0 77 -24.5t27 -64.5q0 -49 -57 -101z" />
    <glyph glyph-name="uni030A" unicode="&#x30a;" horiz-adv-x="0" 
d="M0 572q-52 0 -82.5 29.5t-30.5 73.5q0 45 30 75.5t83 30.5q52 0 82 -29.5t30 -74.5t-30.5 -75t-81.5 -30zM0 621q26 0 40.5 16t14.5 39t-14 40t-41 17t-41 -16t-14 -39q0 -24 14 -40.5t41 -16.5z" />
    <glyph glyph-name="uni030B" unicode="&#x30b;" horiz-adv-x="0" 
d="M-114 585h-76l115 167h91zM70 585h-75l114 167h92z" />
    <glyph glyph-name="uni030C" unicode="&#x30c;" horiz-adv-x="0" 
d="M48 593h-96l-130 161h89l90 -110l87 110h90z" />
    <glyph glyph-name="uni031B" unicode="&#x31b;" horiz-adv-x="0" 
d="M-43 448l-27 62q83 8 83 80q0 31 -10 58h88q7 -20 7 -57q0 -57 -36 -97t-105 -46z" />
    <glyph glyph-name="uni0323" unicode="&#x323;" horiz-adv-x="0" 
d="M48 -196h-96v117h96v-117z" />
    <glyph glyph-name="uni0324" unicode="&#x324;" horiz-adv-x="0" 
d="M-59 -184h-86v114h86v-114zM145 -184h-87v114h87v-114z" />
    <glyph glyph-name="uni0326" unicode="&#x326;" horiz-adv-x="0" 
d="M13 -265h-80q50 96 50 191h84q0 -47 -14.5 -103t-39.5 -88z" />
    <glyph glyph-name="uni0327" unicode="&#x327;" horiz-adv-x="0" 
d="M-13 10l66 -10l-47 -56q44 -5 78 -27t34 -66q0 -56 -42.5 -79t-98.5 -23q-49 0 -84 11v59q40 -9 73 -9q71 0 71 38q0 45 -126 45v28z" />
    <glyph glyph-name="uni0328" unicode="&#x328;" horiz-adv-x="0" 
d="M-15 18l70 -18q-65 -53 -65 -107q0 -28 17.5 -42.5t46.5 -14.5q33 0 60 10v-70q-31 -16 -84 -16q-60 0 -92.5 31t-32.5 83q0 40 23 79t57 65z" />
    <glyph glyph-name="uni032E" unicode="&#x32e;" horiz-adv-x="0" 
d="M-163 -66h70q18 -81 92 -81q44 0 64.5 22t29.5 59h69q-9 -67 -50.5 -109t-112.5 -42q-77 0 -117 43.5t-45 107.5z" />
    <glyph glyph-name="uni0331" unicode="&#x331;" horiz-adv-x="0" 
d="M-151 -96h301v-73h-301v73z" />
    <glyph glyph-name="pi" unicode="&#x3c0;" horiz-adv-x="602" 
d="M410 0v431h-230v-431h-92v431q-75 0 -92 -3v71q29 7 165 7h429v-75h-84v-431h-96z" />
    <glyph glyph-name="uni1E0C" unicode="&#x1e0c;" horiz-adv-x="811" 
d="M100 0v710h292q168 0 265.5 -96.5t97.5 -246.5q0 -167 -103.5 -267t-261.5 -100h-290zM201 628v-545h169q136 0 207.5 77t71.5 204q0 122 -73 192.5t-198 71.5h-177zM416 -196h-96v117h96v-117z" />
    <glyph glyph-name="uni1E0D" unicode="&#x1e0d;" horiz-adv-x="651" 
d="M475 752h95v-605q0 -98 1 -147h-92q-4 28 -4 77q-25 -41 -66 -66t-120 -25q-110 0 -178 73.5t-68 189.5q0 120 77 195.5t181 75.5q125 0 174 -78v310zM141 251q0 -75 44.5 -130t123.5 -55q87 0 128.5 50.5t41.5 138.5q0 89 -38.5 137.5t-128.5 48.5q-81 0 -126 -56
t-45 -134zM373 -196h-96v117h96v-117z" />
    <glyph glyph-name="uni1E0E" unicode="&#x1e0e;" horiz-adv-x="811" 
d="M100 0v710h292q168 0 265.5 -96.5t97.5 -246.5q0 -167 -103.5 -267t-261.5 -100h-290zM201 628v-545h169q136 0 207.5 77t71.5 204q0 122 -73 192.5t-198 71.5h-177zM224 -96h301v-73h-301v73z" />
    <glyph glyph-name="uni1E0F" unicode="&#x1e0f;" horiz-adv-x="651" 
d="M475 752h95v-605q0 -98 1 -147h-92q-4 28 -4 77q-25 -41 -66 -66t-120 -25q-110 0 -178 73.5t-68 189.5q0 120 77 195.5t181 75.5q125 0 174 -78v310zM141 251q0 -75 44.5 -130t123.5 -55q87 0 128.5 50.5t41.5 138.5q0 89 -38.5 137.5t-128.5 48.5q-81 0 -126 -56
t-45 -134zM174 -96h301v-73h-301v73z" />
    <glyph glyph-name="uni1E20" unicode="&#x1e20;" horiz-adv-x="842" 
d="M761 389v-389h-77q-8 48 -8 105q-37 -60 -98 -90t-161 -30q-167 0 -264 100.5t-97 267.5q0 161 102.5 266.5t276.5 105.5q146 0 226.5 -61t103.5 -152h-104q-53 131 -227 131q-129 0 -200.5 -80t-71.5 -204q0 -130 71 -210.5t199 -80.5q112 0 172 55.5t60 159.5v21h-230
v85h327zM263 887h322v-72h-322v72z" />
    <glyph glyph-name="uni1E21" unicode="&#x1e21;" horiz-adv-x="650" 
d="M569 359v-293q0 -151 -61 -226.5t-211 -75.5q-70 0 -120.5 18t-76 48t-36.5 55t-16 53h97q29 -97 157 -97q54 0 89.5 16t53 48t24 68t6.5 88v28q-51 -98 -190 -98q-106 0 -174 73.5t-68 182.5q0 119 74.5 196t179.5 77q78 0 121 -27.5t57 -64.5q0 57 3 78h92
q-1 -49 -1 -147zM140 251q0 -78 47 -129t121 -51q80 0 124.5 48.5t44.5 137.5q0 88 -43 135.5t-121 47.5q-83 0 -128 -56t-45 -133zM174 719h301v-73h-301v73z" />
    <glyph glyph-name="uni1E24" unicode="&#x1e24;" horiz-adv-x="829" 
d="M100 0v710h101v-287h427v287h101v-710h-101v338h-427v-338h-101zM462 -196h-96v117h96v-117z" />
    <glyph glyph-name="uni1E25" unicode="&#x1e25;" horiz-adv-x="636" 
d="M81 752h95v-337q51 105 187 105q89 0 140.5 -54.5t51.5 -159.5v-306h-96v291q0 149 -125 149q-77 0 -117.5 -53.5t-40.5 -137.5v-249h-95v752zM366 -196h-96v117h96v-117z" />
    <glyph glyph-name="uni1E2A" unicode="&#x1e2a;" horiz-adv-x="829" 
d="M100 0v710h101v-287h427v287h101v-710h-101v338h-427v-338h-101zM251 -66h70q18 -81 92 -81q44 0 64.5 22t29.5 59h69q-9 -67 -50.5 -109t-112.5 -42q-77 0 -117 43.5t-45 107.5z" />
    <glyph glyph-name="uni1E2B" unicode="&#x1e2b;" horiz-adv-x="636" 
d="M81 752h95v-337q51 105 187 105q89 0 140.5 -54.5t51.5 -159.5v-306h-96v291q0 149 -125 149q-77 0 -117.5 -53.5t-40.5 -137.5v-249h-95v752zM155 -66h70q18 -81 92 -81q44 0 64.5 22t29.5 59h69q-9 -67 -50.5 -109t-112.5 -42q-77 0 -117 43.5t-45 107.5z" />
    <glyph glyph-name="uni1E36" unicode="&#x1e36;" horiz-adv-x="643" 
d="M100 0v710h100v-625h428l-15 -85h-513zM417 -196h-96v117h96v-117z" />
    <glyph glyph-name="uni1E37" unicode="&#x1e37;" horiz-adv-x="257" 
d="M176 0h-95v752h95v-752zM176 -196h-96v117h96v-117z" />
    <glyph glyph-name="uni1E38" unicode="&#x1e38;" horiz-adv-x="643" 
d="M100 0v710h100v-625h428l-15 -85h-513zM417 -196h-96v117h96v-117zM-6 873h322v-72h-322v72z" />
    <glyph glyph-name="uni1E39" unicode="&#x1e39;" horiz-adv-x="257" 
d="M176 0h-95v752h95v-752zM-23 892h301v-73h-301v73zM176 -196h-96v117h96v-117z" />
    <glyph glyph-name="uni1E3A" unicode="&#x1e3a;" horiz-adv-x="643" 
d="M100 0v710h100v-625h428l-15 -85h-513zM211 -96h301v-73h-301v73z" />
    <glyph glyph-name="uni1E3B" unicode="&#x1e3b;" horiz-adv-x="257" 
d="M176 0h-95v752h95v-752zM-23 -96h301v-73h-301v73z" />
    <glyph glyph-name="uni1E42" unicode="&#x1e42;" horiz-adv-x="976" 
d="M778 0v306q0 243 5 334h-1q-12 -38 -43 -116t-60 -148t-80.5 -193t-76.5 -183h-87q-29 75 -87 220t-102.5 258t-61.5 162h-1q10 -137 10 -352v-288h-93v710h144q213 -505 240 -589h1q14 39 54.5 134.5t99 234t92.5 220.5h145v-710h-98zM527 -196h-96v117h96v-117z" />
    <glyph glyph-name="uni1E43" unicode="&#x1e43;" horiz-adv-x="930" 
d="M81 0v375q0 87 -1 131h92q3 -31 3 -76q51 90 163 90q117 0 156 -97q60 97 174 97q80 0 130.5 -50.5t50.5 -156.5v-313h-95v309q0 132 -109 132q-62 0 -97.5 -42t-35.5 -122v-277h-94v313q0 128 -110 128q-68 0 -100.5 -46.5t-32.5 -124.5v-270h-94zM513 -196h-96v117h96
v-117z" />
    <glyph glyph-name="uni1E44" unicode="&#x1e44;" horiz-adv-x="840" 
d="M194 0h-94v710h120q61 -85 167 -226t175 -235t87 -126h2q-6 79 -6 320v267h94v-710h-113q-96 129 -248 340.5t-187 267.5h-2q5 -92 5 -318v-290zM468 791h-95v114h95v-114z" />
    <glyph glyph-name="uni1E45" unicode="&#x1e45;" horiz-adv-x="636" 
d="M81 0v378q0 90 -1 128h92q4 -34 4 -94q20 45 65 76.5t118 31.5q91 0 143.5 -55t52.5 -157v-308h-96v291q0 149 -126 149q-77 0 -117 -53t-40 -144v-243h-95zM369 638h-96v114h96v-114z" />
    <glyph glyph-name="uni1E46" unicode="&#x1e46;" horiz-adv-x="840" 
d="M194 0h-94v710h120q61 -85 167 -226t175 -235t87 -126h2q-6 79 -6 320v267h94v-710h-113q-96 129 -248 340.5t-187 267.5h-2q5 -92 5 -318v-290zM468 -196h-96v117h96v-117z" />
    <glyph glyph-name="uni1E47" unicode="&#x1e47;" horiz-adv-x="636" 
d="M81 0v378q0 90 -1 128h92q4 -34 4 -94q20 45 65 76.5t118 31.5q91 0 143.5 -55t52.5 -157v-308h-96v291q0 149 -126 149q-77 0 -117 -53t-40 -144v-243h-95zM366 -196h-96v117h96v-117z" />
    <glyph glyph-name="uni1E48" unicode="&#x1e48;" horiz-adv-x="840" 
d="M194 0h-94v710h120q61 -85 167 -226t175 -235t87 -126h2q-6 79 -6 320v267h94v-710h-113q-96 129 -248 340.5t-187 267.5h-2q5 -92 5 -318v-290zM269 -96h301v-73h-301v73z" />
    <glyph glyph-name="uni1E49" unicode="&#x1e49;" horiz-adv-x="636" 
d="M81 0v378q0 90 -1 128h92q4 -34 4 -94q20 45 65 76.5t118 31.5q91 0 143.5 -55t52.5 -157v-308h-96v291q0 149 -126 149q-77 0 -117 -53t-40 -144v-243h-95zM167 -96h301v-73h-301v73z" />
    <glyph glyph-name="uni1E5A" unicode="&#x1e5a;" horiz-adv-x="749" 
d="M395 306h-195v-306h-99v710h339q111 0 177 -50t66 -142q0 -136 -130 -170q111 -31 111 -173v-31q0 -114 8 -144h-102q-9 25 -9 145v23q0 79 -36 108.5t-130 29.5zM200 628v-240h214q166 0 166 124q0 116 -162 116h-218zM422 -196h-96v117h96v-117z" />
    <glyph glyph-name="uni1E5B" unicode="&#x1e5b;" horiz-adv-x="399" 
d="M81 0v368q0 92 -1 138h93q3 -45 3 -114q25 60 78.5 94.5t126.5 33.5v-91q-91 1 -148 -55t-57 -163v-211h-95zM177 -196h-96v117h96v-117z" />
    <glyph glyph-name="uni1E5C" unicode="&#x1e5c;" horiz-adv-x="749" 
d="M395 306h-195v-306h-99v710h339q111 0 177 -50t66 -142q0 -136 -130 -170q111 -31 111 -173v-31q0 -114 8 -144h-102q-9 25 -9 145v23q0 79 -36 108.5t-130 29.5zM200 628v-240h214q166 0 166 124q0 116 -162 116h-218zM421 -196h-96v117h96v-117zM212 872h322v-72h-322
v72z" />
    <glyph glyph-name="uni1E5D" unicode="&#x1e5d;" horiz-adv-x="399" 
d="M81 0v368q0 92 -1 138h93q3 -45 3 -114q25 60 78.5 94.5t126.5 33.5v-91q-91 1 -148 -55t-57 -163v-211h-95zM75 719h301v-73h-301v73zM177 -196h-96v117h96v-117z" />
    <glyph glyph-name="uni1E5E" unicode="&#x1e5e;" horiz-adv-x="749" 
d="M395 306h-195v-306h-99v710h339q111 0 177 -50t66 -142q0 -136 -130 -170q111 -31 111 -173v-31q0 -114 8 -144h-102q-9 25 -9 145v23q0 79 -36 108.5t-130 29.5zM200 628v-240h214q166 0 166 124q0 116 -162 116h-218zM226 -96h301v-73h-301v73z" />
    <glyph glyph-name="uni1E5F" unicode="&#x1e5f;" horiz-adv-x="399" 
d="M81 0v368q0 92 -1 138h93q3 -45 3 -114q25 60 78.5 94.5t126.5 33.5v-91q-91 1 -148 -55t-57 -163v-211h-95zM-15 -96h301v-73h-301v73z" />
    <glyph glyph-name="uni1E60" unicode="&#x1e60;" horiz-adv-x="724" 
d="M42 207h103q44 -142 226 -142q99 0 146.5 33t47.5 87q0 56 -46 89t-177 55q-151 26 -207.5 73.5t-56.5 126.5q0 91 76.5 143.5t196.5 52.5q66 0 118 -13.5t83 -33.5t52 -47.5t29 -50.5t11 -48h-101q-7 23 -16.5 39t-29.5 35t-58 29t-91 10q-78 0 -123 -27t-45 -79
q0 -48 38.5 -75.5t152.5 -46.5q93 -16 154 -38.5t91 -52.5t41 -60t11 -71q0 -91 -76 -150.5t-228 -59.5q-143 0 -223 59.5t-99 162.5zM410 791h-95v114h95v-114z" />
    <glyph glyph-name="uni1E61" unicode="&#x1e61;" horiz-adv-x="561" 
d="M34 153h96q28 -95 161 -95q131 0 131 80q0 35 -31.5 55t-122.5 31q-122 15 -166.5 53t-44.5 94q0 59 51.5 104t162.5 45q62 0 108 -14.5t71 -38.5t36.5 -48t14.5 -50h-96q-19 80 -139 80q-63 0 -88.5 -20.5t-25.5 -48.5q0 -31 28.5 -48t111.5 -28q69 -9 115 -24.5t69 -37
t32 -44t9 -53.5q0 -72 -57.5 -115.5t-174.5 -43.5q-110 0 -174 43.5t-77 123.5zM328 638h-96v114h96v-114z" />
    <glyph glyph-name="uni1E62" unicode="&#x1e62;" horiz-adv-x="724" 
d="M42 207h103q44 -142 226 -142q99 0 146.5 33t47.5 87q0 56 -46 89t-177 55q-151 26 -207.5 73.5t-56.5 126.5q0 91 76.5 143.5t196.5 52.5q66 0 118 -13.5t83 -33.5t52 -47.5t29 -50.5t11 -48h-101q-7 23 -16.5 39t-29.5 35t-58 29t-91 10q-78 0 -123 -27t-45 -79
q0 -48 38.5 -75.5t152.5 -46.5q93 -16 154 -38.5t91 -52.5t41 -60t11 -71q0 -91 -76 -150.5t-228 -59.5q-143 0 -223 59.5t-99 162.5zM410 -196h-96v117h96v-117z" />
    <glyph glyph-name="uni1E63" unicode="&#x1e63;" horiz-adv-x="561" 
d="M34 153h96q28 -95 161 -95q131 0 131 80q0 35 -31.5 55t-122.5 31q-122 15 -166.5 53t-44.5 94q0 59 51.5 104t162.5 45q62 0 108 -14.5t71 -38.5t36.5 -48t14.5 -50h-96q-19 80 -139 80q-63 0 -88.5 -20.5t-25.5 -48.5q0 -31 28.5 -48t111.5 -28q69 -9 115 -24.5t69 -37
t32 -44t9 -53.5q0 -72 -57.5 -115.5t-174.5 -43.5q-110 0 -174 43.5t-77 123.5zM328 -196h-96v117h96v-117z" />
    <glyph glyph-name="uni1E6C" unicode="&#x1e6c;" horiz-adv-x="662" 
d="M281 0v625h-271v85h642v-85h-270v-625h-101zM378 -196h-96v117h96v-117z" />
    <glyph glyph-name="uni1E6D" unicode="&#x1e6d;" horiz-adv-x="371" 
d="M16 431v75h101v163h95v-163h132v-75h-132v-277q0 -45 15 -64.5t55 -19.5q31 0 50 5v-70q-29 -10 -79 -10q-76 0 -106 34.5t-30 112.5v289h-101zM250 -196h-96v117h96v-117z" />
    <glyph glyph-name="uni1E6E" unicode="&#x1e6e;" horiz-adv-x="662" 
d="M281 0v625h-271v85h642v-85h-270v-625h-101zM179 -96h301v-73h-301v73z" />
    <glyph glyph-name="uni1E6F" unicode="&#x1e6f;" horiz-adv-x="371" 
d="M16 431v75h101v163h95v-163h132v-75h-132v-277q0 -45 15 -64.5t55 -19.5q31 0 50 5v-70q-29 -10 -79 -10q-76 0 -106 34.5t-30 112.5v289h-101zM54 -96h301v-73h-301v73z" />
    <glyph glyph-name="Wgrave" unicode="&#x1e80;" horiz-adv-x="1083" 
d="M349 0h-107l-221 710h106q162 -532 175 -613h1q18 92 188 613h101q166 -528 182 -611h2q16 80 186 611h102l-236 -710h-110q-163 515 -182 603h-1q-17 -84 -186 -603zM295 918h133l171 -139h-98z" />
    <glyph glyph-name="wgrave" unicode="&#x1e81;" horiz-adv-x="853" 
d="M19 506h99q111 -358 125 -421h1q16 63 139 421h91q124 -359 136 -415h1q24 98 128 415h94l-175 -506h-98q-127 370 -135 398h-1q-27 -100 -136 -398h-102zM224 762h115l141 -160h-90z" />
    <glyph glyph-name="Wacute" unicode="&#x1e82;" horiz-adv-x="1083" 
d="M349 0h-107l-221 710h106q162 -532 175 -613h1q18 92 188 613h101q166 -528 182 -611h2q16 80 186 611h102l-236 -710h-110q-163 515 -182 603h-1q-17 -84 -186 -603zM650 918h129l-198 -139h-100z" />
    <glyph glyph-name="wacute" unicode="&#x1e83;" horiz-adv-x="853" 
d="M19 506h99q111 -358 125 -421h1q16 63 139 421h91q124 -359 136 -415h1q24 98 128 415h94l-175 -506h-98q-127 370 -135 398h-1q-27 -100 -136 -398h-102zM513 762h115l-164 -160h-89z" />
    <glyph glyph-name="Wdieresis" unicode="&#x1e84;" horiz-adv-x="1083" 
d="M349 0h-107l-221 710h106q162 -532 175 -613h1q18 92 188 613h101q166 -528 182 -611h2q16 80 186 611h102l-236 -710h-110q-163 515 -182 603h-1q-17 -84 -186 -603zM476 788h-87v114h87v-114zM694 788h-87v114h87v-114z" />
    <glyph glyph-name="wdieresis" unicode="&#x1e85;" horiz-adv-x="853" 
d="M19 506h99q111 -358 125 -421h1q16 63 139 421h91q124 -359 136 -415h1q24 98 128 415h94l-175 -506h-98q-127 370 -135 398h-1q-27 -100 -136 -398h-102zM367 638h-86v114h86v-114zM571 638h-87v114h87v-114z" />
    <glyph glyph-name="uni1E8E" unicode="&#x1e8e;" horiz-adv-x="669" 
d="M385 0h-100v270q0 10 -7 18l-298 422h120q22 -32 85.5 -123.5t101 -147t52.5 -81.5q33 57 238 352h111l-298 -424q-5 -10 -5 -17v-269zM382 785h-95v114h95v-114z" />
    <glyph glyph-name="uni1E8F" unicode="&#x1e8f;" horiz-adv-x="582" 
d="M15 506h104q151 -346 181 -433h2q79 220 166 433h99l-199 -480q-68 -167 -112 -214.5t-137 -47.5q-41 0 -66 6v83q25 -4 55 -4q51 0 78.5 26t62.5 102zM339 638h-96v114h96v-114z" />
    <glyph glyph-name="uni1E92" unicode="&#x1e92;" horiz-adv-x="690" 
d="M24 0v73l496 554h-473v83h604v-77l-492 -550h516l-14 -83h-637zM392 -196h-96v117h96v-117z" />
    <glyph glyph-name="uni1E93" unicode="&#x1e93;" horiz-adv-x="546" 
d="M35 0v71l351 358h-332v77h454v-73l-347 -355h370l-15 -78h-481zM327 -196h-96v117h96v-117z" />
    <glyph glyph-name="uni1E97" unicode="&#x1e97;" horiz-adv-x="371" 
d="M16 431v75h101v163h95v-163h132v-75h-132v-277q0 -45 15 -64.5t55 -19.5q31 0 50 5v-70q-29 -10 -79 -10q-76 0 -106 34.5t-30 112.5v289h-101zM104 718h-86v114h86v-114zM308 718h-87v114h87v-114z" />
    <glyph glyph-name="uni1E9E" unicode="&#x1e9e;" horiz-adv-x="768" 
d="M201 485v-485h-99v510q0 109 76 162t207 53q68 0 121 -13.5t84.5 -34t52 -47.5t28 -52t7.5 -49q0 -22 -2 -33l-204 -95v-2l85 -37q93 -41 129.5 -86t36.5 -108q0 -85 -63 -133.5t-175 -48.5q-138 0 -210 67v102q38 -43 95 -68t115 -25q68 0 104.5 26.5t36.5 72.5
q0 37 -26.5 65.5t-96.5 59.5l-132 59q-31 13 -31.5 42t29.5 45l208 102q0 45 -50 79.5t-141 34.5q-94 0 -139.5 -36t-45.5 -127z" />
    <glyph glyph-name="uni1EA0" unicode="&#x1ea0;" horiz-adv-x="768" 
d="M552 215h-344l-92 -215h-104l305 710h122l318 -710h-110zM239 301h280q-127 286 -144 337h-1q-28 -86 -135 -337zM428 -196h-96v117h96v-117z" />
    <glyph glyph-name="uni1EA1" unicode="&#x1ea1;" horiz-adv-x="606" 
d="M524 347v-222q0 -95 5 -125h-91q-2 10 -6 74q-44 -88 -191 -88q-99 0 -147.5 49t-48.5 114q0 165 263 165h123v27q0 107 -132 107q-66 0 -93 -23.5t-37 -65.5h-95q3 28 14 54t35 51.5t69 40.5t107 15q225 0 225 -173zM431 225v22h-121q-89 0 -130 -22t-41 -72
q0 -40 30.5 -66t90.5 -26q171 0 171 164zM353 -196h-96v117h96v-117z" />
    <glyph glyph-name="uni1EA2" unicode="&#x1ea2;" horiz-adv-x="768" 
d="M552 215h-344l-92 -215h-104l305 710h122l318 -710h-110zM239 301h280q-127 286 -144 337h-1q-28 -86 -135 -337zM419 769h-84q61 52 61 87q0 39 -43 39q-35 0 -63 -18l-20 53q44 29 102 29q50 0 77 -24.5t27 -64.5q0 -49 -57 -101z" />
    <glyph glyph-name="uni1EA3" unicode="&#x1ea3;" horiz-adv-x="606" 
d="M524 347v-222q0 -95 5 -125h-91q-2 10 -6 74q-44 -88 -191 -88q-99 0 -147.5 49t-48.5 114q0 165 263 165h123v27q0 107 -132 107q-66 0 -93 -23.5t-37 -65.5h-95q3 28 14 54t35 51.5t69 40.5t107 15q225 0 225 -173zM431 225v22h-121q-89 0 -130 -22t-41 -72
q0 -40 30.5 -66t90.5 -26q171 0 171 164zM341 585h-84q61 52 61 87q0 39 -43 39q-35 0 -63 -18l-20 53q44 29 102 29q50 0 77 -24.5t27 -64.5q0 -49 -57 -101z" />
    <glyph glyph-name="uni1EA4" unicode="&#x1ea4;" horiz-adv-x="768" 
d="M552 215h-344l-92 -215h-104l305 710h122l318 -710h-110zM239 301h280q-127 286 -144 337h-1q-28 -86 -135 -337zM321 899h115l143 -128h-105l-96 82l-93 -82h-106zM636 1005h110l-141 -121h-88z" />
    <glyph glyph-name="uni1EA5" unicode="&#x1ea5;" horiz-adv-x="606" 
d="M524 347v-222q0 -95 5 -125h-91q-2 10 -6 74q-44 -88 -191 -88q-99 0 -147.5 49t-48.5 114q0 165 263 165h123v27q0 107 -132 107q-66 0 -93 -23.5t-37 -65.5h-95q3 28 14 54t35 51.5t69 40.5t107 15q225 0 225 -173zM431 225v22h-121q-89 0 -130 -22t-41 -72
q0 -40 30.5 -66t90.5 -26q171 0 171 164zM251 729h95l124 -137h-91l-81 88l-79 -88h-89zM527 837h99l-130 -130h-80z" />
    <glyph glyph-name="uni1EA6" unicode="&#x1ea6;" horiz-adv-x="768" 
d="M552 215h-344l-92 -215h-104l305 710h122l318 -710h-110zM239 301h280q-127 286 -144 337h-1q-28 -86 -135 -337zM322 898h112l145 -128h-105l-96 80l-93 -80h-106zM465 983l114 -1l130 -124h-90z" />
    <glyph glyph-name="uni1EA7" unicode="&#x1ea7;" horiz-adv-x="606" 
d="M524 347v-222q0 -95 5 -125h-91q-2 10 -6 74q-44 -88 -191 -88q-99 0 -147.5 49t-48.5 114q0 165 263 165h123v27q0 107 -132 107q-66 0 -93 -23.5t-37 -65.5h-95q3 28 14 54t35 51.5t69 40.5t107 15q225 0 225 -173zM431 225v22h-121q-89 0 -130 -22t-41 -72
q0 -40 30.5 -66t90.5 -26q171 0 171 164zM252 731h94l124 -137h-89l-83 89l-80 -89h-88zM360 832h98l111 -133h-77z" />
    <glyph glyph-name="uni1EA8" unicode="&#x1ea8;" horiz-adv-x="768" 
d="M552 215h-344l-92 -215h-104l305 710h122l318 -710h-110zM239 301h280q-127 286 -144 337h-1q-28 -86 -135 -337zM616 867h-78q59 47 59 83q0 33 -40 33q-35 0 -62 -17l-18 51q39 29 99 29q46 0 72 -22.5t26 -61.5q0 -52 -58 -95zM321 898h115l143 -128h-105l-96 81
l-93 -81h-106z" />
    <glyph glyph-name="uni1EA9" unicode="&#x1ea9;" horiz-adv-x="606" 
d="M524 347v-222q0 -95 5 -125h-91q-2 10 -6 74q-44 -88 -191 -88q-99 0 -147.5 49t-48.5 114q0 165 263 165h123v27q0 107 -132 107q-66 0 -93 -23.5t-37 -65.5h-95q3 28 14 54t35 51.5t69 40.5t107 15q225 0 225 -173zM431 225v22h-121q-89 0 -130 -22t-41 -72
q0 -40 30.5 -66t90.5 -26q171 0 171 164zM497 700h-74q59 46 59 80q0 33 -38 33q-35 0 -60 -20l-20 44q37 33 93 33q90 0 90 -80q0 -50 -50 -90zM250 729h95l124 -137h-89l-83 90l-80 -90h-88z" />
    <glyph glyph-name="uni1EAA" unicode="&#x1eaa;" horiz-adv-x="768" 
d="M552 215h-344l-92 -215h-104l305 710h122l318 -710h-110zM239 301h280q-127 286 -144 337h-1q-28 -86 -135 -337zM272 915h-57v15q0 89 84 89q33 0 83 -21t69 -21q32 0 32 33v9h58v-12q0 -45 -22.5 -68.5t-63.5 -23.5q-28 0 -77 21t-72 21q-34 0 -34 -35v-7zM327 872h98
l134 -104h-102l-81 58l-77 -58h-103z" />
    <glyph glyph-name="uni1EAB" unicode="&#x1eab;" horiz-adv-x="606" 
d="M524 347v-222q0 -95 5 -125h-91q-2 10 -6 74q-44 -88 -191 -88q-99 0 -147.5 49t-48.5 114q0 165 263 165h123v27q0 107 -132 107q-66 0 -93 -23.5t-37 -65.5h-95q3 28 14 54t35 51.5t69 40.5t107 15q225 0 225 -173zM431 225v22h-121q-89 0 -130 -22t-41 -72
q0 -40 30.5 -66t90.5 -26q171 0 171 164zM204 727h-56v12q0 47 21.5 69t57.5 22q33 0 77 -19.5t57 -19.5q32 0 32 29v8h56v-13q0 -88 -81 -88q-28 0 -72 20t-61 20q-31 0 -31 -33v-7zM243 683h108l114 -102h-94l-75 62l-71 -62h-93z" />
    <glyph glyph-name="uni1EAC" unicode="&#x1eac;" horiz-adv-x="768" 
d="M552 215h-344l-92 -215h-104l305 710h122l318 -710h-110zM239 301h280q-127 286 -144 337h-1q-28 -86 -135 -337zM428 -196h-96v117h96v-117zM322 909h112l146 -138h-101l-102 91l-101 -91h-99z" />
    <glyph glyph-name="uni1EAD" unicode="&#x1ead;" horiz-adv-x="606" 
d="M524 347v-222q0 -95 5 -125h-91q-2 10 -6 74q-44 -88 -191 -88q-99 0 -147.5 49t-48.5 114q0 165 263 165h123v27q0 107 -132 107q-66 0 -93 -23.5t-37 -65.5h-95q3 28 14 54t35 51.5t69 40.5t107 15q225 0 225 -173zM431 225v22h-121q-89 0 -130 -22t-41 -72
q0 -40 30.5 -66t90.5 -26q171 0 171 164zM355 -196h-96v117h96v-117zM257 761h96l130 -161h-89l-90 110l-87 -110h-90z" />
    <glyph glyph-name="uni1EAE" unicode="&#x1eae;" horiz-adv-x="768" 
d="M552 215h-344l-92 -215h-104l305 710h122l318 -710h-110zM239 301h280q-127 286 -144 337h-1q-28 -86 -135 -337zM208 891h73q22 -57 96 -57q76 0 97 57h72q-15 -57 -58.5 -90t-110.5 -33q-73 0 -116 36t-53 87zM439 1037h107l-134 -118h-83z" />
    <glyph glyph-name="uni1EAF" unicode="&#x1eaf;" horiz-adv-x="606" 
d="M524 347v-222q0 -95 5 -125h-91q-2 10 -6 74q-44 -88 -191 -88q-99 0 -147.5 49t-48.5 114q0 165 263 165h123v27q0 107 -132 107q-66 0 -93 -23.5t-37 -65.5h-95q3 28 14 54t35 51.5t69 40.5t107 15q225 0 225 -173zM431 225v22h-121q-89 0 -130 -22t-41 -72
q0 -40 30.5 -66t90.5 -26q171 0 171 164zM147 701h70q20 -59 88 -59q40 0 59.5 16t29.5 43h69q-13 -56 -53 -89.5t-106 -33.5q-68 0 -108 36t-49 87zM365 846h97l-125 -118h-80z" />
    <glyph glyph-name="uni1EB0" unicode="&#x1eb0;" horiz-adv-x="768" 
d="M552 215h-344l-92 -215h-104l305 710h122l318 -710h-110zM239 301h280q-127 286 -144 337h-1q-28 -86 -135 -337zM208 891h73q22 -57 96 -57q76 0 97 57h72q-15 -57 -58.5 -90t-110.5 -33q-71 0 -115 36.5t-54 86.5zM212 1037h106l111 -118h-82z" />
    <glyph glyph-name="uni1EB1" unicode="&#x1eb1;" horiz-adv-x="606" 
d="M524 347v-222q0 -95 5 -125h-91q-2 10 -6 74q-44 -88 -191 -88q-99 0 -147.5 49t-48.5 114q0 165 263 165h123v27q0 107 -132 107q-66 0 -93 -23.5t-37 -65.5h-95q3 28 14 54t35 51.5t69 40.5t107 15q225 0 225 -173zM431 225v22h-121q-89 0 -130 -22t-41 -72
q0 -40 30.5 -66t90.5 -26q171 0 171 164zM146 703h70q20 -59 88 -59q40 0 59.5 16t29.5 43h69q-13 -56 -53 -89.5t-106 -33.5q-68 0 -108 36t-49 87zM146 848h99l108 -118h-80z" />
    <glyph glyph-name="uni1EB2" unicode="&#x1eb2;" horiz-adv-x="768" 
d="M552 215h-344l-92 -215h-104l305 710h122l318 -710h-110zM239 301h280q-127 286 -144 337h-1q-28 -86 -135 -337zM411 904h-73q57 44 57 75q0 30 -39 30q-28 0 -57 -19l-20 43q38 32 92 32q42 0 65.5 -21t23.5 -56q0 -46 -49 -84zM207 885h71q11 -24 37.5 -40.5
t63.5 -16.5q79 0 103 57h69q-14 -49 -57.5 -84.5t-115.5 -35.5q-78 0 -120 38.5t-51 81.5z" />
    <glyph glyph-name="uni1EB3" unicode="&#x1eb3;" horiz-adv-x="606" 
d="M524 347v-222q0 -95 5 -125h-91q-2 10 -6 74q-44 -88 -191 -88q-99 0 -147.5 49t-48.5 114q0 165 263 165h123v27q0 107 -132 107q-66 0 -93 -23.5t-37 -65.5h-95q3 28 14 54t35 51.5t69 40.5t107 15q225 0 225 -173zM431 225v22h-121q-89 0 -130 -22t-41 -72
q0 -40 30.5 -66t90.5 -26q171 0 171 164zM332 712h-72q58 44 58 74q0 31 -36 31q-30 0 -56 -19l-17 45q38 31 89 31q42 0 65 -20.5t23 -55.5q0 -51 -54 -86zM145 701h70q20 -59 88 -59q40 0 59.5 16t29.5 43h69q-13 -56 -53 -89.5t-106 -33.5q-68 0 -108 36t-49 87z" />
    <glyph glyph-name="uni1EB4" unicode="&#x1eb4;" horiz-adv-x="768" 
d="M552 215h-344l-92 -215h-104l305 710h122l318 -710h-110zM239 301h280q-127 286 -144 337h-1q-28 -86 -135 -337zM273 912h-55v11q0 44 22 63.5t58 19.5q32 0 87 -19t70 -19q32 0 32 29v9h55v-11q0 -41 -22 -62t-59 -21q-28 0 -83 20t-73 20q-32 0 -32 -33v-7zM216 867
h67q9 -17 34.5 -30t61.5 -13q77 0 98 43h64q-13 -43 -53.5 -72t-109.5 -29q-70 0 -110.5 31t-51.5 70z" />
    <glyph glyph-name="uni1EB5" unicode="&#x1eb5;" horiz-adv-x="606" 
d="M524 347v-222q0 -95 5 -125h-91q-2 10 -6 74q-44 -88 -191 -88q-99 0 -147.5 49t-48.5 114q0 165 263 165h123v27q0 107 -132 107q-66 0 -93 -23.5t-37 -65.5h-95q3 28 14 54t35 51.5t69 40.5t107 15q225 0 225 -173zM431 225v22h-121q-89 0 -130 -22t-41 -72
q0 -40 30.5 -66t90.5 -26q171 0 171 164zM210 736h-56v11q0 91 79 91q33 0 77 -19.5t57 -19.5q32 0 32 29v9h56v-13q0 -89 -81 -89q-28 0 -72 20.5t-61 20.5q-31 0 -31 -34v-6zM146 689h70q20 -50 88 -50q64 0 90 50h68q-13 -50 -53.5 -81.5t-105.5 -31.5q-67 0 -106.5 32.5
t-50.5 80.5z" />
    <glyph glyph-name="uni1EB6" unicode="&#x1eb6;" horiz-adv-x="768" 
d="M552 215h-344l-92 -215h-104l305 710h122l318 -710h-110zM239 301h280q-127 286 -144 337h-1q-28 -86 -135 -337zM428 -196h-96v117h96v-117zM210 911h72q8 -31 34.5 -49.5t64.5 -18.5q79 0 100 68h70q-10 -59 -54 -97.5t-117 -38.5q-79 0 -121.5 40.5t-48.5 95.5z" />
    <glyph glyph-name="uni1EB7" unicode="&#x1eb7;" horiz-adv-x="606" 
d="M524 347v-222q0 -95 5 -125h-91q-2 10 -6 74q-44 -88 -191 -88q-99 0 -147.5 49t-48.5 114q0 165 263 165h123v27q0 107 -132 107q-66 0 -93 -23.5t-37 -65.5h-95q3 28 14 54t35 51.5t69 40.5t107 15q225 0 225 -173zM431 225v22h-121q-89 0 -130 -22t-41 -72
q0 -40 30.5 -66t90.5 -26q171 0 171 164zM142 750h70q18 -81 92 -81q44 0 64.5 22t29.5 59h69q-9 -67 -50.5 -109t-112.5 -42q-77 0 -117 43.5t-45 107.5zM353 -196h-96v117h96v-117z" />
    <glyph glyph-name="uni1EB8" unicode="&#x1eb8;" horiz-adv-x="709" 
d="M627 416v-85h-426v-246h470l-14 -85h-557v710h549v-84h-448v-210h426zM429 -196h-96v117h96v-117z" />
    <glyph glyph-name="uni1EB9" unicode="&#x1eb9;" horiz-adv-x="605" 
d="M564 231h-425q4 -74 51 -121t122 -47q105 0 150 81h95q-24 -66 -85 -112t-165 -46q-65 0 -117 22.5t-83.5 60.5t-47.5 84.5t-16 98.5q0 116 72 192t190 76q69 0 121 -23.5t81.5 -63t43.5 -84t14 -93.5q0 -15 -1 -25zM141 299h325q-2 26 -10 49t-25.5 46.5t-50 37.5
t-76.5 14q-74 0 -115 -40.5t-48 -106.5zM350 -196h-96v117h96v-117z" />
    <glyph glyph-name="uni1EBA" unicode="&#x1eba;" horiz-adv-x="709" 
d="M627 416v-85h-426v-246h470l-14 -85h-557v710h549v-84h-448v-210h426zM419 775h-84q61 52 61 87q0 39 -43 39q-35 0 -63 -18l-20 53q44 29 102 29q50 0 77 -24.5t27 -64.5q0 -49 -57 -101z" />
    <glyph glyph-name="uni1EBB" unicode="&#x1ebb;" horiz-adv-x="605" 
d="M564 231h-425q4 -74 51 -121t122 -47q105 0 150 81h95q-24 -66 -85 -112t-165 -46q-65 0 -117 22.5t-83.5 60.5t-47.5 84.5t-16 98.5q0 116 72 192t190 76q69 0 121 -23.5t81.5 -63t43.5 -84t14 -93.5q0 -15 -1 -25zM141 299h325q-2 26 -10 49t-25.5 46.5t-50 37.5
t-76.5 14q-74 0 -115 -40.5t-48 -106.5zM346 585h-84q61 52 61 87q0 39 -43 39q-35 0 -63 -18l-20 53q44 29 102 29q50 0 77 -24.5t27 -64.5q0 -49 -57 -101z" />
    <glyph glyph-name="uni1EBC" unicode="&#x1ebc;" horiz-adv-x="709" 
d="M627 416v-85h-426v-246h470l-14 -85h-557v710h549v-84h-448v-210h426zM259 793h-68v23q0 107 92 107q37 0 98 -29t79 -29t25.5 10.5t7.5 38.5v11h66v-21q0 -113 -88 -113q-36 0 -97.5 30t-84.5 30q-30 0 -30 -43v-15z" />
    <glyph glyph-name="uni1EBD" unicode="&#x1ebd;" horiz-adv-x="605" 
d="M564 231h-425q4 -74 51 -121t122 -47q105 0 150 81h95q-24 -66 -85 -112t-165 -46q-65 0 -117 22.5t-83.5 60.5t-47.5 84.5t-16 98.5q0 116 72 192t190 76q69 0 121 -23.5t81.5 -63t43.5 -84t14 -93.5q0 -15 -1 -25zM141 299h325q-2 26 -10 49t-25.5 46.5t-50 37.5
t-76.5 14q-74 0 -115 -40.5t-48 -106.5zM197 611h-64v25q0 104 87 104q35 0 86 -28t70 -28q32 0 32 47v13h63v-23q0 -111 -87 -111q-35 0 -85 29t-71 29q-31 0 -31 -39v-18z" />
    <glyph glyph-name="uni1EBE" unicode="&#x1ebe;" horiz-adv-x="709" 
d="M627 416v-85h-426v-246h470l-14 -85h-557v710h549v-84h-448v-210h426zM313 906h115l143 -128h-105l-96 82l-93 -82h-106zM628 1012h110l-141 -121h-88z" />
    <glyph glyph-name="uni1EBF" unicode="&#x1ebf;" horiz-adv-x="605" 
d="M564 231h-425q4 -74 51 -121t122 -47q105 0 150 81h95q-24 -66 -85 -112t-165 -46q-65 0 -117 22.5t-83.5 60.5t-47.5 84.5t-16 98.5q0 116 72 192t190 76q69 0 121 -23.5t81.5 -63t43.5 -84t14 -93.5q0 -15 -1 -25zM141 299h325q-2 26 -10 49t-25.5 46.5t-50 37.5
t-76.5 14q-74 0 -115 -40.5t-48 -106.5zM255 729h95l124 -137h-91l-81 88l-79 -88h-89zM531 837h99l-130 -130h-80z" />
    <glyph glyph-name="uni1EC0" unicode="&#x1ec0;" horiz-adv-x="709" 
d="M627 416v-85h-426v-246h470l-14 -85h-557v710h549v-84h-448v-210h426zM314 905h112l145 -128h-105l-96 80l-93 -80h-106zM457 990l114 -1l130 -124h-90z" />
    <glyph glyph-name="uni1EC1" unicode="&#x1ec1;" horiz-adv-x="605" 
d="M564 231h-425q4 -74 51 -121t122 -47q105 0 150 81h95q-24 -66 -85 -112t-165 -46q-65 0 -117 22.5t-83.5 60.5t-47.5 84.5t-16 98.5q0 116 72 192t190 76q69 0 121 -23.5t81.5 -63t43.5 -84t14 -93.5q0 -15 -1 -25zM141 299h325q-2 26 -10 49t-25.5 46.5t-50 37.5
t-76.5 14q-74 0 -115 -40.5t-48 -106.5zM256 729h94l124 -137h-89l-83 89l-80 -89h-88zM364 830h98l111 -133h-77z" />
    <glyph glyph-name="uni1EC2" unicode="&#x1ec2;" horiz-adv-x="709" 
d="M627 416v-85h-426v-246h470l-14 -85h-557v710h549v-84h-448v-210h426zM608 873h-78q59 47 59 83q0 33 -40 33q-35 0 -62 -17l-18 51q39 29 99 29q46 0 72 -22.5t26 -61.5q0 -52 -58 -95zM313 904h115l143 -128h-105l-96 81l-93 -81h-106z" />
    <glyph glyph-name="uni1EC3" unicode="&#x1ec3;" horiz-adv-x="605" 
d="M564 231h-425q4 -74 51 -121t122 -47q105 0 150 81h95q-24 -66 -85 -112t-165 -46q-65 0 -117 22.5t-83.5 60.5t-47.5 84.5t-16 98.5q0 116 72 192t190 76q69 0 121 -23.5t81.5 -63t43.5 -84t14 -93.5q0 -15 -1 -25zM141 299h325q-2 26 -10 49t-25.5 46.5t-50 37.5
t-76.5 14q-74 0 -115 -40.5t-48 -106.5zM503 700h-74q59 46 59 80q0 33 -38 33q-35 0 -60 -20l-20 44q37 33 93 33q90 0 90 -80q0 -50 -50 -90zM256 729h95l124 -137h-89l-83 90l-80 -90h-88z" />
    <glyph glyph-name="uni1EC4" unicode="&#x1ec4;" horiz-adv-x="709" 
d="M627 416v-85h-426v-246h470l-14 -85h-557v710h549v-84h-448v-210h426zM268 918h-57v15q0 89 84 89q33 0 83 -21t69 -21q32 0 32 33v9h58v-12q0 -45 -22.5 -68.5t-63.5 -23.5q-28 0 -77 21t-72 21q-34 0 -34 -35v-7zM323 875h98l134 -104h-102l-81 58l-77 -58h-103z" />
    <glyph glyph-name="uni1EC5" unicode="&#x1ec5;" horiz-adv-x="605" 
d="M564 231h-425q4 -74 51 -121t122 -47q105 0 150 81h95q-24 -66 -85 -112t-165 -46q-65 0 -117 22.5t-83.5 60.5t-47.5 84.5t-16 98.5q0 116 72 192t190 76q69 0 121 -23.5t81.5 -63t43.5 -84t14 -93.5q0 -15 -1 -25zM141 299h325q-2 26 -10 49t-25.5 46.5t-50 37.5
t-76.5 14q-74 0 -115 -40.5t-48 -106.5zM209 727h-56v12q0 47 21.5 69t57.5 22q33 0 77 -19.5t57 -19.5q32 0 32 29v8h56v-13q0 -88 -81 -88q-28 0 -72 20t-61 20q-31 0 -31 -33v-7zM248 683h108l114 -102h-94l-75 62l-71 -62h-93z" />
    <glyph glyph-name="uni1EC6" unicode="&#x1ec6;" horiz-adv-x="709" 
d="M627 416v-85h-426v-246h470l-14 -85h-557v710h549v-84h-448v-210h426zM433 -196h-96v117h96v-117zM316 914h112l146 -138h-101l-102 91l-101 -91h-99z" />
    <glyph glyph-name="uni1EC7" unicode="&#x1ec7;" horiz-adv-x="605" 
d="M564 231h-425q4 -74 51 -121t122 -47q105 0 150 81h95q-24 -66 -85 -112t-165 -46q-65 0 -117 22.5t-83.5 60.5t-47.5 84.5t-16 98.5q0 116 72 192t190 76q69 0 121 -23.5t81.5 -63t43.5 -84t14 -93.5q0 -15 -1 -25zM141 299h325q-2 26 -10 49t-25.5 46.5t-50 37.5
t-76.5 14q-74 0 -115 -40.5t-48 -106.5zM350 -196h-96v117h96v-117zM254 761h96l130 -161h-89l-90 110l-87 -110h-90z" />
    <glyph glyph-name="uni1EC8" unicode="&#x1ec8;" horiz-adv-x="301" 
d="M100 710h101v-710h-101v710zM192 769h-84q61 52 61 87q0 39 -43 39q-35 0 -63 -18l-20 53q44 29 102 29q50 0 77 -24.5t27 -64.5q0 -49 -57 -101z" />
    <glyph glyph-name="uni1EC9" unicode="&#x1ec9;" horiz-adv-x="257" 
d="M81 0v506h95v-506h-95zM170 585h-84q61 52 61 87q0 39 -43 39q-35 0 -63 -18l-20 53q44 29 102 29q50 0 77 -24.5t27 -64.5q0 -49 -57 -101z" />
    <glyph glyph-name="uni1ECA" unicode="&#x1eca;" horiz-adv-x="301" 
d="M100 710h101v-710h-101v710zM198 -196h-96v117h96v-117z" />
    <glyph glyph-name="uni1ECB" unicode="&#x1ecb;" horiz-adv-x="257" 
d="M81 0v506h95v-506h-95zM176 638h-95v114h95v-114zM176 -196h-96v117h96v-117z" />
    <glyph glyph-name="uni1ECC" unicode="&#x1ecc;" horiz-adv-x="858" 
d="M431 725q166 0 268.5 -107.5t102.5 -260.5q0 -157 -101 -264.5t-273 -107.5q-168 0 -270 106.5t-102 266.5q0 152 104.5 259.5t270.5 107.5zM425 641q-120 0 -191.5 -81.5t-71.5 -199.5q0 -121 71.5 -206t197.5 -85q125 0 195 82t70 204q0 118 -72 202t-199 84zM471 -196
h-96v117h96v-117z" />
    <glyph glyph-name="uni1ECD" unicode="&#x1ecd;" horiz-adv-x="626" 
d="M315 520q124 0 196 -79.5t72 -187.5q0 -112 -71.5 -189.5t-201.5 -77.5q-123 0 -195 78t-72 189q0 113 74 190t198 77zM311 442q-82 0 -126 -54t-44 -135q0 -77 46.5 -133t125.5 -56q83 0 127.5 53.5t44.5 134.5q0 80 -46.5 135t-127.5 55zM361 -196h-96v117h96v-117z
" />
    <glyph glyph-name="uni1ECE" unicode="&#x1ece;" horiz-adv-x="858" 
d="M431 725q166 0 268.5 -107.5t102.5 -260.5q0 -157 -101 -264.5t-273 -107.5q-168 0 -270 106.5t-102 266.5q0 152 104.5 259.5t270.5 107.5zM425 641q-120 0 -191.5 -81.5t-71.5 -199.5q0 -121 71.5 -206t197.5 -85q125 0 195 82t70 204q0 118 -72 202t-199 84zM465 779
h-84q61 52 61 87q0 39 -43 39q-35 0 -63 -18l-20 53q44 29 102 29q50 0 77 -24.5t27 -64.5q0 -49 -57 -101z" />
    <glyph glyph-name="uni1ECF" unicode="&#x1ecf;" horiz-adv-x="626" 
d="M315 520q124 0 196 -79.5t72 -187.5q0 -112 -71.5 -189.5t-201.5 -77.5q-123 0 -195 78t-72 189q0 113 74 190t198 77zM311 442q-82 0 -126 -54t-44 -135q0 -77 46.5 -133t125.5 -56q83 0 127.5 53.5t44.5 134.5q0 80 -46.5 135t-127.5 55zM355 585h-84q61 52 61 87
q0 39 -43 39q-35 0 -63 -18l-20 53q44 29 102 29q50 0 77 -24.5t27 -64.5q0 -49 -57 -101z" />
    <glyph glyph-name="uni1ED0" unicode="&#x1ed0;" horiz-adv-x="858" 
d="M431 725q166 0 268.5 -107.5t102.5 -260.5q0 -157 -101 -264.5t-273 -107.5q-168 0 -270 106.5t-102 266.5q0 152 104.5 259.5t270.5 107.5zM425 641q-120 0 -191.5 -81.5t-71.5 -199.5q0 -121 71.5 -206t197.5 -85q125 0 195 82t70 204q0 118 -72 202t-199 84zM365 904
h115l143 -128h-105l-96 82l-93 -82h-106zM680 1010h110l-141 -121h-88z" />
    <glyph glyph-name="uni1ED1" unicode="&#x1ed1;" horiz-adv-x="626" 
d="M315 520q124 0 196 -79.5t72 -187.5q0 -112 -71.5 -189.5t-201.5 -77.5q-123 0 -195 78t-72 189q0 113 74 190t198 77zM311 442q-82 0 -126 -54t-44 -135q0 -77 46.5 -133t125.5 -56q83 0 127.5 53.5t44.5 134.5q0 80 -46.5 135t-127.5 55zM264 729h95l124 -137h-91
l-81 88l-79 -88h-89zM540 837h99l-130 -130h-80z" />
    <glyph glyph-name="uni1ED2" unicode="&#x1ed2;" horiz-adv-x="858" 
d="M431 725q166 0 268.5 -107.5t102.5 -260.5q0 -157 -101 -264.5t-273 -107.5q-168 0 -270 106.5t-102 266.5q0 152 104.5 259.5t270.5 107.5zM425 641q-120 0 -191.5 -81.5t-71.5 -199.5q0 -121 71.5 -206t197.5 -85q125 0 195 82t70 204q0 118 -72 202t-199 84zM366 904
h112l145 -128h-105l-96 80l-93 -80h-106zM509 989l114 -1l130 -124h-90z" />
    <glyph glyph-name="uni1ED3" unicode="&#x1ed3;" horiz-adv-x="626" 
d="M315 520q124 0 196 -79.5t72 -187.5q0 -112 -71.5 -189.5t-201.5 -77.5q-123 0 -195 78t-72 189q0 113 74 190t198 77zM311 442q-82 0 -126 -54t-44 -135q0 -77 46.5 -133t125.5 -56q83 0 127.5 53.5t44.5 134.5q0 80 -46.5 135t-127.5 55zM265 729h94l124 -137h-89
l-83 89l-80 -89h-88zM373 830h98l111 -133h-77z" />
    <glyph glyph-name="uni1ED4" unicode="&#x1ed4;" horiz-adv-x="858" 
d="M431 725q166 0 268.5 -107.5t102.5 -260.5q0 -157 -101 -264.5t-273 -107.5q-168 0 -270 106.5t-102 266.5q0 152 104.5 259.5t270.5 107.5zM425 641q-120 0 -191.5 -81.5t-71.5 -199.5q0 -121 71.5 -206t197.5 -85q125 0 195 82t70 204q0 118 -72 202t-199 84zM660 874
h-78q59 47 59 83q0 33 -40 33q-35 0 -62 -17l-18 51q39 29 99 29q46 0 72 -22.5t26 -61.5q0 -52 -58 -95zM365 905h115l143 -128h-105l-96 81l-93 -81h-106z" />
    <glyph glyph-name="uni1ED5" unicode="&#x1ed5;" horiz-adv-x="626" 
d="M315 520q124 0 196 -79.5t72 -187.5q0 -112 -71.5 -189.5t-201.5 -77.5q-123 0 -195 78t-72 189q0 113 74 190t198 77zM311 442q-82 0 -126 -54t-44 -135q0 -77 46.5 -133t125.5 -56q83 0 127.5 53.5t44.5 134.5q0 80 -46.5 135t-127.5 55zM511 700h-74q59 46 59 80
q0 33 -38 33q-35 0 -60 -20l-20 44q37 33 93 33q90 0 90 -80q0 -50 -50 -90zM264 729h95l124 -137h-89l-83 90l-80 -90h-88z" />
    <glyph glyph-name="uni1ED6" unicode="&#x1ed6;" horiz-adv-x="858" 
d="M431 725q166 0 268.5 -107.5t102.5 -260.5q0 -157 -101 -264.5t-273 -107.5q-168 0 -270 106.5t-102 266.5q0 152 104.5 259.5t270.5 107.5zM425 641q-120 0 -191.5 -81.5t-71.5 -199.5q0 -121 71.5 -206t197.5 -85q125 0 195 82t70 204q0 118 -72 202t-199 84zM317 921
h-57v15q0 89 84 89q33 0 83 -21t69 -21q32 0 32 33v9h58v-12q0 -45 -22.5 -68.5t-63.5 -23.5q-28 0 -77 21t-72 21q-34 0 -34 -35v-7zM372 878h98l134 -104h-102l-81 58l-77 -58h-103z" />
    <glyph glyph-name="uni1ED7" unicode="&#x1ed7;" horiz-adv-x="626" 
d="M315 520q124 0 196 -79.5t72 -187.5q0 -112 -71.5 -189.5t-201.5 -77.5q-123 0 -195 78t-72 189q0 113 74 190t198 77zM311 442q-82 0 -126 -54t-44 -135q0 -77 46.5 -133t125.5 -56q83 0 127.5 53.5t44.5 134.5q0 80 -46.5 135t-127.5 55zM219 727h-56v12q0 47 21.5 69
t57.5 22q33 0 77 -19.5t57 -19.5q32 0 32 29v8h56v-13q0 -88 -81 -88q-28 0 -72 20t-61 20q-31 0 -31 -33v-7zM258 683h108l114 -102h-94l-75 62l-71 -62h-93z" />
    <glyph glyph-name="uni1ED8" unicode="&#x1ed8;" horiz-adv-x="858" 
d="M431 725q166 0 268.5 -107.5t102.5 -260.5q0 -157 -101 -264.5t-273 -107.5q-168 0 -270 106.5t-102 266.5q0 152 104.5 259.5t270.5 107.5zM425 641q-120 0 -191.5 -81.5t-71.5 -199.5q0 -121 71.5 -206t197.5 -85q125 0 195 82t70 204q0 118 -72 202t-199 84zM471 -196
h-96v117h96v-117zM366 909h112l146 -138h-101l-102 91l-101 -91h-99z" />
    <glyph glyph-name="uni1ED9" unicode="&#x1ed9;" horiz-adv-x="626" 
d="M315 520q124 0 196 -79.5t72 -187.5q0 -112 -71.5 -189.5t-201.5 -77.5q-123 0 -195 78t-72 189q0 113 74 190t198 77zM311 442q-82 0 -126 -54t-44 -135q0 -77 46.5 -133t125.5 -56q83 0 127.5 53.5t44.5 134.5q0 80 -46.5 135t-127.5 55zM361 -196h-96v117h96v-117z
M265 761h96l130 -161h-89l-90 110l-87 -110h-90z" />
    <glyph glyph-name="uni1EDA" unicode="&#x1eda;" horiz-adv-x="858" 
d="M431 725q118 0 209 -59q68 13 68 78q0 31 -10 58h88q7 -20 7 -57q0 -45 -22.5 -80t-67.5 -52q99 -104 99 -256q0 -157 -101 -264.5t-273 -107.5q-168 0 -270 106.5t-102 266.5q0 152 104.5 259.5t270.5 107.5zM425 641q-120 0 -191.5 -81.5t-71.5 -199.5
q0 -121 71.5 -206t197.5 -85q125 0 195 82t70 204q0 118 -72 202t-199 84zM526 923h129l-198 -139h-100z" />
    <glyph glyph-name="uni1EDB" unicode="&#x1edb;" horiz-adv-x="626" 
d="M315 520q99 0 169 -55q59 15 59 76q0 31 -10 58h88q7 -20 7 -57q0 -99 -92 -133q47 -68 47 -156q0 -112 -71.5 -189.5t-201.5 -77.5q-123 0 -195 78t-72 189q0 113 74 190t198 77zM311 442q-82 0 -126 -54t-44 -135q0 -77 46.5 -133t125.5 -56q83 0 127.5 53.5
t44.5 134.5q0 80 -46.5 135t-127.5 55zM389 762h115l-164 -160h-89z" />
    <glyph glyph-name="uni1EDC" unicode="&#x1edc;" horiz-adv-x="858" 
d="M431 725q118 0 209 -59q68 13 68 78q0 31 -10 58h88q7 -20 7 -57q0 -45 -22.5 -80t-67.5 -52q99 -104 99 -256q0 -157 -101 -264.5t-273 -107.5q-168 0 -270 106.5t-102 266.5q0 152 104.5 259.5t270.5 107.5zM425 641q-120 0 -191.5 -81.5t-71.5 -199.5
q0 -121 71.5 -206t197.5 -85q125 0 195 82t70 204q0 118 -72 202t-199 84zM191 923h133l171 -139h-98z" />
    <glyph glyph-name="uni1EDD" unicode="&#x1edd;" horiz-adv-x="626" 
d="M315 520q99 0 169 -55q59 15 59 76q0 31 -10 58h88q7 -20 7 -57q0 -99 -92 -133q47 -68 47 -156q0 -112 -71.5 -189.5t-201.5 -77.5q-123 0 -195 78t-72 189q0 113 74 190t198 77zM311 442q-82 0 -126 -54t-44 -135q0 -77 46.5 -133t125.5 -56q83 0 127.5 53.5
t44.5 134.5q0 80 -46.5 135t-127.5 55zM135 762h115l141 -160h-90z" />
    <glyph glyph-name="uni1EDE" unicode="&#x1ede;" horiz-adv-x="858" 
d="M431 725q118 0 209 -59q68 13 68 78q0 31 -10 58h88q7 -20 7 -57q0 -45 -22.5 -80t-67.5 -52q99 -104 99 -256q0 -157 -101 -264.5t-273 -107.5q-168 0 -270 106.5t-102 266.5q0 152 104.5 259.5t270.5 107.5zM425 641q-120 0 -191.5 -81.5t-71.5 -199.5
q0 -121 71.5 -206t197.5 -85q125 0 195 82t70 204q0 118 -72 202t-199 84zM470 772h-84q61 52 61 87q0 39 -43 39q-35 0 -63 -18l-20 53q44 29 102 29q50 0 77 -24.5t27 -64.5q0 -49 -57 -101z" />
    <glyph glyph-name="uni1EDF" unicode="&#x1edf;" horiz-adv-x="626" 
d="M315 520q99 0 169 -55q59 15 59 76q0 31 -10 58h88q7 -20 7 -57q0 -99 -92 -133q47 -68 47 -156q0 -112 -71.5 -189.5t-201.5 -77.5q-123 0 -195 78t-72 189q0 113 74 190t198 77zM311 442q-82 0 -126 -54t-44 -135q0 -77 46.5 -133t125.5 -56q83 0 127.5 53.5
t44.5 134.5q0 80 -46.5 135t-127.5 55zM362 585h-84q61 52 61 87q0 39 -43 39q-35 0 -63 -18l-20 53q44 29 102 29q50 0 77 -24.5t27 -64.5q0 -49 -57 -101z" />
    <glyph glyph-name="uni1EE0" unicode="&#x1ee0;" horiz-adv-x="858" 
d="M431 725q118 0 209 -59q68 13 68 78q0 31 -10 58h88q7 -20 7 -57q0 -45 -22.5 -80t-67.5 -52q99 -104 99 -256q0 -157 -101 -264.5t-273 -107.5q-168 0 -270 106.5t-102 266.5q0 152 104.5 259.5t270.5 107.5zM425 641q-120 0 -191.5 -81.5t-71.5 -199.5
q0 -121 71.5 -206t197.5 -85q125 0 195 82t70 204q0 118 -72 202t-199 84zM311 790h-68v23q0 107 92 107q37 0 98 -29t79 -29t25.5 10.5t7.5 38.5v11h66v-21q0 -113 -88 -113q-36 0 -97.5 30t-84.5 30q-30 0 -30 -43v-15z" />
    <glyph glyph-name="uni1EE1" unicode="&#x1ee1;" horiz-adv-x="626" 
d="M315 520q99 0 169 -55q59 15 59 76q0 31 -10 58h88q7 -20 7 -57q0 -99 -92 -133q47 -68 47 -156q0 -112 -71.5 -189.5t-201.5 -77.5q-123 0 -195 78t-72 189q0 113 74 190t198 77zM311 442q-82 0 -126 -54t-44 -135q0 -77 46.5 -133t125.5 -56q83 0 127.5 53.5
t44.5 134.5q0 80 -46.5 135t-127.5 55zM215 611h-64v25q0 104 87 104q35 0 86 -28t70 -28q32 0 32 47v13h63v-23q0 -111 -87 -111q-35 0 -85 29t-71 29q-31 0 -31 -39v-18z" />
    <glyph glyph-name="uni1EE2" unicode="&#x1ee2;" horiz-adv-x="858" 
d="M431 725q118 0 209 -59q68 13 68 78q0 31 -10 58h88q7 -20 7 -57q0 -45 -22.5 -80t-67.5 -52q99 -104 99 -256q0 -157 -101 -264.5t-273 -107.5q-168 0 -270 106.5t-102 266.5q0 152 104.5 259.5t270.5 107.5zM425 641q-120 0 -191.5 -81.5t-71.5 -199.5
q0 -121 71.5 -206t197.5 -85q125 0 195 82t70 204q0 118 -72 202t-199 84zM476 -196h-96v117h96v-117z" />
    <glyph glyph-name="uni1EE3" unicode="&#x1ee3;" horiz-adv-x="626" 
d="M315 520q99 0 169 -55q59 15 59 76q0 31 -10 58h88q7 -20 7 -57q0 -99 -92 -133q47 -68 47 -156q0 -112 -71.5 -189.5t-201.5 -77.5q-123 0 -195 78t-72 189q0 113 74 190t198 77zM311 442q-82 0 -126 -54t-44 -135q0 -77 46.5 -133t125.5 -56q83 0 127.5 53.5
t44.5 134.5q0 80 -46.5 135t-127.5 55zM361 -196h-96v117h96v-117z" />
    <glyph glyph-name="uni1EE4" unicode="&#x1ee4;" horiz-adv-x="814" 
d="M94 710h100v-403q0 -67 18.5 -115.5t50.5 -74t68.5 -37t79.5 -11.5q103 0 156 55.5t53 182.5v403h100v-402q0 -323 -312 -323q-149 0 -231.5 77.5t-82.5 237.5v410zM455 -196h-96v117h96v-117z" />
    <glyph glyph-name="uni1EE5" unicode="&#x1ee5;" horiz-adv-x="628" 
d="M547 506v-358q0 -99 1 -148h-92q-2 14 -4 86q-21 -48 -62 -74t-119 -26q-86 0 -138 50.5t-52 155.5v314h95v-296q0 -64 28.5 -103.5t92.5 -39.5q82 0 118.5 50t36.5 160v229h95zM362 -196h-96v117h96v-117z" />
    <glyph glyph-name="uni1EE6" unicode="&#x1ee6;" horiz-adv-x="814" 
d="M94 710h100v-403q0 -67 18.5 -115.5t50.5 -74t68.5 -37t79.5 -11.5q103 0 156 55.5t53 182.5v403h100v-402q0 -323 -312 -323q-149 0 -231.5 77.5t-82.5 237.5v410zM449 772h-84q61 52 61 87q0 39 -43 39q-35 0 -63 -18l-20 53q44 29 102 29q50 0 77 -24.5t27 -64.5
q0 -49 -57 -101z" />
    <glyph glyph-name="uni1EE7" unicode="&#x1ee7;" horiz-adv-x="628" 
d="M547 506v-358q0 -99 1 -148h-92q-2 14 -4 86q-21 -48 -62 -74t-119 -26q-86 0 -138 50.5t-52 155.5v314h95v-296q0 -64 28.5 -103.5t92.5 -39.5q82 0 118.5 50t36.5 160v229h95zM356 585h-84q61 52 61 87q0 39 -43 39q-35 0 -63 -18l-20 53q44 29 102 29q50 0 77 -24.5
t27 -64.5q0 -49 -57 -101z" />
    <glyph glyph-name="uni1EE8" unicode="&#x1ee8;" horiz-adv-x="814" 
d="M94 710h100v-403q0 -67 18.5 -115.5t50.5 -74t68.5 -37t79.5 -11.5q103 0 156 55.5t53 182.5v403h48q75 11 75 79q0 31 -10 58h88q7 -20 7 -57q0 -49 -27.5 -86.5t-80.5 -50.5v-345q0 -323 -312 -323q-149 0 -231.5 77.5t-82.5 237.5v410zM508 918h129l-198 -139h-100z
" />
    <glyph glyph-name="uni1EE9" unicode="&#x1ee9;" horiz-adv-x="628" 
d="M452 86q-21 -48 -62 -74t-119 -26q-86 0 -138 50.5t-52 155.5v314h95v-296q0 -64 28.5 -103.5t92.5 -39.5q82 0 118.5 50t36.5 160v229h43q83 8 83 80q0 31 -10 58h88q7 -20 7 -57q0 -52 -29.5 -90t-86.5 -49v-300q0 -99 1 -148h-92q-2 14 -4 86zM387 762h115l-164 -160
h-89z" />
    <glyph glyph-name="uni1EEA" unicode="&#x1eea;" horiz-adv-x="814" 
d="M94 710h100v-403q0 -67 18.5 -115.5t50.5 -74t68.5 -37t79.5 -11.5q103 0 156 55.5t53 182.5v403h48q75 11 75 79q0 31 -10 58h88q7 -20 7 -57q0 -49 -27.5 -86.5t-80.5 -50.5v-345q0 -323 -312 -323q-149 0 -231.5 77.5t-82.5 237.5v410zM177 918h133l171 -139h-98z" />
    <glyph glyph-name="uni1EEB" unicode="&#x1eeb;" horiz-adv-x="628" 
d="M452 86q-21 -48 -62 -74t-119 -26q-86 0 -138 50.5t-52 155.5v314h95v-296q0 -64 28.5 -103.5t92.5 -39.5q82 0 118.5 50t36.5 160v229h43q83 8 83 80q0 31 -10 58h88q7 -20 7 -57q0 -52 -29.5 -90t-86.5 -49v-300q0 -99 1 -148h-92q-2 14 -4 86zM135 762h115l141 -160
h-90z" />
    <glyph glyph-name="uni1EEC" unicode="&#x1eec;" horiz-adv-x="814" 
d="M94 710h100v-403q0 -67 18.5 -115.5t50.5 -74t68.5 -37t79.5 -11.5q103 0 156 55.5t53 182.5v403h48q75 11 75 79q0 31 -10 58h88q7 -20 7 -57q0 -49 -27.5 -86.5t-80.5 -50.5v-345q0 -323 -312 -323q-149 0 -231.5 77.5t-82.5 237.5v410zM449 772h-84q61 52 61 87
q0 39 -43 39q-35 0 -63 -18l-20 53q44 29 102 29q50 0 77 -24.5t27 -64.5q0 -49 -57 -101z" />
    <glyph glyph-name="uni1EED" unicode="&#x1eed;" horiz-adv-x="628" 
d="M452 86q-21 -48 -62 -74t-119 -26q-86 0 -138 50.5t-52 155.5v314h95v-296q0 -64 28.5 -103.5t92.5 -39.5q82 0 118.5 50t36.5 160v229h43q83 8 83 80q0 31 -10 58h88q7 -20 7 -57q0 -52 -29.5 -90t-86.5 -49v-300q0 -99 1 -148h-92q-2 14 -4 86zM362 585h-84
q61 52 61 87q0 39 -43 39q-35 0 -63 -18l-20 53q44 29 102 29q50 0 77 -24.5t27 -64.5q0 -49 -57 -101z" />
    <glyph glyph-name="uni1EEE" unicode="&#x1eee;" horiz-adv-x="814" 
d="M94 710h100v-403q0 -67 18.5 -115.5t50.5 -74t68.5 -37t79.5 -11.5q103 0 156 55.5t53 182.5v403h48q75 11 75 79q0 31 -10 58h88q7 -20 7 -57q0 -49 -27.5 -86.5t-80.5 -50.5v-345q0 -323 -312 -323q-149 0 -231.5 77.5t-82.5 237.5v410zM290 783h-68v23q0 107 92 107
q36 0 97 -29t80 -29q18 0 25.5 10.5t7.5 38.5v11h66v-21q0 -113 -88 -113q-36 0 -97.5 30t-84.5 30q-30 0 -30 -43v-15z" />
    <glyph glyph-name="uni1EEF" unicode="&#x1eef;" horiz-adv-x="628" 
d="M452 86q-21 -48 -62 -74t-119 -26q-86 0 -138 50.5t-52 155.5v314h95v-296q0 -64 28.5 -103.5t92.5 -39.5q82 0 118.5 50t36.5 160v229h43q83 8 83 80q0 31 -10 58h88q7 -20 7 -57q0 -52 -29.5 -90t-86.5 -49v-300q0 -99 1 -148h-92q-2 14 -4 86zM209 611h-64v25
q0 104 87 104q35 0 86 -28t70 -28q32 0 32 47v13h63v-23q0 -111 -87 -111q-35 0 -85 29t-71 29q-31 0 -31 -39v-18z" />
    <glyph glyph-name="uni1EF0" unicode="&#x1ef0;" horiz-adv-x="814" 
d="M94 710h100v-403q0 -67 18.5 -115.5t50.5 -74t68.5 -37t79.5 -11.5q103 0 156 55.5t53 182.5v403h48q75 11 75 79q0 31 -10 58h88q7 -20 7 -57q0 -49 -27.5 -86.5t-80.5 -50.5v-345q0 -323 -312 -323q-149 0 -231.5 77.5t-82.5 237.5v410zM455 -196h-96v117h96v-117z" />
    <glyph glyph-name="uni1EF1" unicode="&#x1ef1;" horiz-adv-x="628" 
d="M452 86q-21 -48 -62 -74t-119 -26q-86 0 -138 50.5t-52 155.5v314h95v-296q0 -64 28.5 -103.5t92.5 -39.5q82 0 118.5 50t36.5 160v229h43q83 8 83 80q0 31 -10 58h88q7 -20 7 -57q0 -52 -29.5 -90t-86.5 -49v-300q0 -99 1 -148h-92q-2 14 -4 86zM362 -196h-96v117h96
v-117z" />
    <glyph glyph-name="Ygrave" unicode="&#x1ef2;" horiz-adv-x="669" 
d="M385 0h-100v270q0 10 -7 18l-298 422h120q22 -32 85.5 -123.5t101 -147t52.5 -81.5q33 57 238 352h111l-298 -424q-5 -10 -5 -17v-269zM103 914h133l171 -139h-98z" />
    <glyph glyph-name="ygrave" unicode="&#x1ef3;" horiz-adv-x="582" 
d="M15 506h104q151 -346 181 -433h2q79 220 166 433h99l-199 -480q-68 -167 -112 -214.5t-137 -47.5q-41 0 -66 6v83q25 -4 55 -4q51 0 78.5 26t62.5 102zM99 762h115l141 -160h-90z" />
    <glyph glyph-name="uni1EF4" unicode="&#x1ef4;" horiz-adv-x="669" 
d="M385 0h-100v270q0 10 -7 18l-298 422h120q22 -32 85.5 -123.5t101 -147t52.5 -81.5q33 57 238 352h111l-298 -424q-5 -10 -5 -17v-269zM383 -196h-96v117h96v-117z" />
    <glyph glyph-name="uni1EF5" unicode="&#x1ef5;" horiz-adv-x="582" 
d="M15 506h104q151 -346 181 -433h2q79 220 166 433h99l-199 -480q-68 -167 -112 -214.5t-137 -47.5q-41 0 -66 6v83q25 -4 55 -4q51 0 78.5 26t62.5 102zM531 -196h-96v117h96v-117z" />
    <glyph glyph-name="uni1EF6" unicode="&#x1ef6;" horiz-adv-x="669" 
d="M385 0h-100v270q0 10 -7 18l-298 422h120q22 -32 85.5 -123.5t101 -147t52.5 -81.5q33 57 238 352h111l-298 -424q-5 -10 -5 -17v-269zM376 769h-84q61 52 61 87q0 39 -43 39q-35 0 -63 -18l-20 53q44 29 102 29q50 0 77 -24.5t27 -64.5q0 -49 -57 -101z" />
    <glyph glyph-name="uni1EF7" unicode="&#x1ef7;" horiz-adv-x="582" 
d="M15 506h104q151 -346 181 -433h2q79 220 166 433h99l-199 -480q-68 -167 -112 -214.5t-137 -47.5q-41 0 -66 6v83q25 -4 55 -4q51 0 78.5 26t62.5 102zM333 585h-84q61 52 61 87q0 39 -43 39q-35 0 -63 -18l-20 53q44 29 102 29q50 0 77 -24.5t27 -64.5q0 -49 -57 -101z
" />
    <glyph glyph-name="uni1EF8" unicode="&#x1ef8;" horiz-adv-x="669" 
d="M385 0h-100v270q0 10 -7 18l-298 422h120q22 -32 85.5 -123.5t101 -147t52.5 -81.5q33 57 238 352h111l-298 -424q-5 -10 -5 -17v-269zM217 783h-68v23q0 107 92 107q37 0 98 -29t79 -29t25.5 10.5t7.5 38.5v11h66v-21q0 -113 -88 -113q-36 0 -97.5 30t-84.5 30
q-30 0 -30 -43v-15z" />
    <glyph glyph-name="uni1EF9" unicode="&#x1ef9;" horiz-adv-x="582" 
d="M15 506h104q151 -346 181 -433h2q79 220 166 433h99l-199 -480q-68 -167 -112 -214.5t-137 -47.5q-41 0 -66 6v83q25 -4 55 -4q51 0 78.5 26t62.5 102zM186 611h-64v25q0 104 87 104q35 0 86 -28t70 -28q32 0 32 47v13h63v-23q0 -111 -87 -111q-35 0 -85 29t-71 29
q-31 0 -31 -39v-18z" />
    <glyph glyph-name="uni2007" unicode="&#x2007;" horiz-adv-x="638" 
 />
    <glyph glyph-name="uni2010" unicode="&#x2010;" horiz-adv-x="433" 
d="M57 297h319v-82h-319v82z" />
    <glyph glyph-name="figuredash" unicode="&#x2012;" horiz-adv-x="638" 
d="M74 397h490v-83h-490v83z" />
    <glyph glyph-name="endash" unicode="&#x2013;" horiz-adv-x="639" 
d="M57 297h525v-82h-525v82z" />
    <glyph glyph-name="emdash" unicode="&#x2014;" horiz-adv-x="1164" 
d="M57 297h1050v-82h-1050v82z" />
    <glyph glyph-name="uni2015" unicode="&#x2015;" horiz-adv-x="1164" 
d="M57 297h1050v-82h-1050v82z" />
    <glyph glyph-name="quoteleft" unicode="&#x2018;" horiz-adv-x="238" 
d="M117 752h78q-45 -145 -54 -294h-98q5 63 27.5 151.5t46.5 142.5z" />
    <glyph glyph-name="quoteright" unicode="&#x2019;" horiz-adv-x="238" 
d="M122 457h-79q47 151 54 295h98q-5 -63 -27.5 -152t-45.5 -143z" />
    <glyph glyph-name="quotesinglbase" unicode="&#x201a;" horiz-adv-x="238" 
d="M122 -140h-79q47 151 54 294h98q-5 -63 -27.5 -151.5t-45.5 -142.5z" />
    <glyph glyph-name="quotedblleft" unicode="&#x201c;" horiz-adv-x="423" 
d="M306 752h74q-45 -163 -53 -295h-96q6 66 29 154.5t46 140.5zM118 752h74q-45 -162 -53 -295h-96q6 64 29 153t46 142z" />
    <glyph glyph-name="quotedblright" unicode="&#x201d;" horiz-adv-x="423" 
d="M118 457h-75q47 169 53 295h96q-6 -65 -28.5 -153.5t-45.5 -141.5zM305 457h-74q45 164 53 295h96q-6 -65 -28.5 -154t-46.5 -141z" />
    <glyph glyph-name="quotedblbase" unicode="&#x201e;" horiz-adv-x="423" 
d="M118 -140h-75q47 169 53 294h96q-6 -64 -28.5 -153t-45.5 -141zM305 -140h-74q45 162 53 294h96q-6 -65 -29 -154t-46 -140z" />
    <glyph glyph-name="dagger" unicode="&#x2020;" horiz-adv-x="541" 
d="M217 680h90l-7 -233l191 6v-80l-191 6l7 -525h-90l6 525l-193 -6v80l193 -6z" />
    <glyph glyph-name="daggerdbl" unicode="&#x2021;" horiz-adv-x="541" 
d="M223 157v246l-193 -6v80l193 -7l-6 209h90l-7 -209l191 7v-80l-191 6v-246l191 5v-79l-191 7l7 -236h-90l6 236l-193 -7v79z" />
    <glyph glyph-name="bullet" unicode="&#x2022;" horiz-adv-x="421" 
d="M100 367h221v-225h-221v225z" />
    <glyph glyph-name="ellipsis" unicode="&#x2026;" horiz-adv-x="840" 
d="M172 0h-106v164h106v-164zM456 0h-106v164h106v-164zM737 0h-106v164h106v-164z" />
    <glyph glyph-name="perthousand" unicode="&#x2030;" horiz-adv-x="1349" 
d="M1128 378q85 0 133.5 -51.5t48.5 -142.5q0 -84 -47.5 -140t-135.5 -56q-87 0 -133 54t-46 141q0 82 47.5 138.5t132.5 56.5zM1128 312q-46 0 -73.5 -33.5t-27.5 -94.5q0 -60 27 -95t75 -35q50 0 77 35.5t27 94.5q0 62 -26.5 95t-78.5 33zM219 690q85 0 133.5 -51.5
t48.5 -142.5q0 -84 -47.5 -140t-135.5 -56q-85 0 -132 54.5t-47 140.5q0 82 47 138.5t133 56.5zM219 624q-46 0 -73.5 -33.5t-27.5 -94.5q0 -59 27 -94.5t75 -35.5q50 0 77 35.5t27 94.5q0 60 -26.5 94t-78.5 34zM275 0h-80l468 676h81zM723 378q85 0 133 -51.5t48 -142.5
q0 -85 -47 -140.5t-136 -55.5q-86 0 -132 54t-46 141q0 82 47 138.5t133 56.5zM722 312q-46 0 -73.5 -34t-27.5 -94t27 -95t76 -35q50 0 77 35.5t27 94.5q0 128 -106 128z" />
    <glyph glyph-name="uni2032" unicode="&#x2032;" horiz-adv-x="237" 
d="M126 460h-76l41 292h96z" />
    <glyph glyph-name="uni2033" unicode="&#x2033;" horiz-adv-x="417" 
d="M123 460h-73l41 292h93zM306 460h-73l42 292h92z" />
    <glyph glyph-name="guilsinglleft" unicode="&#x2039;" horiz-adv-x="379" 
d="M330 467l-184 -206l185 -207h-98l-185 207l185 206h97z" />
    <glyph glyph-name="guilsinglright" unicode="&#x203a;" horiz-adv-x="379" 
d="M49 54l184 206l-185 207h98l185 -207l-185 -206h-97z" />
    <glyph glyph-name="fraction" unicode="&#x2044;" horiz-adv-x="163" 
d="M-96 0h-71l428 676h70z" />
    <glyph glyph-name="zero.sups" unicode="&#x2070;" horiz-adv-x="429" 
d="M217 848q86 0 132 -57.5t46 -143.5q0 -95 -49 -150.5t-132 -55.5q-84 0 -132 57.5t-48 144.5q0 90 49 147.5t134 57.5zM215 785q-47 0 -73.5 -36.5t-26.5 -104.5q0 -63 28 -101t73 -38q98 0 98 140q0 65 -26 102.5t-73 37.5z" />
    <glyph glyph-name="four.sups" unicode="&#x2074;" horiz-adv-x="411" 
d="M323 446h-73v97h-220v62l201 238h92v-238h71l-6 -62h-65v-97zM110 605h140v80q0 74 2 97q-18 -26 -142 -177z" />
    <glyph glyph-name="five.sups" unicode="&#x2075;" horiz-adv-x="418" 
d="M367 843l-11 -65h-209q-11 -71 -15 -93q36 31 102 31q72 0 113.5 -36.5t41.5 -95.5q0 -64 -45.5 -103t-129.5 -39q-78 0 -122 36t-51 88h79q19 -62 95 -62q92 0 92 75q0 76 -95 76q-63 0 -93 -41l-69 15q27 147 34 214h283z" />
    <glyph glyph-name="six.sups" unicode="&#x2076;" horiz-adv-x="417" 
d="M373 743h-79q-19 46 -79 46q-94 0 -102 -118q43 48 127 47q69 -1 108.5 -38t39.5 -94q0 -64 -47 -104.5t-124 -40.5q-86 0 -134.5 53t-48.5 145q0 86 44.5 147.5t138.5 61.5q69 0 109 -31.5t47 -73.5zM217 501q41 0 66 20t25 61q0 78 -92 78q-40 0 -67.5 -18.5
t-27.5 -47.5q0 -36 23 -64.5t73 -28.5z" />
    <glyph glyph-name="seven.sups" unicode="&#x2077;" horiz-adv-x="358" 
d="M15 843h320v-58q-57 -69 -106 -160t-71 -178h-87q22 87 76 182.5t102 147.5h-234v66z" />
    <glyph glyph-name="eight.sups" unicode="&#x2078;" horiz-adv-x="412" 
d="M204 441q-80 0 -125 35t-45 85q0 66 75 95q-57 24 -57 82q0 49 40.5 79.5t117.5 30.5q72 0 111 -31t39 -75q0 -60 -60 -83q35 -12 56.5 -37t21.5 -59q0 -54 -49 -88t-125 -34zM205 501q92 0 92 63t-92 63q-45 0 -67.5 -16.5t-22.5 -44.5t24.5 -46.5t65.5 -18.5zM207 791
q-37 0 -57.5 -14t-20.5 -39q0 -55 80 -55q73 0 73 54t-75 54z" />
    <glyph glyph-name="nine.sups" unicode="&#x2079;" horiz-adv-x="420" 
d="M39 551h79q20 -50 86 -50q93 0 103 127q-34 -46 -123 -45q-71 1 -111.5 37t-40.5 90q0 61 47 99.5t123 38.5q88 0 136 -51t48 -145q0 -52 -15.5 -97t-58.5 -79.5t-109 -34.5q-71 0 -113.5 32.5t-50.5 77.5zM202 789q-39 0 -65.5 -18.5t-25.5 -55.5q0 -35 25 -54.5
t69 -19.5q38 0 66 15.5t28 47.5q0 37 -24 61t-73 24z" />
    <glyph glyph-name="parenleft.sups" unicode="&#x207d;" horiz-adv-x="239" 
d="M137 904h78q-102 -123 -102 -270q0 -144 102 -267h-78q-37 39 -65.5 110t-28.5 157q0 157 94 270z" />
    <glyph glyph-name="parenright.sups" unicode="&#x207e;" horiz-adv-x="239" 
d="M102 381h-78q103 122 103 270q0 143 -103 267h78q37 -40 65.5 -110.5t28.5 -156.5q0 -157 -94 -270z" />
    <glyph glyph-name="n.sups" unicode="&#x207f;" horiz-adv-x="434" 
d="M53 280v226q0 72 -2 106h72q3 -12 3 -58q36 66 125 66q52 0 91 -31.5t39 -103.5v-205h-75v187q0 42 -17.5 65.5t-62.5 23.5q-43 0 -71 -29t-28 -79v-168h-74z" />
    <glyph glyph-name="zero.subs" unicode="&#x2080;" horiz-adv-x="429" 
d="M217 247q86 0 132 -57.5t46 -143.5q0 -95 -49 -150.5t-132 -55.5q-84 0 -132 57.5t-48 144.5q0 90 49 147.5t134 57.5zM215 184q-47 0 -73.5 -36.5t-26.5 -104.5q0 -63 28 -101t73 -38q98 0 98 140q0 65 -26 102.5t-73 37.5z" />
    <glyph glyph-name="one.subs" unicode="&#x2081;" horiz-adv-x="246" 
d="M183 -155h-79v309q-14 -8 -42.5 -16.5t-43.5 -8.5v58q24 4 57.5 21t53.5 34h54v-397z" />
    <glyph glyph-name="two.subs" unicode="&#x2082;" horiz-adv-x="397" 
d="M362 -155h-325v5q0 111 139 183q62 33 80 48t18 41t-19 44t-58 18q-38 0 -59 -16.5t-28 -53.5h-76q6 60 49 96.5t117 36.5q79 0 117.5 -37t38.5 -86q0 -48 -27.5 -75t-93.5 -59q-46 -24 -67 -40.5t-32 -39.5h238z" />
    <glyph glyph-name="three.subs" unicode="&#x2083;" horiz-adv-x="396" 
d="M153 25v59h31q51 0 68.5 10.5t17.5 37.5q0 54 -75 54q-68 0 -85 -57h-72q2 12 5.5 25t15 30.5t27.5 30.5t45 22.5t66 9.5q72 0 111.5 -30.5t39.5 -81.5q0 -63 -60 -77q32 -7 55.5 -31.5t23.5 -61.5q0 -53 -42.5 -88.5t-128.5 -35.5q-47 0 -81.5 13t-53 34t-27 41
t-10.5 40h77q18 -68 98 -68q89 0 89 63q0 34 -25.5 47.5t-75.5 13.5h-34z" />
    <glyph glyph-name="four.subs" unicode="&#x2084;" horiz-adv-x="411" 
d="M323 -155h-73v97h-220v62l201 238h92v-238h71l-6 -62h-65v-97zM110 4h140v80q0 74 2 97q-18 -26 -142 -177z" />
    <glyph glyph-name="five.subs" unicode="&#x2085;" horiz-adv-x="418" 
d="M367 242l-11 -65h-209q-11 -71 -15 -93q36 31 102 31q72 0 113.5 -36.5t41.5 -95.5q0 -64 -45.5 -103t-129.5 -39q-78 0 -122 36t-51 88h79q19 -62 95 -62q92 0 92 75q0 76 -95 76q-63 0 -93 -41l-69 15q27 147 34 214h283z" />
    <glyph glyph-name="six.subs" unicode="&#x2086;" horiz-adv-x="417" 
d="M373 142h-79q-19 46 -79 46q-94 0 -102 -118q43 48 127 47q69 -1 108.5 -38t39.5 -94q0 -64 -47 -104.5t-124 -40.5q-86 0 -134.5 53t-48.5 145q0 86 44.5 147.5t138.5 61.5q69 0 109 -31.5t47 -73.5zM217 -100q41 0 66 20t25 61q0 78 -92 78q-40 0 -67.5 -18.5
t-27.5 -47.5q0 -36 23 -64.5t73 -28.5z" />
    <glyph glyph-name="seven.subs" unicode="&#x2087;" horiz-adv-x="358" 
d="M15 242h320v-58q-57 -69 -106 -160t-71 -178h-87q22 87 76 182.5t102 147.5h-234v66z" />
    <glyph glyph-name="eight.subs" unicode="&#x2088;" horiz-adv-x="412" 
d="M204 -160q-80 0 -125 35t-45 85q0 66 75 95q-57 24 -57 82q0 49 40.5 79.5t117.5 30.5q72 0 111 -31t39 -75q0 -60 -60 -83q35 -12 56.5 -37t21.5 -59q0 -54 -49 -88t-125 -34zM205 -100q92 0 92 63t-92 63q-45 0 -67.5 -16.5t-22.5 -44.5t24.5 -46.5t65.5 -18.5z
M207 190q-37 0 -57.5 -14t-20.5 -39q0 -55 80 -55q73 0 73 54t-75 54z" />
    <glyph glyph-name="nine.subs" unicode="&#x2089;" horiz-adv-x="420" 
d="M39 -50h79q20 -50 86 -50q93 0 103 127q-34 -46 -123 -45q-71 1 -111.5 37t-40.5 90q0 61 47 99.5t123 38.5q88 0 136 -51t48 -145q0 -52 -15.5 -97t-58.5 -79.5t-109 -34.5q-71 0 -113.5 32.5t-50.5 77.5zM202 188q-39 0 -65.5 -18.5t-25.5 -55.5q0 -35 25 -54.5
t69 -19.5q38 0 66 15.5t28 47.5q0 37 -24 61t-73 24z" />
    <glyph glyph-name="parenleft.subs" unicode="&#x208d;" horiz-adv-x="239" 
d="M137 303h78q-102 -123 -102 -270q0 -144 102 -267h-78q-37 39 -65.5 110t-28.5 157q0 157 94 270z" />
    <glyph glyph-name="parenright.subs" unicode="&#x208e;" horiz-adv-x="239" 
d="M102 -220h-78q103 122 103 270q0 143 -103 267h78q37 -40 65.5 -110.5t28.5 -156.5q0 -157 -94 -270z" />
    <glyph glyph-name="colonmonetary" unicode="&#x20a1;" horiz-adv-x="625" 
d="M329 67h16v542h-14q-19 0 -35 -3v-536q15 -3 33 -3zM153 336q0 -185 88 -244v493q-88 -55 -88 -249zM296 -104h-55v106q-88 28 -136.5 114t-48.5 219q0 135 48.5 221t136.5 116v80h55v-67q26 2 40 2h9v65h55v-71q77 -16 122 -65.5t52 -107.5h-92q-19 68 -82 91v-522
q62 22 85 95h91q-37 -147 -176 -176v-100h-55v93h-17q-12 0 -32 2v-95z" />
    <glyph glyph-name="franc" unicode="&#x20a3;" horiz-adv-x="612" 
d="M115 0v131h-90v70h90v475h441v-83h-347v-199h327v-83h-327v-110h127v-70h-127v-131h-94z" />
    <glyph glyph-name="lira" unicode="&#x20a4;" horiz-adv-x="610" 
d="M587 0h-535v71q76 37 83 174h-100v62h100q-2 40 -4 64h-96v63h93v23q0 106 56.5 169.5t164.5 63.5q99 0 152.5 -50.5t60.5 -122.5h-93q-9 44 -40.5 69t-82.5 25q-122 0 -122 -151v-26h177v-63h-174q2 -44 3 -64h171v-62h-172q-6 -107 -54 -162h424z" />
    <glyph glyph-name="uni20A6" unicode="&#x20a6;" horiz-adv-x="668" 
d="M176 590q4 -36 6 -141h58l-60 141h-4zM480 97h6q-7 76 -8 154h-64zM182 0h-83v251h-59v63h59v73h-59v62h59v227h132l98 -227h148v227h83v-227h59v-62h-59v-73h59v-63h-59v-251h-127l-108 251h-143v-251zM477 314v73h-122l32 -73h90zM298 314l-31 73h-85v-73h116z" />
    <glyph glyph-name="peseta" unicode="&#x20a7;" horiz-adv-x="655" 
d="M101 0v419h-68v69h68v188h227q96 0 163.5 -50.5t79.5 -137.5h56v-69h-57q-12 -90 -84 -140t-179 -50h-113v-229h-93zM194 602v-114h282q-19 114 -159 114h-123zM194 304h112q151 0 170 115h-282v-115z" />
    <glyph glyph-name="dong" unicode="&#x20ab;" horiz-adv-x="661" 
d="M73 -86h474v-70h-474v70zM460 684h93v-70h80v-70h-80v-399q0 -97 1 -145h-87q-5 18 -5 77q-53 -90 -185 -90q-97 0 -162 70t-65 171q0 115 71.5 183t168.5 68q127 0 170 -74v139h-240v70h240v70zM146 231q0 -67 40 -117t110 -50q78 0 123.5 44t45.5 128q0 78 -42 123
t-118 45q-78 0 -118.5 -49.5t-40.5 -123.5z" />
    <glyph glyph-name="Euro" unicode="&#x20ac;" horiz-adv-x="655" 
d="M521 164h92q-52 -178 -241 -178q-107 0 -174 68.5t-85 191.5h-72v62h67q-1 9 -1 27q0 17 2 45h-68v62h75q22 119 92.5 183.5t172.5 64.5q103 0 161.5 -53t69.5 -129h-91q-18 51 -52 77.5t-93 26.5q-134 0 -165 -170h211v-62h-218q-1 -14 -1 -44q0 -19 1 -28h218v-62h-212
q14 -86 56 -132.5t108 -46.5q54 0 89 22t58 75z" />
    <glyph glyph-name="uni20B1" unicode="&#x20b1;" horiz-adv-x="677" 
d="M114 0v363h-74v57h74v55h-74v57h74v144h221q81 0 144.5 -38t88.5 -106h70v-57h-56q1 -9 1 -28q0 -18 -1 -27h56v-57h-69q-26 -70 -92 -110t-156 -40h-115v-213h-92zM206 601v-69h261q-40 69 -138 69h-123zM488 446q0 11 -2 29h-280v-55h281q1 8 1 26zM206 288h117
q111 0 148 75h-265v-75z" />
    <glyph glyph-name="uni20B2" unicode="&#x20b2;" horiz-adv-x="646" 
d="M579 505h-96q-28 92 -122 103v-543q63 2 114 27v234h97v-283q-109 -53 -211 -56v-91h-66v94q-118 17 -178.5 110.5t-60.5 237.5q0 147 63.5 240.5t175.5 107.5v73h66v-71q99 -7 154.5 -59.5t63.5 -123.5zM155 343q0 -234 140 -272v535q-73 -15 -106.5 -86.5t-33.5 -176.5
z" />
    <glyph glyph-name="uni20B4" unicode="&#x20b4;" horiz-adv-x="623" 
d="M173 525h-92q14 75 74.5 120.5t158.5 45.5q110 0 166 -55t56 -122q0 -42 -12 -70h55v-63h-113q-47 -31 -133 -60q-2 -1 -7.5 -2.5t-7.5 -2.5h248v-62h-369q-37 -31 -35 -77q0 -46 39.5 -79.5t102.5 -33.5q77 0 113.5 27t52.5 72h93q-40 -177 -263 -177q-101 0 -167 53.5
t-66 133.5q0 47 19 81h-50v62h111q53 34 142 65h-241v63h372q25 25 25 66q0 43 -34.5 74.5t-97.5 31.5q-111 0 -140 -91z" />
    <glyph glyph-name="uni20B5" unicode="&#x20b5;" horiz-adv-x="619" 
d="M153 338q0 -108 36 -179t103 -87v532q-139 -28 -139 -266zM358 -104h-66v95q-111 14 -173.5 105t-62.5 241q0 148 62.5 239.5t173.5 107.5v75h66v-73q97 -6 151.5 -61.5t64.5 -125.5h-94q-28 96 -122 107v-536q91 11 125 105h93q-42 -170 -218 -185v-94z" />
    <glyph glyph-name="uni20B9" unicode="&#x20b9;" horiz-adv-x="638" 
d="M67 269v69h143q71 0 121.5 35t50.5 107v6h-315v63h296q-40 62 -153 62h-143v65h521v-63h-173q33 -28 47 -64h126v-63h-112v-10q0 -80 -50 -129.5t-131 -68.5l245 -278h-116l-239 269h-118z" />
    <glyph glyph-name="uni20BA" unicode="&#x20ba;" horiz-adv-x="651" 
d="M247 0h-93v276l-109 -43v71l109 43v74l-109 -43v71l109 43v184h95v-146l150 59v-71l-150 -59v-74l150 59v-70l-150 -60v-237q223 1 256 232h91q-40 -309 -349 -309z" />
    <glyph glyph-name="uni20BD" unicode="&#x20bd;" horiz-adv-x="645" 
d="M119 0v146h-89v64h89v75h-89v71h89v320h236q110 0 172 -53t62 -140q0 -97 -64 -147.5t-180 -50.5h-126v-75h198v-64h-198v-146h-100zM219 601v-245h114q76 0 115 29t39 94q0 122 -149 122h-119z" />
    <glyph glyph-name="uni2113" unicode="&#x2113;" horiz-adv-x="449" 
d="M336 158h87q-20 -169 -177 -169q-156 0 -156 170v45q-9 -7 -59 -36l-24 64q10 6 38.5 23.5t43.5 27.5v252q0 200 158 200q72 0 109.5 -43t37.5 -120q0 -95 -48 -171.5t-162 -155.5v-72q0 -60 17 -83.5t52 -23.5q36 0 55 20.5t28 71.5zM184 542v-204q123 106 123 233
q0 92 -59 92q-33 0 -48.5 -27t-15.5 -94z" />
    <glyph glyph-name="uni2116" unicode="&#x2116;" horiz-adv-x="1150" 
d="M180 0h-92v690h128q313 -493 345 -554q8 -14 12 -24h1q-6 73 -6 318v260h92v-690h-117q-343 555 -369 601h-1q7 -94 7 -342v-259zM809 451q0 -62 30.5 -98.5t78.5 -36.5q50 0 78.5 35t28.5 100t-29.5 100t-79.5 35q-48 0 -77.5 -35.5t-29.5 -99.5zM759 183h314v-68h-314
v68zM916 653q88 0 138.5 -56.5t50.5 -145.5q0 -90 -52 -147t-138 -57q-82 0 -134 56.5t-52 147.5q0 89 52.5 145.5t134.5 56.5z" />
    <glyph glyph-name="uni2117" unicode="&#x2117;" horiz-adv-x="839" 
d="M291 155v408h160q62 0 105.5 -35t43.5 -95q0 -64 -42.5 -99t-113.5 -35h-89v-144h-64zM356 508v-155h82q95 0 95 78q0 34 -23.5 55t-65.5 21zM422 728q157 0 259.5 -104.5t102.5 -264.5q0 -164 -103 -269t-259 -105q-160 0 -263 104t-103 270q0 159 105 264t261 105z
M421 673q-133 0 -220 -85t-87 -233q0 -136 88 -225.5t219 -89.5q133 0 219 87t86 232q0 138 -86 226t-219 88z" />
    <glyph glyph-name="uni2120" unicode="&#x2120;" horiz-adv-x="553" 
d="M571 475h-53v77q0 76 4 120h-2q-9 -24 -34 -91.5t-40 -105.5h-43q-53 151 -68 197h-1q2 -43 3 -125v-72h-52v235h87q11 -33 29.5 -85t26.5 -75h2q27 74 60 160h81v-235zM27 552h51q11 -43 67 -43q55 0 55 30q0 15 -14.5 22t-53.5 13q-56 8 -75.5 25.5t-19.5 45.5
q0 31 27 51t75 20q50 0 76.5 -21t29.5 -55h-51q-7 37 -58 37q-47 0 -47 -26q0 -12 11 -18.5t44 -11.5q61 -11 85 -27.5t24 -49.5q0 -35 -28.5 -55.5t-80.5 -20.5q-51 0 -81.5 22t-35.5 62z" />
    <glyph glyph-name="trademark" unicode="&#x2122;" horiz-adv-x="497" 
d="M524 475h-54v77q0 76 4 120h-1l-74 -197h-43l-69 197h-1q2 -18 3 -125v-72h-51v235h86l57 -160h1l61 160h81v-235zM-20 710h224v-47h-83v-188h-56v188h-85v47z" />
    <glyph glyph-name="uni2126" unicode="&#x2126;" horiz-adv-x="820" 
d="M410 725q163 0 259.5 -95t96.5 -238q0 -199 -174 -308h197v-84h-304v93q82 44 132 119t49 171q-1 109 -69.5 185t-191.5 76t-186.5 -76t-63.5 -187q0 -99 53.5 -172.5t132.5 -115.5v-93h-310v84h192q-169 120 -169 303q0 145 97 241.5t259 96.5z" />
    <glyph glyph-name="estimated" unicode="&#x212e;" horiz-adv-x="845" 
d="M804 329h-619q-4 0 -4 -4v-138q0 -10 7 -22q79 -118 231 -118q76 0 129 25t94 83h113q-126 -167 -338 -167q-170 0 -272.5 103.5t-102.5 252.5q0 146 109 246.5t270 100.5q173 0 278 -99.5t105 -247.5v-15zM665 395v109q0 11 -9 24q-74 105 -233 105q-156 0 -234 -108
q-8 -12 -8 -23v-107q0 -6 4 -6h476q4 0 4 6z" />
    <glyph glyph-name="onethird" unicode="&#x2153;" horiz-adv-x="862" 
d="M191 0h-71l428 676h70zM199 279h-79v309q-14 -8 -42.5 -16.5t-43.5 -8.5v58q24 4 57.5 21t53.5 34h54v-397zM609 178v59h31q51 0 68.5 10.5t17.5 37.5q0 54 -75 54q-68 0 -85 -57h-72q2 12 5.5 25t15 30.5t27.5 30.5t45 22.5t66 9.5q72 0 111.5 -30.5t39.5 -81.5
q0 -63 -60 -77q32 -7 55.5 -31.5t23.5 -61.5q0 -53 -42.5 -88.5t-128.5 -35.5q-47 0 -81.5 13t-53 34t-27 41t-10.5 40h77q18 -68 98 -68q89 0 89 63q0 34 -25.5 47.5t-75.5 13.5h-34z" />
    <glyph glyph-name="twothirds" unicode="&#x2154;" horiz-adv-x="981" 
d="M331 0h-71l428 676h70zM368 279h-325v5q0 111 139 183q62 33 80 48t18 41t-19 44t-58 18q-38 0 -59 -16.5t-28 -53.5h-76q6 60 49 96.5t117 36.5q79 0 117.5 -37t38.5 -86q0 -48 -27.5 -75t-93.5 -59q-46 -24 -67 -40.5t-32 -39.5h238zM726 178v59h31q51 0 68.5 10.5
t17.5 37.5q0 54 -75 54q-68 0 -85 -57h-72q2 12 5.5 25t15 30.5t27.5 30.5t45 22.5t66 9.5q72 0 111.5 -30.5t39.5 -81.5q0 -63 -60 -77q32 -7 55.5 -31.5t23.5 -61.5q0 -53 -42.5 -88.5t-128.5 -35.5q-47 0 -81.5 13t-53 34t-27 41t-10.5 40h77q18 -68 98 -68q89 0 89 63
q0 34 -25.5 47.5t-75.5 13.5h-34z" />
    <glyph glyph-name="oneeighth" unicode="&#x215b;" horiz-adv-x="876" 
d="M197 0h-71l428 676h70zM203 279h-79v309q-14 -8 -42.5 -16.5t-43.5 -8.5v58q24 4 57.5 21t53.5 34h54v-397zM654 -6q-80 0 -125 35t-45 85q0 66 75 95q-57 24 -57 82q0 49 40.5 79.5t117.5 30.5q72 0 111 -31t39 -75q0 -60 -60 -83q35 -12 56.5 -37t21.5 -59
q0 -54 -49 -88t-125 -34zM655 54q92 0 92 63t-92 63q-45 0 -67.5 -16.5t-22.5 -44.5t24.5 -46.5t65.5 -18.5zM657 344q-37 0 -57.5 -14t-20.5 -39q0 -55 80 -55q73 0 73 54t-75 54z" />
    <glyph glyph-name="threeeighths" unicode="&#x215c;" horiz-adv-x="963" 
d="M309 0h-71l428 676h70zM746 -6q-80 0 -125 35t-45 85q0 66 75 95q-57 24 -57 82q0 49 40.5 79.5t117.5 30.5q72 0 111 -31t39 -75q0 -60 -60 -83q35 -12 56.5 -37t21.5 -59q0 -54 -49 -88t-125 -34zM747 54q92 0 92 63t-92 63q-45 0 -67.5 -16.5t-22.5 -44.5t24.5 -46.5
t65.5 -18.5zM749 344q-37 0 -57.5 -14t-20.5 -39q0 -55 80 -55q73 0 73 54t-75 54zM170 459v59h31q51 0 68.5 10.5t17.5 37.5q0 54 -75 54q-68 0 -85 -57h-72q2 12 5.5 25t15 30.5t27.5 30.5t45 22.5t66 9.5q72 0 111.5 -30.5t39.5 -81.5q0 -63 -60 -77q32 -7 55.5 -31.5
t23.5 -61.5q0 -53 -42.5 -88.5t-128.5 -35.5q-47 0 -81.5 13t-53 34t-27 41t-10.5 40h77q18 -68 98 -68q89 0 89 63q0 34 -25.5 47.5t-75.5 13.5h-34z" />
    <glyph glyph-name="fiveeighths" unicode="&#x215d;" horiz-adv-x="979" 
d="M321 0h-71l428 676h70zM373 676l-11 -65h-209q-11 -71 -15 -93q36 31 102 31q72 0 113.5 -36.5t41.5 -95.5q0 -64 -45.5 -103t-129.5 -39q-78 0 -122 36t-51 88h79q19 -62 95 -62q92 0 92 75q0 76 -95 76q-63 0 -93 -41l-69 15q27 146 34 214h283zM760 -9q-80 0 -125 35
t-45 85q0 66 75 95q-57 24 -57 82q0 49 40.5 79.5t117.5 30.5q72 0 111 -31t39 -75q0 -60 -60 -83q35 -12 56.5 -37t21.5 -59q0 -54 -49 -88t-125 -34zM761 51q92 0 92 63t-92 63q-45 0 -67.5 -16.5t-22.5 -44.5t24.5 -46.5t65.5 -18.5zM763 341q-37 0 -57.5 -14t-20.5 -39
q0 -55 80 -55q73 0 73 54t-75 54z" />
    <glyph glyph-name="seveneighths" unicode="&#x215e;" horiz-adv-x="895" 
d="M217 0h-71l428 676h70zM679 -6q-80 0 -125 35t-45 85q0 66 75 95q-57 24 -57 82q0 49 40.5 79.5t117.5 30.5q72 0 111 -31t39 -75q0 -60 -60 -83q35 -12 56.5 -37t21.5 -59q0 -54 -49 -88t-125 -34zM680 54q92 0 92 63t-92 63q-45 0 -67.5 -16.5t-22.5 -44.5t24.5 -46.5
t65.5 -18.5zM682 344q-37 0 -57.5 -14t-20.5 -39q0 -55 80 -55q73 0 73 54t-75 54zM36 676h320v-58q-57 -69 -106 -160t-71 -178h-87q22 87 76 182.5t102 147.5h-234v66z" />
    <glyph glyph-name="uni2190" unicode="&#x2190;" horiz-adv-x="1007" 
d="M964 330h-767q228 -195 388 -342l-54 -58l-488 440v4l488 447l54 -62q-52 -47 -191 -170.5t-197 -177.5h767v-81z" />
    <glyph glyph-name="arrowup" unicode="&#x2191;" horiz-adv-x="984" 
d="M440 -108v797q-240 -277 -339 -384l-57 57l438 488h4l446 -488l-60 -57q-54 59 -174 194t-171 190v-797h-87z" />
    <glyph glyph-name="uni2192" unicode="&#x2192;" horiz-adv-x="1007" 
d="M43 420h767q-228 195 -388 342l54 58l488 -440v-4l-488 -447l-54 62q52 47 191 170.5t197 177.5h-767v81z" />
    <glyph glyph-name="arrowdown" unicode="&#x2193;" horiz-adv-x="984" 
d="M536 847v-797q240 277 339 384l57 -57l-438 -488h-4l-446 488l60 57q54 -59 174 -194t171 -190v797h87z" />
    <glyph glyph-name="partialdiff" unicode="&#x2202;" horiz-adv-x="612" 
d="M102 639v78q43 9 106 9q71 0 133.5 -23t113 -68.5t80 -121.5t29.5 -173q0 -55 -7.5 -103t-27 -95t-49 -80t-77.5 -53.5t-110 -20.5q-108 0 -176.5 66.5t-68.5 160.5q0 105 68.5 166t176.5 61q121 0 177 -74v8q0 70 -28.5 129.5t-91 99.5t-149.5 40q-66 0 -99 -6zM299 64
q36 0 65.5 12.5t47.5 31.5t30 44t16.5 48t4.5 46q0 42 -46 82t-118 40q-68 0 -111.5 -40.5t-43.5 -112.5q0 -70 45.5 -110.5t109.5 -40.5z" />
    <glyph glyph-name="uni2206" unicode="&#x2206;" horiz-adv-x="730" 
d="M705 0h-680v67l276 643h130l274 -643v-67zM135 85h451l-120 280q-75 173 -104 269h-2q-17 -67 -103 -268z" />
    <glyph glyph-name="product" unicode="&#x220f;" horiz-adv-x="782" 
d="M97 710h588v-810h-100v725h-388v-725h-100v810z" />
    <glyph glyph-name="summation" unicode="&#x2211;" horiz-adv-x="579" 
d="M565 -100h-561v69l285 342l-267 328v71h524v-84h-399l254 -308l-277 -333h455z" />
    <glyph glyph-name="minus" unicode="&#x2212;" horiz-adv-x="825" 
d="M721 281h-617v84h617v-84z" />
    <glyph glyph-name="uni2215" unicode="&#x2215;" horiz-adv-x="163" 
d="M-96 0h-71l428 676h70z" />
    <glyph glyph-name="uni2219" unicode="&#x2219;" horiz-adv-x="222" 
d="M164 200h-106v164h106v-164z" />
    <glyph glyph-name="radical" unicode="&#x221a;" horiz-adv-x="683" 
d="M656 866l-251 -1078h-71l-169 425l-96 -47l-25 62l175 88q129 -340 145 -407q10 102 215 957h77z" />
    <glyph glyph-name="infinity" unicode="&#x221e;" horiz-adv-x="868" 
d="M226 110q-70 0 -118 51t-48 128q0 76 48.5 127.5t126.5 51.5q42 0 81 -20t61.5 -41.5t56.5 -60.5q56 61 102 91.5t109 30.5q71 0 117 -50t46 -129q0 -75 -48.5 -127t-124.5 -52q-39 0 -78.5 21t-63 43t-59.5 61q-31 -33 -44.5 -46.5t-42.5 -36.5t-58 -32.5t-63 -9.5z
M230 184q46 0 82 27t77 77q-3 3 -17 19.5t-19 22t-18.5 19.5t-22.5 20t-22.5 14t-27 11t-27.5 3q-47 0 -75.5 -31t-28.5 -77t28 -75.5t71 -29.5zM636 184q48 0 74.5 30t26.5 75q0 48 -26 78t-72 30q-44 0 -80 -25.5t-82 -79.5q2 -2 14 -15t14.5 -16t14 -14.5t15.5 -15
t14.5 -12.5t16.5 -12t16 -9t17.5 -8t17 -4t19.5 -2z" />
    <glyph glyph-name="integral" unicode="&#x222b;" horiz-adv-x="366" 
d="M362 881l-9 -84q-24 6 -50 6q-25 0 -42 -10t-25.5 -24t-13 -41.5t-5.5 -48.5t-1 -58q0 -78 11 -314.5t11 -313.5q0 -60 -7 -103t-24 -79t-50 -54.5t-81 -18.5q-47 0 -73 14l12 85q36 -9 58 -9q19 0 33.5 6.5t22.5 20.5t13 26.5t7 35.5t2.5 35.5t0.5 37.5v10
q0 77 -11.5 320.5t-11.5 321.5q0 250 169 250q40 0 64 -11z" />
    <glyph glyph-name="approxequal" unicode="&#x2248;" horiz-adv-x="825" 
d="M180 131h-76v23q0 67 35 99.5t96 32.5q66 0 183.5 -40t170.5 -40q32 0 44 17t12 51v9h76v-20q0 -138 -133 -138q-70 0 -185 40t-162 40q-61 0 -61 -60v-14zM179 373h-75v23q0 132 134 132q65 0 181 -40t170 -40q31 0 43.5 16t12.5 49v9h76v-18q0 -138 -130 -138
q-69 0 -185 40.5t-165 40.5q-62 0 -62 -64v-10z" />
    <glyph glyph-name="notequal" unicode="&#x2260;" horiz-adv-x="825" 
d="M618 629l-64 -119h167v-84h-212l-106 -196h318v-84h-363l-67 -125h-83l67 125h-171v84h216l105 196h-321v84h366l64 119h84z" />
    <glyph glyph-name="lessequal" unicode="&#x2264;" horiz-adv-x="786" 
d="M104 421v86l578 256v-92l-479 -205l479 -218v-93zM682 0h-578v83h578v-83z" />
    <glyph glyph-name="greaterequal" unicode="&#x2265;" horiz-adv-x="786" 
d="M682 497v-85l-578 -257v93l478 205l-478 217v93zM682 0h-578v83h578v-83z" />
    <glyph glyph-name="uni25A0" unicode="&#x25a0;" 
d="M65 120v271h271v-271h-271z" />
    <glyph glyph-name="triagup" unicode="&#x25b2;" horiz-adv-x="680" 
d="M650 0h-620l305 673h3z" />
    <glyph glyph-name="uni25B3" unicode="&#x25b3;" horiz-adv-x="680" 
d="M650 0h-620l305 673h3zM137 67h400l-201 452z" />
    <glyph glyph-name="uni25B6" unicode="&#x25b6;" horiz-adv-x="743" 
d="M40 -14v621l673 -305v-3z" />
    <glyph glyph-name="uni25B7" unicode="&#x25b7;" horiz-adv-x="743" 
d="M40 -14v621l673 -305v-3zM559 299l-450 199v-400z" />
    <glyph glyph-name="triagdn" unicode="&#x25bc;" horiz-adv-x="680" 
d="M30 653h620l-305 -673h-3z" />
    <glyph glyph-name="uni25BD" unicode="&#x25bd;" horiz-adv-x="680" 
d="M30 653h620l-305 -673h-3zM543 586h-400l201 -453z" />
    <glyph glyph-name="uni25C0" unicode="&#x25c0;" horiz-adv-x="743" 
d="M703 607v-621l-673 305v3z" />
    <glyph glyph-name="uni25C1" unicode="&#x25c1;" horiz-adv-x="743" 
d="M703 607v-621l-673 305v3zM633 495l-449 -201l449 -199v400z" />
    <glyph glyph-name="uni25C6" unicode="&#x25c6;" horiz-adv-x="426" 
d="M41 256l170 178l174 -183l-170 -175z" />
    <glyph glyph-name="uni25C9" unicode="&#x25c9;" horiz-adv-x="563" 
d="M282 333q34 0 56 -24t23 -56q-1 -37 -22.5 -62t-55.5 -25q-36 0 -58 24.5t-22 62.5q0 32 22 56t57 24zM514 253q-2 -103 -67.5 -173t-163.5 -70q-99 0 -166.5 70t-66.5 173q-1 100 67 169.5t167 69.5q97 0 163.5 -70t66.5 -169zM283 432q-73 0 -119.5 -52.5t-44.5 -126.5
q0 -78 46 -131t118 -53q73 0 119 52.5t46 131.5q0 74 -47.5 126.5t-117.5 52.5z" />
    <glyph glyph-name="lozenge" unicode="&#x25ca;" horiz-adv-x="629" 
d="M506 337l-154 253q-26 41 -37 62h-2q-1 -2 -36 -62l-153 -249l153 -257q31 -51 33 -61h5q3 7 35 60zM599 339l-242 -382h-93l-234 381l239 382h94z" />
    <glyph glyph-name="uni2610" unicode="&#x2610;" horiz-adv-x="1033" 
d="M162 790h767v-790l-65 -66h-760v799zM162 718v-725h690v726z" />
    <glyph glyph-name="uni2611" unicode="&#x2611;" horiz-adv-x="1033" 
d="M162 790h767v-791l-65 -65h-760v798zM162 717v-724h690v726zM701 661h87q-202 -264 -380 -616h-25q-89 129 -153 286l68 46q42 -134 99 -235q142 299 304 519z" />
    <glyph glyph-name="uni2713" unicode="&#x2713;" horiz-adv-x="778" 
d="M699 781h109q-287 -357 -559 -921h-27q-112 177 -196 388l82 50q67 -204 129 -310q225 484 462 793z" />
    <glyph glyph-name="uni2752" unicode="&#x2752;" horiz-adv-x="504" 
d="M48 372l92 94h315v-336l-87 -93h-320v335zM107 359v-259h245v259h-245z" />
    <glyph glyph-name="fi" unicode="&#xfb01;" horiz-adv-x="597" 
d="M206 0h-95v431h-95v75h95v68q0 186 168 186q39 0 60 -6v-78q-17 4 -45 4q-50 0 -69 -24.5t-19 -86.5v-63h118v-75h-118v-431zM420 0v506h95v-506h-95zM515 638h-95v114h95v-114z" />
    <glyph glyph-name="fl" unicode="&#xfb02;" horiz-adv-x="596" 
d="M206 0h-95v431h-95v75h95v68q0 186 168 186q39 0 60 -6v-78q-17 4 -45 4q-50 0 -69 -24.5t-19 -86.5v-63h118v-75h-118v-431zM515 0h-95v752h95v-752z" />
    <glyph glyph-name="uni00470303" horiz-adv-x="842" 
d="M761 389v-389h-77q-8 48 -8 105q-37 -60 -98 -90t-161 -30q-167 0 -264 100.5t-97 267.5q0 161 102.5 266.5t276.5 105.5q146 0 226.5 -61t103.5 -152h-104q-53 131 -227 131q-129 0 -200.5 -80t-71.5 -204q0 -130 71 -210.5t199 -80.5q112 0 172 55.5t60 159.5v21h-230
v85h327zM302 791h-68v23q0 107 92 107q36 0 97 -29t80 -29q18 0 25.5 10.5t7.5 38.5v11h66v-21q0 -113 -88 -113q-36 0 -97.5 30t-84.5 30q-30 0 -30 -43v-15z" />
    <glyph glyph-name="uni00670303" horiz-adv-x="650" 
d="M569 359v-293q0 -151 -61 -226.5t-211 -75.5q-70 0 -120.5 18t-76 48t-36.5 55t-16 53h97q29 -97 157 -97q54 0 89.5 16t53 48t24 68t6.5 88v28q-51 -98 -190 -98q-106 0 -174 73.5t-68 182.5q0 119 74.5 196t179.5 77q78 0 121 -27.5t57 -64.5q0 57 3 78h92
q-1 -49 -1 -147zM140 251q0 -78 47 -129t121 -51q80 0 124.5 48.5t44.5 137.5q0 88 -43 135.5t-121 47.5q-83 0 -128 -56t-45 -133zM220 611h-64v25q0 104 87 104q35 0 86 -28t70 -28q32 0 32 47v13h63v-23q0 -111 -87 -111q-35 0 -85 29t-71 29q-31 0 -31 -39v-18z" />
    <glyph glyph-name="zero.slash" horiz-adv-x="648" 
d="M326 690q130 0 198 -96t68 -250q0 -75 -15 -137.5t-46 -113t-84 -79t-123 -28.5q-130 0 -199 98.5t-69 253.5t69.5 253.5t200.5 98.5zM326 612q-89 0 -132.5 -74t-43.5 -200q0 -96 30 -166l252 396q-41 44 -106 44zM324 65q174 0 174 279q0 99 -29 167l-252 -399
q42 -47 107 -47z" />
    <glyph glyph-name="zero.slashtab" horiz-adv-x="638" 
d="M321 690q130 0 198 -96t68 -250q0 -75 -15 -137.5t-46 -113t-84 -79t-123 -28.5q-130 0 -199 98.5t-69 253.5t69.5 253.5t200.5 98.5zM321 612q-89 0 -132.5 -74t-43.5 -200q0 -96 30 -166l252 396q-41 44 -106 44zM319 65q174 0 174 279q0 99 -29 167l-252 -399
q42 -47 107 -47z" />
    <glyph glyph-name="zero.tab" horiz-adv-x="638" 
d="M321 690q128 0 197 -98t69 -248q0 -75 -15.5 -138t-46.5 -113t-83.5 -78.5t-122.5 -28.5q-130 0 -199 98.5t-69 253.5t70 253.5t200 98.5zM321 610q-86 0 -128.5 -73.5t-42.5 -198.5q0 -50 9 -96t28 -86.5t53 -64.5t79 -24q47 0 81 22.5t52.5 62.5t27 87.5t8.5 104.5
q0 70 -14 126.5t-53.5 98t-99.5 41.5z" />
    <glyph glyph-name="one.tab" horiz-adv-x="638" 
d="M555 0h-449v75h178v490q-28 -17 -80 -29.5t-79 -12.5v68q62 11 112 35.5t76 49.5h70v-601h172v-75z" />
    <glyph glyph-name="two.tab" horiz-adv-x="638" 
d="M575 0h-505v5q0 172 233 314q99 60 129 90.5t30 82.5q0 49 -34.5 84t-105.5 35q-128 0 -152 -139h-93q8 97 74 157.5t174 60.5q111 0 172.5 -56.5t61.5 -140.5q0 -42 -10.5 -72.5t-38.5 -58t-55.5 -46.5t-84.5 -53q-163 -99 -187 -182h406z" />
    <glyph glyph-name="three.tab" horiz-adv-x="638" 
d="M167 508h-94q5 32 20 62t42 58t74 45t108 17q116 0 174.5 -53t58.5 -128q0 -60 -32 -93.5t-72 -44.5v-2q49 -12 91 -54t42 -117q0 -95 -69 -153.5t-191 -58.5q-120 0 -185 56t-79 140h97q14 -54 58 -85.5t113 -31.5q70 0 113 33.5t43 101.5q0 59 -41 91.5t-121 32.5h-52
v81h43q78 0 110 25.5t32 74.5q0 46 -34 76.5t-102 30.5q-119 0 -147 -104z" />
    <glyph glyph-name="four.tab" horiz-adv-x="638" 
d="M489 0h-91v173h-354v84l338 419h107v-420h103l-12 -83h-91v-173zM398 256v168q0 105 3 159q-55 -81 -255 -327h252z" />
    <glyph glyph-name="five.tab" horiz-adv-x="638" 
d="M555 676l-11 -81h-332q-8 -62 -31 -192q59 53 164 53t168.5 -61t63.5 -163q0 -111 -69.5 -178.5t-190.5 -67.5q-114 0 -179 54.5t-78 135.5h94q34 -110 165 -110q77 0 119.5 44t42.5 117q0 62 -37 106.5t-119 44.5q-69 0 -107 -24.5t-60 -68.5l-83 13q14 67 33.5 191.5
t26.5 186.5h420z" />
    <glyph glyph-name="six.tab" horiz-adv-x="638" 
d="M564 528h-94q-32 86 -135 86q-166 0 -175 -254q64 98 196 98q105 0 168 -61t63 -161q0 -115 -71 -182t-186 -67q-127 0 -197 88t-70 255q0 55 8 104.5t28.5 97t51 82t79.5 55.5t110 21q102 0 157.5 -48.5t66.5 -113.5zM331 65q75 0 117 44.5t42 119.5q0 68 -39.5 109.5
t-114.5 41.5q-78 0 -122 -42.5t-44 -100.5q0 -22 7.5 -48t24 -55.5t50 -49t79.5 -19.5z" />
    <glyph glyph-name="seven.tab" horiz-adv-x="638" 
d="M71 676h494v-77q-96 -123 -173.5 -284.5t-110.5 -314.5h-104q27 145 108.5 312.5t175.5 281.5h-390v82z" />
    <glyph glyph-name="eight.tab" horiz-adv-x="638" 
d="M317 -14q-114 0 -188.5 55.5t-74.5 148.5q0 63 36.5 107t94.5 65q-43 20 -69.5 57.5t-26.5 87.5q0 82 62.5 132.5t173.5 50.5q99 0 163.5 -49t64.5 -135q0 -54 -29 -90.5t-72 -50.5q63 -20 97 -65.5t34 -106.5q0 -99 -77.5 -153t-188.5 -54zM318 62q71 0 119.5 32.5
t48.5 97.5q0 57 -40 93t-127 36q-90 0 -129 -35.5t-39 -91.5q0 -63 48 -97.5t119 -34.5zM322 616q-63 0 -101 -28t-38 -81q0 -46 34 -77t107 -31q132 0 132 107q0 49 -36 79.5t-98 30.5z" />
    <glyph glyph-name="nine.tab" horiz-adv-x="638" 
d="M70 157h97q35 -93 143 -93q50 0 84 23t52 66t25.5 85t10.5 98q-53 -90 -185 -90q-110 0 -173 60t-63 153q0 101 68.5 165.5t181.5 64.5q129 0 197.5 -81.5t68.5 -235.5q0 -80 -13.5 -146t-43 -121.5t-83.5 -86.5t-129 -31q-107 0 -164.5 50t-73.5 120zM309 611
q-71 0 -110 -41t-39 -105q0 -66 41.5 -104t112.5 -38q70 0 112 36t42 92q0 61 -37.5 110.5t-121.5 49.5z" />
    <glyph glyph-name="zero.slashcap" horiz-adv-x="681" 
d="M342 724q136 0 208 -102t72 -261q0 -76 -16 -141.5t-48.5 -119t-88.5 -84t-129 -30.5q-136 0 -208.5 105t-72.5 264t73 264t210 105zM342 645q-96 0 -141.5 -79.5t-45.5 -210.5q0 -104 35 -180l270 416q-46 54 -118 54zM341 66q53 0 90.5 25t57 69.5t28 93.5t8.5 107
q0 100 -30 171l-267 -416q45 -50 113 -50z" />
    <glyph glyph-name="zero.cap" horiz-adv-x="681" 
d="M342 724q136 0 208 -102t72 -261q0 -76 -16 -141.5t-48.5 -119t-88.5 -84t-129 -30.5q-136 0 -208.5 105t-72.5 264t73 264t210 105zM342 643q-94 0 -138.5 -79t-44.5 -209q0 -51 9.5 -98.5t29.5 -91.5t57 -70.5t86 -26.5q51 0 88 25t56 68.5t27.5 92.5t8.5 107
q0 51 -9 97.5t-28.5 89.5t-56 69t-85.5 26z" />
    <glyph glyph-name="one.cap" horiz-adv-x="410" 
d="M307 0h-100v590q-30 -21 -86 -40t-88 -22v74q60 16 113.5 46t85.5 62h75v-710z" />
    <glyph glyph-name="two.cap" horiz-adv-x="622" 
d="M576 0h-530v3q0 183 241 331q102 62 134 95.5t32 85.5q0 58 -36.5 93t-108.5 35q-136 0 -161 -145h-96q10 101 77 163.5t182 62.5q120 0 182 -60t62 -148q0 -80 -45 -129.5t-153 -112.5q-79 -46 -129 -95.5t-63 -94.5h427z" />
    <glyph glyph-name="three.cap" horiz-adv-x="660" 
d="M167 532h-96q12 77 74.5 134.5t180.5 57.5q120 0 182 -54.5t62 -135.5q0 -63 -32 -98t-75 -47v-2q53 -14 96 -56t43 -120q0 -101 -72.5 -162.5t-200.5 -61.5q-127 0 -195.5 59t-81.5 151h97q15 -63 62 -96.5t121 -33.5q75 0 123 35.5t48 106.5q0 66 -45 99.5t-128 33.5
h-56v82h53q144 0 144 106q0 48 -36 81t-113 33q-126 0 -155 -112z" />
    <glyph glyph-name="four.cap" horiz-adv-x="652" 
d="M513 0h-92v185h-376v84l358 441h110v-442h107l-12 -83h-95v-185zM421 268v185q0 117 4 168q-42 -62 -276 -353h272z" />
    <glyph glyph-name="five.cap" horiz-adv-x="665" 
d="M581 710l-11 -82h-352q-15 -115 -32 -208q64 58 175 58q115 0 181 -66t66 -172q0 -110 -73 -182t-205 -72q-116 0 -183.5 57.5t-82.5 143.5h98q16 -56 60 -88.5t112 -32.5q84 0 130 47.5t46 121.5q0 67 -40.5 116t-127.5 49q-129 0 -180 -98l-83 14q40 207 59 394h443z
" />
    <glyph glyph-name="six.cap" horiz-adv-x="657" 
d="M583 553h-98q-31 94 -142 94q-52 0 -89 -23t-57 -64t-29.5 -86.5t-11.5 -99.5q70 106 211 106q108 0 175.5 -66t67.5 -170q0 -115 -75 -186.5t-197 -71.5q-135 0 -207 94t-72 263q0 69 14 132t45 121t89.5 93t138.5 35q108 0 165 -50t72 -121zM339 66q80 0 126 47t46 125
q0 71 -42.5 116.5t-121.5 45.5q-82 0 -130.5 -44t-48.5 -111q0 -19 7.5 -45.5t24.5 -58.5t53 -53.5t86 -21.5z" />
    <glyph glyph-name="seven.cap" horiz-adv-x="558" 
d="M13 710h519v-77q-104 -129 -184 -299.5t-114 -333.5h-108q30 158 114.5 334t182.5 294h-410v82z" />
    <glyph glyph-name="eight.cap" horiz-adv-x="668" 
d="M332 -14q-122 0 -199 57.5t-77 157.5q0 125 134 179q-99 50 -99 153q0 88 67 139.5t184 51.5q105 0 172 -51.5t67 -140.5q0 -56 -30.5 -94.5t-76.5 -53.5q65 -22 101.5 -68.5t36.5 -111.5q0 -105 -80 -161.5t-200 -56.5zM334 63q79 0 129 34t50 106q0 60 -44.5 98.5
t-133.5 38.5q-95 0 -138 -38t-43 -97q0 -68 50.5 -105t129.5 -37zM337 649q-70 0 -110.5 -30.5t-40.5 -86.5q0 -47 37 -81t116 -34q144 0 144 114q0 54 -39 86t-107 32z" />
    <glyph glyph-name="nine.cap" horiz-adv-x="656" 
d="M63 163h101q40 -99 153 -99q171 0 183 287q-61 -94 -198 -94q-111 0 -179 63t-68 163q0 105 73 173t192 68q136 0 206 -88.5t70 -252.5q0 -58 -7 -109.5t-26 -106t-49.5 -93t-81.5 -63.5t-118 -25q-206 0 -251 177zM317 645q-75 0 -119 -43t-44 -115q0 -70 46.5 -109.5
t116.5 -39.5q76 0 122 38.5t46 97.5q0 29 -8.5 57t-27 54.5t-52.5 43t-80 16.5z" />
    <glyph glyph-name="period.sups" horiz-adv-x="143" 
d="M109 446h-75v105h75v-105z" />
    <glyph glyph-name="comma.sups" horiz-adv-x="151" 
d="M73 353h-66q40 93 45 198h72q-4 -54 -19.5 -111t-31.5 -87z" />
    <glyph glyph-name="dollar.sups" horiz-adv-x="434" 
d="M252 379h-68v67q-64 7 -104 40.5t-47 81.5h81q20 -68 109 -68q99 0 99 58q0 25 -23 39t-88 22q-94 11 -129 39t-35 74q0 42 34.5 74t102.5 38v51h68v-51q63 -8 97 -38.5t41 -71.5h-77q-22 55 -101 55q-88 0 -88 -49q0 -25 22.5 -35.5t87.5 -19.5q97 -12 132 -41.5
t35 -76.5q0 -48 -37.5 -81.5t-111.5 -40.5v-66z" />
    <glyph glyph-name="cent.sups" horiz-adv-x="438" 
d="M332 598h75q-10 -42 -45.5 -70t-94.5 -35v-62h-68v62q-70 10 -112 53t-42 104q0 68 42.5 109t111.5 50v51h68v-51q64 -7 99.5 -39.5t40.5 -65.5h-75q-23 52 -101 52q-53 0 -81.5 -26.5t-28.5 -76.5q0 -45 31.5 -75.5t81.5 -30.5q74 0 98 51z" />
    <glyph glyph-name="hyphen.sups" horiz-adv-x="258" 
d="M30 681h198v-65h-198v65z" />
    <glyph glyph-name="period.subs" horiz-adv-x="143" 
d="M109 -155h-75v105h75v-105z" />
    <glyph glyph-name="comma.subs" horiz-adv-x="151" 
d="M73 -248h-66q40 93 45 198h72q-4 -54 -19.5 -111t-31.5 -87z" />
    <glyph glyph-name="dollar.subs" horiz-adv-x="434" 
d="M252 -222h-68v67q-64 7 -104 40.5t-47 81.5h81q20 -68 109 -68q99 0 99 58q0 25 -23 39t-88 22q-94 11 -129 39t-35 74q0 42 34.5 74t102.5 38v51h68v-51q63 -8 97 -38.5t41 -71.5h-77q-22 55 -101 55q-88 0 -88 -49q0 -25 22.5 -35.5t87.5 -19.5q97 -12 132 -41.5
t35 -76.5q0 -48 -37.5 -81.5t-111.5 -40.5v-66z" />
    <glyph glyph-name="cent.subs" horiz-adv-x="438" 
d="M332 -3h75q-10 -42 -45.5 -70t-94.5 -35v-62h-68v62q-70 10 -112 53t-42 104q0 68 42.5 109t111.5 50v51h68v-51q64 -7 99.5 -39.5t40.5 -65.5h-75q-23 52 -101 52q-53 0 -81.5 -26.5t-28.5 -76.5q0 -45 31.5 -75.5t81.5 -30.5q74 0 98 51z" />
    <glyph glyph-name="hyphen.subs" horiz-adv-x="258" 
d="M30 80h198v-65h-198v65z" />
    <glyph glyph-name="zero.numr" horiz-adv-x="429" 
d="M217 681q86 0 132 -57.5t46 -143.5q0 -95 -49 -150.5t-132 -55.5q-84 0 -132 57.5t-48 144.5q0 90 49 147.5t134 57.5zM215 618q-47 0 -73.5 -36.5t-26.5 -104.5q0 -63 28 -101t73 -38q98 0 98 140q0 65 -26 102.5t-73 37.5z" />
    <glyph glyph-name="one.numr" horiz-adv-x="246" 
d="M183 279h-79v309q-14 -8 -42.5 -16.5t-43.5 -8.5v58q24 4 57.5 21t53.5 34h54v-397z" />
    <glyph glyph-name="two.numr" horiz-adv-x="397" 
d="M362 279h-325v5q0 111 139 183q62 33 80 48t18 41t-19 44t-58 18q-38 0 -59 -16.5t-28 -53.5h-76q6 60 49 96.5t117 36.5q79 0 117.5 -37t38.5 -86q0 -48 -27.5 -75t-93.5 -59q-46 -24 -67 -40.5t-32 -39.5h238z" />
    <glyph glyph-name="three.numr" horiz-adv-x="396" 
d="M153 459v59h31q51 0 68.5 10.5t17.5 37.5q0 54 -75 54q-68 0 -85 -57h-72q2 12 5.5 25t15 30.5t27.5 30.5t45 22.5t66 9.5q72 0 111.5 -30.5t39.5 -81.5q0 -63 -60 -77q32 -7 55.5 -31.5t23.5 -61.5q0 -53 -42.5 -88.5t-128.5 -35.5q-47 0 -81.5 13t-53 34t-27 41
t-10.5 40h77q18 -68 98 -68q89 0 89 63q0 34 -25.5 47.5t-75.5 13.5h-34z" />
    <glyph glyph-name="four.numr" horiz-adv-x="411" 
d="M323 279h-73v97h-220v62l201 238h92v-238h71l-6 -62h-65v-97zM110 438h140v80q0 74 2 97q-18 -26 -142 -177z" />
    <glyph glyph-name="five.numr" horiz-adv-x="418" 
d="M367 676l-11 -65h-209q-11 -71 -15 -93q36 31 102 31q72 0 113.5 -36.5t41.5 -95.5q0 -64 -45.5 -103t-129.5 -39q-78 0 -122 36t-51 88h79q19 -62 95 -62q92 0 92 75q0 76 -95 76q-63 0 -93 -41l-69 15q27 146 34 214h283z" />
    <glyph glyph-name="six.numr" horiz-adv-x="417" 
d="M373 576h-79q-19 46 -79 46q-94 0 -102 -118q43 48 127 47q69 -1 108.5 -38t39.5 -94q0 -64 -47 -104.5t-124 -40.5q-86 0 -134.5 53t-48.5 145q0 86 44.5 147.5t138.5 61.5q69 0 109 -31.5t47 -73.5zM217 334q41 0 66 20t25 61q0 78 -92 78q-40 0 -67.5 -18.5
t-27.5 -47.5q0 -36 23 -64.5t73 -28.5z" />
    <glyph glyph-name="seven.numr" horiz-adv-x="358" 
d="M15 676h320v-58q-57 -69 -106 -160t-71 -178h-87q22 87 76 182.5t102 147.5h-234v66z" />
    <glyph glyph-name="eight.numr" horiz-adv-x="412" 
d="M204 274q-80 0 -125 35t-45 85q0 66 75 95q-57 24 -57 82q0 49 40.5 79.5t117.5 30.5q72 0 111 -31t39 -75q0 -60 -60 -83q35 -12 56.5 -37t21.5 -59q0 -54 -49 -88t-125 -34zM205 334q92 0 92 63t-92 63q-45 0 -67.5 -16.5t-22.5 -44.5t24.5 -46.5t65.5 -18.5zM207 624
q-37 0 -57.5 -14t-20.5 -39q0 -55 80 -55q73 0 73 54t-75 54z" />
    <glyph glyph-name="nine.numr" horiz-adv-x="420" 
d="M39 384h79q20 -50 86 -50q93 0 103 127q-34 -46 -123 -45q-71 1 -111.5 37t-40.5 90q0 61 47 99.5t123 38.5q88 0 136 -51t48 -145q0 -52 -15.5 -97t-58.5 -79.5t-109 -34.5q-71 0 -113.5 32.5t-50.5 77.5zM202 622q-39 0 -65.5 -18.5t-25.5 -55.5q0 -35 25 -54.5
t69 -19.5q38 0 66 15.5t28 47.5q0 37 -24 61t-73 24z" />
    <glyph glyph-name="parenleft.numr" horiz-adv-x="239" 
d="M137 737h78q-102 -123 -102 -270q0 -144 102 -267h-78q-37 39 -65.5 110t-28.5 157q0 157 94 270z" />
    <glyph glyph-name="parenright.numr" horiz-adv-x="239" 
d="M102 214h-78q103 122 103 270q0 143 -103 267h78q37 -40 65.5 -110.5t28.5 -156.5q0 -157 -94 -270z" />
    <glyph glyph-name="period.numr" horiz-adv-x="143" 
d="M109 279h-75v105h75v-105z" />
    <glyph glyph-name="comma.numr" horiz-adv-x="151" 
d="M73 186h-66q40 93 45 198h72q-4 -54 -19.5 -111t-31.5 -87z" />
    <glyph glyph-name="dollar.numr" horiz-adv-x="434" 
d="M252 212h-68v67q-64 7 -104 40.5t-47 81.5h81q20 -68 109 -68q99 0 99 58q0 25 -23 39t-88 22q-94 11 -129 39t-35 74q0 42 34.5 74t102.5 38v51h68v-51q63 -8 97 -38.5t41 -71.5h-77q-22 55 -101 55q-88 0 -88 -49q0 -25 22.5 -35.5t87.5 -19.5q97 -12 132 -41.5
t35 -76.5q0 -48 -37.5 -81.5t-111.5 -40.5v-66z" />
    <glyph glyph-name="cent.numr" horiz-adv-x="438" 
d="M332 431h75q-10 -42 -45.5 -70t-94.5 -35v-62h-68v62q-70 10 -112 53t-42 104q0 68 42.5 109t111.5 50v51h68v-51q64 -7 99.5 -39.5t40.5 -65.5h-75q-23 52 -101 52q-53 0 -81.5 -26.5t-28.5 -76.5q0 -45 31.5 -75.5t81.5 -30.5q74 0 98 51z" />
    <glyph glyph-name="hyphen.numr" horiz-adv-x="258" 
d="M30 514h198v-65h-198v65z" />
    <glyph glyph-name="zero.dnom" horiz-adv-x="429" 
d="M217 401q86 0 132 -57.5t46 -143.5q0 -95 -49 -150.5t-132 -55.5q-84 0 -132 57.5t-48 144.5q0 90 49 147.5t134 57.5zM215 338q-47 0 -73.5 -36.5t-26.5 -104.5q0 -63 28 -101t73 -38q98 0 98 140q0 65 -26 102.5t-73 37.5z" />
    <glyph glyph-name="one.dnom" horiz-adv-x="246" 
d="M183 -1h-79v309q-14 -8 -42.5 -16.5t-43.5 -8.5v58q24 4 57.5 21t53.5 34h54v-397z" />
    <glyph glyph-name="two.dnom" horiz-adv-x="397" 
d="M362 -1h-325v5q0 111 139 183q62 33 80 48t18 41t-19 44t-58 18q-38 0 -59 -16.5t-28 -53.5h-76q6 60 49 96.5t117 36.5q79 0 117.5 -37t38.5 -86q0 -48 -27.5 -75t-93.5 -59q-46 -24 -67 -40.5t-32 -39.5h238z" />
    <glyph glyph-name="three.dnom" horiz-adv-x="396" 
d="M153 179v59h31q51 0 68.5 10.5t17.5 37.5q0 54 -75 54q-68 0 -85 -57h-72q2 12 5.5 25t15 30.5t27.5 30.5t45 22.5t66 9.5q72 0 111.5 -30.5t39.5 -81.5q0 -63 -60 -77q32 -7 55.5 -31.5t23.5 -61.5q0 -53 -42.5 -88.5t-128.5 -35.5q-47 0 -81.5 13t-53 34t-27 41
t-10.5 40h77q18 -68 98 -68q89 0 89 63q0 34 -25.5 47.5t-75.5 13.5h-34z" />
    <glyph glyph-name="four.dnom" horiz-adv-x="411" 
d="M323 -1h-73v97h-220v62l201 238h92v-238h71l-6 -62h-65v-97zM110 158h140v80q0 74 2 97q-18 -26 -142 -177z" />
    <glyph glyph-name="five.dnom" horiz-adv-x="418" 
d="M367 396l-11 -65h-209q-11 -71 -15 -93q36 31 102 31q72 0 113.5 -36.5t41.5 -95.5q0 -64 -45.5 -103t-129.5 -39q-78 0 -122 36t-51 88h79q19 -62 95 -62q92 0 92 75q0 76 -95 76q-63 0 -93 -41l-69 15q27 147 34 214h283z" />
    <glyph glyph-name="six.dnom" horiz-adv-x="417" 
d="M373 296h-79q-19 46 -79 46q-94 0 -102 -118q43 48 127 47q69 -1 108.5 -38t39.5 -94q0 -64 -47 -104.5t-124 -40.5q-86 0 -134.5 53t-48.5 145q0 86 44.5 147.5t138.5 61.5q69 0 109 -31.5t47 -73.5zM217 54q41 0 66 20t25 61q0 78 -92 78q-40 0 -67.5 -18.5
t-27.5 -47.5q0 -36 23 -64.5t73 -28.5z" />
    <glyph glyph-name="seven.dnom" horiz-adv-x="358" 
d="M15 396h320v-58q-57 -69 -106 -160t-71 -178h-87q22 87 76 182.5t102 147.5h-234v66z" />
    <glyph glyph-name="eight.dnom" horiz-adv-x="412" 
d="M204 -6q-80 0 -125 35t-45 85q0 66 75 95q-57 24 -57 82q0 49 40.5 79.5t117.5 30.5q72 0 111 -31t39 -75q0 -60 -60 -83q35 -12 56.5 -37t21.5 -59q0 -54 -49 -88t-125 -34zM205 54q92 0 92 63t-92 63q-45 0 -67.5 -16.5t-22.5 -44.5t24.5 -46.5t65.5 -18.5zM207 344
q-37 0 -57.5 -14t-20.5 -39q0 -55 80 -55q73 0 73 54t-75 54z" />
    <glyph glyph-name="nine.dnom" horiz-adv-x="420" 
d="M39 104h79q20 -50 86 -50q93 0 103 127q-34 -46 -123 -45q-71 1 -111.5 37t-40.5 90q0 61 47 99.5t123 38.5q88 0 136 -51t48 -145q0 -52 -15.5 -97t-58.5 -79.5t-109 -34.5q-71 0 -113.5 32.5t-50.5 77.5zM202 342q-39 0 -65.5 -18.5t-25.5 -55.5q0 -35 25 -54.5
t69 -19.5q38 0 66 15.5t28 47.5q0 37 -24 61t-73 24z" />
    <glyph glyph-name="parenleft.dnom" horiz-adv-x="239" 
d="M137 457h78q-102 -123 -102 -270q0 -144 102 -267h-78q-37 39 -65.5 110t-28.5 157q0 157 94 270z" />
    <glyph glyph-name="parenright.dnom" horiz-adv-x="239" 
d="M102 -66h-78q103 122 103 270q0 143 -103 267h78q37 -40 65.5 -110.5t28.5 -156.5q0 -157 -94 -270z" />
    <glyph glyph-name="period.dnom" horiz-adv-x="143" 
d="M109 -1h-75v105h75v-105z" />
    <glyph glyph-name="comma.dnom" horiz-adv-x="151" 
d="M73 -94h-66q40 93 45 198h72q-4 -54 -19.5 -111t-31.5 -87z" />
    <glyph glyph-name="dollar.dnom" horiz-adv-x="434" 
d="M252 -68h-68v67q-64 7 -104 40.5t-47 81.5h81q20 -68 109 -68q99 0 99 58q0 25 -23 39t-88 22q-94 11 -129 39t-35 74q0 42 34.5 74t102.5 38v51h68v-51q63 -8 97 -38.5t41 -71.5h-77q-22 55 -101 55q-88 0 -88 -49q0 -25 22.5 -35.5t87.5 -19.5q97 -12 132 -41.5
t35 -76.5q0 -48 -37.5 -81.5t-111.5 -40.5v-66z" />
    <glyph glyph-name="cent.dnom" horiz-adv-x="438" 
d="M332 151h75q-10 -42 -45.5 -70t-94.5 -35v-62h-68v62q-70 10 -112 53t-42 104q0 68 42.5 109t111.5 50v51h68v-51q64 -7 99.5 -39.5t40.5 -65.5h-75q-23 52 -101 52q-53 0 -81.5 -26.5t-28.5 -76.5q0 -45 31.5 -75.5t81.5 -30.5q74 0 98 51z" />
    <glyph glyph-name="hyphen.dnom" horiz-adv-x="258" 
d="M30 234h198v-65h-198v65z" />
    <glyph glyph-name="a.sups" horiz-adv-x="406" 
d="M353 501v-151q0 -50 1 -72l-71 -1q-3 18 -3 55q-38 -58 -124 -58q-61 0 -94.5 30.5t-33.5 76.5q0 34 15 56.5t43 34t58.5 15.5t70.5 4h64v12q0 63 -80 63q-69 0 -80 -49h-71q16 103 152 103q153 0 153 -119zM280 435v7h-66q-51 0 -80 -11t-29 -45q0 -22 19 -37.5
t53 -15.5q45 0 74 23.5t29 78.5z" />
    <glyph glyph-name="b.sups" horiz-adv-x="435" 
d="M53 383v378h74v-199q36 58 123 58q65 0 109.5 -46t44.5 -118q0 -83 -46 -132.5t-119 -49.5q-77 0 -112 52q0 -26 -2 -46h-72v103zM325 454q0 47 -25.5 75.5t-70.5 28.5q-49 0 -77.5 -29.5t-28.5 -82.5q0 -49 25.5 -80t76.5 -31q50 0 75 33t25 86z" />
    <glyph glyph-name="c.sups" horiz-adv-x="391" 
d="M294 386h73q-14 -49 -54 -81t-105 -32q-84 0 -131 49t-47 123q0 77 49 126t130 49q71 0 111 -33.5t48 -80.5h-73q-16 55 -87 55q-44 0 -72 -29.5t-28 -84.5q0 -49 25.5 -82t76.5 -33q59 0 84 54z" />
    <glyph glyph-name="d.sups" horiz-adv-x="433" 
d="M307 761h74v-393q0 -66 1 -88h-71q-2 9 -2 52q-36 -59 -120 -59q-68 0 -113.5 48t-45.5 121q0 80 50 129t119 49q79 0 108 -44v185zM109 444q0 -45 26 -77t74 -32t74 29.5t26 85.5q0 108 -99 108q-49 0 -75 -31t-26 -83z" />
    <glyph glyph-name="e.sups" horiz-adv-x="403" 
d="M375 432h-268q1 -47 30 -73.5t73 -26.5q64 0 91 45h72q-15 -46 -57 -75t-109 -29q-88 0 -132.5 51.5t-44.5 118.5q0 76 48 126.5t129 50.5q86 0 128 -49.5t42 -111.5q0 -20 -2 -27zM109 480h191q-2 37 -26 60.5t-68 23.5q-43 0 -67.5 -23t-29.5 -61z" />
    <glyph glyph-name="f.sups" horiz-adv-x="208" 
d="M137 280h-74v275h-56v57h56v35q0 59 29.5 89.5t84.5 30.5q22 0 42 -5v-60q-16 4 -31 4q-27 0 -39 -13.5t-12 -45.5v-35h77v-57h-77v-275z" />
    <glyph glyph-name="g.sups" horiz-adv-x="431" 
d="M379 517v-197q0 -82 -43 -132.5t-136 -50.5q-76 0 -117 34.5t-48 81.5h76q16 -56 94 -56q54 0 78 29.5t24 92.5v18q-32 -53 -116 -53q-68 0 -114 47t-46 116q0 72 46 122t118 51q86 0 113 -52q0 11 1.5 27t1.5 17h69q-1 -18 -1 -95zM109 449q0 -47 27.5 -76t73.5 -29
q45 0 71 29.5t26 80.5q0 54 -27 79.5t-73 25.5q-47 0 -72.5 -30t-25.5 -80z" />
    <glyph glyph-name="h.sups" horiz-adv-x="434" 
d="M53 280v481h74v-203q37 62 123 62q54 0 92.5 -32.5t38.5 -104.5v-203h-75v186q0 45 -17.5 68t-62.5 23q-43 0 -71 -29.5t-28 -80.5v-167h-74z" />
    <glyph glyph-name="i.sups" horiz-adv-x="181" 
d="M127 280h-74v332h74v-332zM127 676h-74v85h74v-85z" />
    <glyph glyph-name="j.sups" horiz-adv-x="180" 
d="M-8 137v61h6q34 1 44.5 18.5t10.5 57.5v338h74v-330q0 -75 -27 -110t-93 -35h-15zM127 676h-74v85h74v-85z" />
    <glyph glyph-name="k.sups" horiz-adv-x="390" 
d="M127 761v-296q16 15 78.5 70t85.5 77h93q-25 -23 -73 -63t-71 -60l160 -209h-92l-122 167q-9 -8 -59 -47v-120h-74v481h74z" />
    <glyph glyph-name="l.sups" horiz-adv-x="180" 
d="M127 280h-74v481h74v-481z" />
    <glyph glyph-name="m.sups" horiz-adv-x="639" 
d="M587 280h-72v194q0 82 -72 82q-40 0 -62.5 -25.5t-22.5 -75.5v-175h-74v198q0 78 -71 78q-42 0 -64.5 -28.5t-22.5 -76.5v-171h-73v226q0 90 -1 106h70q3 -15 3 -54q36 62 113 62q82 0 107 -60q43 60 120 60q53 0 87.5 -33t34.5 -98v-209z" />
    <glyph glyph-name="o.sups" horiz-adv-x="425" 
d="M214 620q82 0 131 -49.5t49 -123.5q0 -79 -51 -126.5t-134 -47.5q-78 0 -128.5 50t-50.5 123q0 80 52 127t132 47zM211 560q-51 0 -76.5 -31t-25.5 -83q0 -48 28.5 -81t73.5 -33q52 0 78 30.5t26 84.5q-1 51 -27.5 82t-76.5 31z" />
    <glyph glyph-name="p.sups" horiz-adv-x="435" 
d="M127 148h-74v369q0 71 -1 95h72q2 -10 2 -58q36 66 125 66q62 0 107.5 -47t45.5 -120q0 -84 -49 -131.5t-118 -47.5q-75 0 -110 52v-178zM325 452q0 48 -25.5 76t-70.5 28q-48 0 -76 -30t-28 -79q0 -47 25 -79t73 -32q102 0 102 116z" />
    <glyph glyph-name="q.sups" horiz-adv-x="434" 
d="M307 148v183q-34 -58 -117 -58q-65 0 -112.5 47.5t-47.5 122.5q0 81 51.5 129t118.5 48q82 0 111 -53q2 37 3 45h69q-2 -54 -2 -134v-330h-74zM109 445q0 -45 27 -77t74 -32t73 29.5t26 82.5q0 51 -25.5 80.5t-72.5 29.5q-49 0 -75.5 -31t-26.5 -82z" />
    <glyph glyph-name="r.sups" horiz-adv-x="270" 
d="M53 280v220q0 31 -0.5 71t-0.5 41h71q3 -20 3 -70q40 76 129 78v-75q-128 -6 -128 -117v-148h-74z" />
    <glyph glyph-name="s.sups" horiz-adv-x="358" 
d="M23 384h73q19 -54 89 -54q73 0 73 42q0 21 -19 31.5t-67 17.5q-79 12 -107 37.5t-28 62.5q0 40 36 69.5t103 29.5q72 0 107.5 -30.5t39.5 -71.5h-70q-16 48 -81 48q-62 0 -62 -38q0 -18 15 -27t62 -17q84 -13 115 -39t31 -68q0 -46 -39.5 -75t-111.5 -29q-68 0 -110.5 31
t-48.5 80z" />
    <glyph glyph-name="t.sups" horiz-adv-x="228" 
d="M5 612h62v102h74v-102h82v-59h-82v-179q0 -22 10 -31t37 -9q16 0 26 1v-54q-20 -7 -54 -7q-49 0 -71 20.5t-22 67.5v191h-62v59z" />
    <glyph glyph-name="u.sups" horiz-adv-x="432" 
d="M376 612v-235q0 -60 1 -97h-72q-2 20 -2 58q-32 -65 -120 -65q-57 0 -93.5 33t-36.5 100v206h76v-187q0 -90 77 -90q45 0 70.5 31.5t25.5 89.5v156h74z" />
    <glyph glyph-name="v.sups" horiz-adv-x="391" 
d="M7 612h82q93 -223 108 -275h1q9 27 57.5 144.5t53.5 130.5h76l-144 -332h-91z" />
    <glyph glyph-name="w.sups" horiz-adv-x="604" 
d="M17 612h82q51 -160 78 -262h1q4 20 91 262h71q78 -222 87 -260h1q9 43 83 260h76l-120 -332h-80q-19 57 -50 142.5t-37 104.5h-1q-3 -11 -15 -43t-33 -90t-41 -114h-80z" />
    <glyph glyph-name="x.sups" horiz-adv-x="363" 
d="M-1 612h93q83 -104 91 -116h1q8 10 39.5 49t53.5 67h85l-134 -159l139 -173h-90q-76 95 -97 123h-1q-2 -3 -36 -46t-61 -77h-86l139 167z" />
    <glyph glyph-name="y.sups" horiz-adv-x="382" 
d="M4 612h83q98 -215 113 -264h1q14 43 102 264h76l-139 -328q-37 -88 -70.5 -121t-94.5 -32q-13 0 -40 3v62q16 -2 31 -2q33 0 54.5 17t41.5 68z" />
    <glyph glyph-name="z.sups" horiz-adv-x="349" 
d="M17 284v50q27 27 216 222h-208v60h302v-50q-13 -16 -92.5 -98t-121.5 -123h222l-11 -61h-307z" />
    <glyph glyph-name="egrave.sups" horiz-adv-x="403" 
d="M71 771h89l97 -102h-74zM375 432h-268q1 -47 30 -73.5t73 -26.5q64 0 91 45h72q-15 -46 -57 -75t-109 -29q-88 0 -132.5 51.5t-44.5 118.5q0 76 48 126.5t129 50.5q86 0 128 -49.5t42 -111.5q0 -20 -2 -27zM109 480h191q-2 37 -26 60.5t-68 23.5q-43 0 -67.5 -23
t-29.5 -61z" />
    <glyph glyph-name="eacute.sups" horiz-adv-x="403" 
d="M257 771h89l-114 -103h-73zM375 432h-268q1 -47 30 -73.5t73 -26.5q64 0 91 45h72q-15 -46 -57 -75t-109 -29q-88 0 -132.5 51.5t-44.5 118.5q0 76 48 126.5t129 50.5q86 0 128 -49.5t42 -111.5q0 -20 -2 -27zM109 480h191q-2 37 -26 60.5t-68 23.5q-43 0 -67.5 -23
t-29.5 -61z" />
    <glyph glyph-name="dong.alt" horiz-adv-x="661" 
d="M460 684h93v-70h80v-70h-80v-399q0 -97 1 -145h-87q-5 18 -5 77q-53 -90 -185 -90q-97 0 -162 70t-65 171q0 115 71.5 183t168.5 68q127 0 170 -74v139h-240v70h240v70zM146 231q0 -67 40 -117t110 -50q78 0 123.5 44t45.5 128q0 78 -42 123t-118 45q-78 0 -118.5 -49.5
t-40.5 -123.5z" />
    <glyph glyph-name="currency.tab" horiz-adv-x="638" 
d="M315 583q81 0 142 -45l77 85l54 -59l-77 -85q37 -61 37 -141q0 -83 -37 -143l77 -85l-54 -61l-78 84q-61 -45 -143 -45q-80 0 -140 46l-77 -85l-55 61l79 83q-39 61 -39 144q0 80 39 142l-79 85l55 59l79 -84q58 44 140 44zM314 506q-72 0 -111 -47t-39 -121
q0 -86 44.5 -130.5t105.5 -44.5q67 0 107.5 43t40.5 131q0 76 -37.5 122.5t-110.5 46.5z" />
    <glyph glyph-name="dollar.tab" horiz-adv-x="638" 
d="M162 509q0 -39 26 -62t95 -41v201q-65 -3 -93 -31t-28 -67zM477 174q0 43 -26 71t-102 48v-227q61 5 94.5 32.5t33.5 75.5zM349 -104h-66v93q-101 8 -163.5 59.5t-78.5 139.5h98q28 -105 144 -120v240q-122 27 -170.5 72t-48.5 120q0 71 56 124.5t163 58.5v76h66v-77
q102 -10 153.5 -60t58.5 -116h-96q-19 81 -116 97v-212q68 -15 114.5 -36.5t70.5 -49.5t33.5 -56t9.5 -63q0 -82 -59.5 -136t-168.5 -61v-93z" />
    <glyph glyph-name="sterling.tab" horiz-adv-x="638" 
d="M582 0h-535v71q86 43 86 200q0 22 -1 33h-98v74h94q-3 36 -3 79q0 107 56 170t163 63q97 0 152 -51t62 -130h-94q-21 103 -124 103q-62 0 -90 -37t-28 -112q0 -40 3 -85h177v-74h-174v-22q0 -133 -57 -199h423z" />
    <glyph glyph-name="yen.tab" horiz-adv-x="638" 
d="M517 148h-154v-148h-95v148h-150v64h150v73h-150v65h132l-229 326h111q37 -56 71.5 -107t52.5 -77t32.5 -47.5t21 -32t10.5 -18.5h1q9 14 194 282h102l-236 -326h136v-65h-154v-73h154v-64z" />
    <glyph glyph-name="Euro.tab" horiz-adv-x="638" 
d="M486 164h92q-52 -178 -241 -178q-107 0 -174 68.5t-85 191.5h-72v62h67q-1 9 -1 27q0 17 2 45h-68v62h75q22 119 92.5 183.5t172.5 64.5q103 0 161.5 -53t69.5 -129h-91q-18 51 -52 77.5t-93 26.5q-134 0 -165 -170h211v-62h-218q-1 -14 -1 -44q0 -19 1 -28h218v-62h-212
q14 -86 56 -132.5t108 -46.5q54 0 89 22t58 75z" />
    <glyph glyph-name="cent.tab" horiz-adv-x="638" 
d="M484 238h96q-20 -71 -73.5 -115.5t-138.5 -51.5v-101h-69v101q-109 11 -169 84t-60 179t63 177.5t166 83.5v78h69v-77q96 -8 150 -58t62 -113h-95q-27 82 -117 94v-371q87 11 116 90zM169 336q0 -76 33.5 -125t96.5 -61v368q-61 -11 -95.5 -57.5t-34.5 -124.5z" />
    <glyph glyph-name="florin.tab" horiz-adv-x="638" 
d="M581 666l-17 -72q-36 15 -73 15q-42 0 -62 -33.5t-30 -97.5l-11 -68h130v-74h-143l-35 -213q-17 -108 -56 -164.5t-123 -56.5q-63 0 -104 23l18 75q36 -17 77 -17q39 0 59 31.5t35 119.5l33 202h-104v74h116l10 58q7 44 17.5 77.5t30 68.5t54 54t81.5 19q66 0 97 -21z
" />
    </font>
</defs>
</svg>
